<svg width="3194" height="878" xmlns="http://www.w3.org/2000/svg" xmlns:xlink="http://www.w3.org/1999/xlink" xml:space="preserve" overflow="hidden"><defs><filter id="fx0" x="-10%" y="-10%" width="120%" height="120%" filterUnits="userSpaceOnUse" primitiveUnits="userSpaceOnUse"><feComponentTransfer color-interpolation-filters="sRGB"><feFuncR type="discrete" tableValues="0 0"/><feFuncG type="discrete" tableValues="0 0"/><feFuncB type="discrete" tableValues="0 0"/><feFuncA type="linear" slope="0.4" intercept="0"/></feComponentTransfer><feGaussianBlur stdDeviation="6.11111 6.11111"/></filter><filter id="fx1" x="-10%" y="-10%" width="120%" height="120%" filterUnits="userSpaceOnUse" primitiveUnits="userSpaceOnUse"><feComponentTransfer color-interpolation-filters="sRGB"><feFuncR type="discrete" tableValues="0 0"/><feFuncG type="discrete" tableValues="0 0"/><feFuncB type="discrete" tableValues="0 0"/><feFuncA type="linear" slope="0.4" intercept="0"/></feComponentTransfer><feGaussianBlur stdDeviation="6.11111 6.11111"/></filter><filter id="fx2" x="-10%" y="-10%" width="120%" height="120%" filterUnits="userSpaceOnUse" primitiveUnits="userSpaceOnUse"><feComponentTransfer color-interpolation-filters="sRGB"><feFuncR type="discrete" tableValues="0 0"/><feFuncG type="discrete" tableValues="0 0"/><feFuncB type="discrete" tableValues="0 0"/><feFuncA type="linear" slope="0.4" intercept="0"/></feComponentTransfer><feGaussianBlur stdDeviation="6.11111 6.11111"/></filter><filter id="fx3" x="-10%" y="-10%" width="120%" height="120%" filterUnits="userSpaceOnUse" primitiveUnits="userSpaceOnUse"><feComponentTransfer color-interpolation-filters="sRGB"><feFuncR type="discrete" tableValues="0 0"/><feFuncG type="discrete" tableValues="0 0"/><feFuncB type="discrete" tableValues="0 0"/><feFuncA type="linear" slope="0.4" intercept="0"/></feComponentTransfer><feGaussianBlur stdDeviation="6.11111 6.11111"/></filter><filter id="fx4" x="-10%" y="-10%" width="120%" height="120%" filterUnits="userSpaceOnUse" primitiveUnits="userSpaceOnUse"><feComponentTransfer color-interpolation-filters="sRGB"><feFuncR type="discrete" tableValues="0 0"/><feFuncG type="discrete" tableValues="0 0"/><feFuncB type="discrete" tableValues="0 0"/><feFuncA type="linear" slope="0.4" intercept="0"/></feComponentTransfer><feGaussianBlur stdDeviation="6.11111 6.11111"/></filter><filter id="fx5" x="-10%" y="-10%" width="120%" height="120%" filterUnits="userSpaceOnUse" primitiveUnits="userSpaceOnUse"><feComponentTransfer color-interpolation-filters="sRGB"><feFuncR type="discrete" tableValues="0 0"/><feFuncG type="discrete" tableValues="0 0"/><feFuncB type="discrete" tableValues="0 0"/><feFuncA type="linear" slope="0.4" intercept="0"/></feComponentTransfer><feGaussianBlur stdDeviation="6.11111 6.11111"/></filter><filter id="fx6" x="-10%" y="-10%" width="120%" height="120%" filterUnits="userSpaceOnUse" primitiveUnits="userSpaceOnUse"><feComponentTransfer color-interpolation-filters="sRGB"><feFuncR type="discrete" tableValues="0 0"/><feFuncG type="discrete" tableValues="0 0"/><feFuncB type="discrete" tableValues="0 0"/><feFuncA type="linear" slope="0.4" intercept="0"/></feComponentTransfer><feGaussianBlur stdDeviation="6.11111 6.11111"/></filter><filter id="fx7" x="-10%" y="-10%" width="120%" height="120%" filterUnits="userSpaceOnUse" primitiveUnits="userSpaceOnUse"><feComponentTransfer color-interpolation-filters="sRGB"><feFuncR type="discrete" tableValues="0 0"/><feFuncG type="discrete" tableValues="0 0"/><feFuncB type="discrete" tableValues="0 0"/><feFuncA type="linear" slope="0.4" intercept="0"/></feComponentTransfer><feGaussianBlur stdDeviation="6.11111 6.11111"/></filter><filter id="fx8" x="-10%" y="-10%" width="120%" height="120%" filterUnits="userSpaceOnUse" primitiveUnits="userSpaceOnUse"><feComponentTransfer color-interpolation-filters="sRGB"><feFuncR type="discrete" tableValues="0 0"/><feFuncG type="discrete" tableValues="0 0"/><feFuncB type="discrete" tableValues="0 0"/><feFuncA type="linear" slope="0.4" intercept="0"/></feComponentTransfer><feGaussianBlur stdDeviation="6.11111 6.11111"/></filter><filter id="fx9" x="-10%" y="-10%" width="120%" height="120%" filterUnits="userSpaceOnUse" primitiveUnits="userSpaceOnUse"><feComponentTransfer color-interpolation-filters="sRGB"><feFuncR type="discrete" tableValues="0 0"/><feFuncG type="discrete" tableValues="0 0"/><feFuncB type="discrete" tableValues="0 0"/><feFuncA type="linear" slope="0.4" intercept="0"/></feComponentTransfer><feGaussianBlur stdDeviation="6.11111 6.11111"/></filter><filter id="fx10" x="-10%" y="-10%" width="120%" height="120%" filterUnits="userSpaceOnUse" primitiveUnits="userSpaceOnUse"><feComponentTransfer color-interpolation-filters="sRGB"><feFuncR type="discrete" tableValues="0 0"/><feFuncG type="discrete" tableValues="0 0"/><feFuncB type="discrete" tableValues="0 0"/><feFuncA type="linear" slope="0.4" intercept="0"/></feComponentTransfer><feGaussianBlur stdDeviation="6.11111 6.11111"/></filter><filter id="fx11" x="-10%" y="-10%" width="120%" height="120%" filterUnits="userSpaceOnUse" primitiveUnits="userSpaceOnUse"><feComponentTransfer color-interpolation-filters="sRGB"><feFuncR type="discrete" tableValues="0 0"/><feFuncG type="discrete" tableValues="0 0"/><feFuncB type="discrete" tableValues="0 0"/><feFuncA type="linear" slope="0.4" intercept="0"/></feComponentTransfer><feGaussianBlur stdDeviation="6.11111 6.11111"/></filter><clipPath id="clip12"><rect x="616" y="836" width="3194" height="878"/></clipPath><clipPath id="clip13"><path d="M1111.83 1093.5C1087.9 1093.5 1068.5 1112.9 1068.5 1136.83L1068.5 1310.17C1068.5 1334.1 1087.9 1353.5 1111.83 1353.5L1467.17 1353.5C1491.1 1353.5 1510.5 1334.1 1510.5 1310.17L1510.5 1136.83C1510.5 1112.9 1491.1 1093.5 1467.17 1093.5ZM616 836 3810 836 3810 1714 616 1714Z" fill-rule="evenodd" clip-rule="evenodd"/></clipPath><clipPath id="clip14"><rect x="39" y="35" width="344" height="176"/></clipPath><clipPath id="clip15"><path d="M1998.83 1093.5C1974.9 1093.5 1955.5 1112.9 1955.5 1136.83L1955.5 1310.17C1955.5 1334.1 1974.9 1353.5 1998.83 1353.5L2354.17 1353.5C2378.1 1353.5 2397.5 1334.1 2397.5 1310.17L2397.5 1136.83C2397.5 1112.9 2378.1 1093.5 2354.17 1093.5ZM616 836 3810 836 3810 1714 616 1714Z" fill-rule="evenodd" clip-rule="evenodd"/></clipPath><clipPath id="clip16"><rect x="39" y="35" width="344" height="176"/></clipPath><clipPath id="clip17"><path d="M2889.83 1093.5C2865.9 1093.5 2846.5 1112.9 2846.5 1136.83L2846.5 1310.17C2846.5 1334.1 2865.9 1353.5 2889.83 1353.5L3244.17 1353.5C3268.1 1353.5 3287.5 1334.1 3287.5 1310.17L3287.5 1136.83C3287.5 1112.9 3268.1 1093.5 3244.17 1093.5ZM616 836 3810 836 3810 1714 616 1714Z" fill-rule="evenodd" clip-rule="evenodd"/></clipPath><clipPath id="clip18"><rect x="39" y="35" width="402" height="165"/></clipPath><clipPath id="clip19"><rect x="-3" y="22" width="489" height="89"/></clipPath><clipPath id="clip20"><rect x="-3" y="22" width="489" height="89"/></clipPath><clipPath id="clip21"><rect x="-3" y="22" width="489" height="89"/></clipPath><clipPath id="clip22"><rect x="-3" y="22" width="489" height="89"/></clipPath><clipPath id="clip23"><rect x="22" y="42" width="89" height="200"/></clipPath><clipPath id="clip24"><rect x="22" y="42" width="89" height="200"/></clipPath></defs><g clip-path="url(#clip12)" transform="translate(-616 -836)"><g clip-path="url(#clip13)"><g filter="url(#fx0)" transform="translate(1055 1080)"><g><path d="M23.2225 66.5569C23.2225 42.6241 42.6239 23.2227 66.5568 23.2227L421.888 23.2227C445.821 23.2227 465.223 42.6241 465.223 66.5569L465.223 239.888C465.223 263.821 445.821 283.223 421.888 283.223L66.5568 283.223C42.6239 283.223 23.2225 263.821 23.2225 239.888Z" stroke="#042433" stroke-width="7" stroke-miterlimit="8" fill="#BFBFBF" fill-rule="evenodd"/></g></g><g clip-path="url(#clip14)" filter="url(#fx1)" transform="translate(1089 1116)"><g><path d="M5.5 0 5.5-42.0625 19.6562-42.0625C24.0521-42.0625 27.8021-41.2344 30.9062-39.5781 34.0104-37.9219 36.375-35.5208 38-32.375 39.625-29.2292 40.4375-25.4479 40.4375-21.0312 40.4375-16.5937 39.6198-12.8021 37.9844-9.65625 36.349-6.51042 33.9792-4.11458 30.875-2.46875 27.7708-0.822917 24.0312 0 19.6562 0ZM11.125-4.71875 18.4062-4.71875C22.0937-4.71875 25.1354-5.30729 27.5312-6.48437 29.9271-7.66146 31.7135-9.46354 32.8906-11.8906 34.0677-14.3177 34.6562-17.375 34.6562-21.0625 34.6562-24.7292 34.0573-27.7656 32.8594-30.1719 31.6615-32.5781 29.8594-34.375 27.4531-35.5625 25.0469-36.75 22.0312-37.3437 18.4062-37.3437L11.125-37.3437ZM56.9208 0.5625C55.1708 0.5625 53.5719 0.229167 52.124-0.4375 50.676-1.10417 49.5198-2.08854 48.6552-3.39062 47.7906-4.69271 47.3583-6.30208 47.3583-8.21875 47.3583-10.9479 48.2125-13.0208 49.9208-14.4375 51.6292-15.8542 54.0458-16.8177 57.1708-17.3281 60.2958-17.8385 63.9521-18.1146 68.1396-18.1562L68.1396-20.2812C68.1396-22.8854 67.4937-24.6719 66.2021-25.6406 64.9104-26.6094 63.275-27.0937 61.2958-27.0937 59.1917-27.0937 57.4208-26.5625 55.9833-25.5 54.5458-24.4375 53.8271-22.7604 53.8271-20.4687L48.7646-20.4687C48.7646-22.9687 49.301-24.9896 50.374-26.5312 51.4469-28.0729 52.926-29.1979 54.8115-29.9062 56.6969-30.6146 58.8583-30.9687 61.2958-30.9687 62.8583-30.9687 64.3531-30.8229 65.7802-30.5312 67.2073-30.2396 68.4885-29.7083 69.624-28.9375 70.7594-28.1667 71.6604-27.0885 72.3271-25.7031 72.9937-24.3177 73.3271-22.5312 73.3271-20.3437L73.3271 0 68.4521 0 68.2333-4.625C66.8375-3.0625 65.2177-1.80729 63.374-0.859375 61.5302 0.0885416 59.3792 0.5625 56.9208 0.5625ZM58.2958-3.4375C60.3792-3.4375 62.2542-3.92708 63.9208-4.90625 65.5875-5.88542 66.9833-7.125 68.1083-8.625L68.1083-14.8125C62.5667-14.75 58.5927-14.2292 56.1865-13.25 53.7802-12.2708 52.5771-10.6667 52.5771-8.4375 52.5771-6.91667 53.0615-5.70312 54.0302-4.79687 54.999-3.89062 56.4208-3.4375 58.2958-3.4375ZM93.0354 0C90.5771 0 88.6917-0.390625 87.3792-1.17187 86.0667-1.95312 85.1656-3.07812 84.676-4.54687 84.1865-6.01562 83.9417-7.78125 83.9417-9.84375L83.9417-26.2187 78.8479-26.2187 78.8479-30.4375 83.9417-30.4375 83.9417-37.4062 89.1292-37.4062 89.1292-30.4375 96.6292-30.4375 96.6292-26.2187 89.1292-26.2187 89.1292-10.0937C89.1292-8.19792 89.374-6.74479 89.8635-5.73437 90.3531-4.72396 91.525-4.21875 93.3792-4.21875L96.6917-4.21875 96.6917 0ZM111.096 0.5625C109.346 0.5625 107.747 0.229167 106.299-0.4375 104.851-1.10417 103.695-2.08854 102.83-3.39062 101.966-4.69271 101.533-6.30208 101.533-8.21875 101.533-10.9479 102.387-13.0208 104.096-14.4375 105.804-15.8542 108.221-16.8177 111.346-17.3281 114.471-17.8385 118.127-18.1146 122.315-18.1562L122.315-20.2812C122.315-22.8854 121.669-24.6719 120.377-25.6406 119.085-26.6094 117.45-27.0937 115.471-27.0937 113.367-27.0937 111.596-26.5625 110.158-25.5 108.721-24.4375 108.002-22.7604 108.002-20.4687L102.94-20.4687C102.94-22.9687 103.476-24.9896 104.549-26.5312 105.622-28.0729 107.101-29.1979 108.986-29.9062 110.872-30.6146 113.033-30.9687 115.471-30.9687 117.033-30.9687 118.528-30.8229 119.955-30.5312 121.382-30.2396 122.664-29.7083 123.799-28.9375 124.934-28.1667 125.835-27.0885 126.502-25.7031 127.169-24.3177 127.502-22.5312 127.502-20.3437L127.502 0 122.627 0 122.408-4.625C121.012-3.0625 119.393-1.80729 117.549-0.859375 115.705 0.0885416 113.554 0.5625 111.096 0.5625ZM112.471-3.4375C114.554-3.4375 116.429-3.92708 118.096-4.90625 119.762-5.88542 121.158-7.125 122.283-8.625L122.283-14.8125C116.742-14.75 112.768-14.2292 110.361-13.25 107.955-12.2708 106.752-10.6667 106.752-8.4375 106.752-6.91667 107.236-5.70312 108.205-4.79687 109.174-3.89062 110.596-3.4375 112.471-3.4375Z" transform="matrix(1 0 0 1 143.356 99)"/><path d="M15.8125 0.5625C14.1042 0.5625 12.4844 0.375 10.9531 0 9.42187-0.375 8.07292-0.96875 6.90625-1.78125 5.73958-2.59375 4.82812-3.66146 4.17187-4.98437 3.51562-6.30729 3.1875-7.90625 3.1875-9.78125L8.21875-9.78125C8.21875-7.40625 8.95312-5.73437 10.4219-4.76562 11.8906-3.79687 13.7292-3.3125 15.9375-3.3125 17.9167-3.3125 19.5469-3.69271 20.8281-4.45312 22.1094-5.21354 22.75-6.46875 22.75-8.21875 22.75-9.71875 22.1719-10.8333 21.0156-11.5625 19.8594-12.2917 17.8229-13 14.9062-13.6875 12.5312-14.25 10.5312-14.901 8.90625-15.6406 7.28125-16.3802 6.0625-17.3177 5.25-18.4531 4.4375-19.5885 4.03125-21.0208 4.03125-22.75 4.03125-24.1042 4.31771-25.2969 4.89062-26.3281 5.46354-27.3594 6.26562-28.2187 7.29687-28.9062 8.32812-29.5937 9.54167-30.1094 10.9375-30.4531 12.3333-30.7969 13.8437-30.9687 15.4687-30.9687 17.0729-30.9687 18.5781-30.7812 19.9844-30.4062 21.3906-30.0312 22.6302-29.4479 23.7031-28.6562 24.776-27.8646 25.625-26.8437 26.25-25.5937 26.875-24.3437 27.1875-22.8437 27.1875-21.0937L22.125-21.0937C22.125-23.2604 21.4792-24.7917 20.1875-25.6875 18.8958-26.5833 17.3229-27.0312 15.4687-27.0312 13.5937-27.0312 12.0729-26.6979 10.9062-26.0312 9.73958-25.3646 9.15625-24.3229 9.15625-22.9062 9.15625-22.0937 9.41667-21.4062 9.9375-20.8437 10.4583-20.2812 11.3333-19.776 12.5625-19.3281 13.7917-18.8802 15.4479-18.4062 17.5312-17.9062 19.8021-17.3646 21.7083-16.7187 23.25-15.9687 24.7917-15.2187 25.9531-14.2552 26.7344-13.0781 27.5156-11.901 27.9062-10.3958 27.9062-8.5625 27.9062-6.97917 27.599-5.60937 26.9844-4.45312 26.3698-3.29687 25.5156-2.34896 24.4219-1.60937 23.3281-0.869792 22.0469-0.322917 20.5781 0.03125 19.1094 0.385417 17.5208 0.5625 15.8125 0.5625ZM45.7583 0C43.3 0 41.4146-0.390625 40.1021-1.17187 38.7896-1.95312 37.8885-3.07812 37.399-4.54687 36.9094-6.01562 36.6646-7.78125 36.6646-9.84375L36.6646-26.2187 31.5708-26.2187 31.5708-30.4375 36.6646-30.4375 36.6646-37.4062 41.8521-37.4062 41.8521-30.4375 49.3521-30.4375 49.3521-26.2187 41.8521-26.2187 41.8521-10.0937C41.8521-8.19792 42.0969-6.74479 42.5865-5.73437 43.076-4.72396 44.2479-4.21875 46.1021-4.21875L49.4146-4.21875 49.4146 0ZM56.2271 0 56.2271-30.4375 61.1333-30.4375 61.3208-25.25C62.175-26.8333 63.3625-28.1562 64.8833-29.2187 66.4042-30.2812 68.3833-30.8125 70.8208-30.8125L71.4458-30.8125 71.4458-26.0312 70.7271-26.0312C69.2062-26.0312 67.8729-25.8333 66.7271-25.4375 65.5812-25.0417 64.5812-24.4948 63.7271-23.7969 62.8729-23.099 62.1125-22.2917 61.4458-21.375L61.4458 0ZM87.0812 0.46875C83.5604 0.46875 81.0187-0.510417 79.4562-2.46875 77.8937-4.42708 77.1125-7.125 77.1125-10.5625L77.1125-30.4375 82.3625-30.4375 82.3625-11.2812C82.3625-9.90625 82.5187-8.67708 82.8312-7.59375 83.1437-6.51042 83.7375-5.66667 84.6125-5.0625 85.4875-4.45833 86.7479-4.15625 88.3937-4.15625 90.6854-4.15625 92.6021-4.63021 94.1437-5.57812 95.6854-6.52604 96.925-7.625 97.8625-8.875L97.8625-30.4375 103.112-30.4375 103.112 0 98.0812 0 97.925-4.6875C96.9458-3.47917 95.5656-2.31771 93.7844-1.20312 92.0031-0.0885417 89.7687 0.46875 87.0812 0.46875ZM125.894 0.53125C123.144 0.53125 120.706-0.046875 118.581-1.20312 116.456-2.35937 114.795-4.09896 113.597-6.42187 112.399-8.74479 111.8-11.6562 111.8-15.1562 111.8-18.6562 112.389-21.5781 113.566-23.9219 114.743-26.2656 116.389-28.026 118.503-29.2031 120.618-30.3802 123.081-30.9687 125.894-30.9687 128.248-30.9687 130.368-30.5833 132.253-29.8125 134.139-29.0417 135.644-27.8802 136.769-26.3281 137.894-24.776 138.487-22.8125 138.55-20.4375L133.394-20.4375C133.269-22.3958 132.56-23.9375 131.269-25.0625 129.977-26.1875 128.217-26.75 125.987-26.75 123.029-26.75 120.821-25.7344 119.362-23.7031 117.904-21.6719 117.175-18.8229 117.175-15.1562 117.175-12.7187 117.498-10.651 118.144-8.95312 118.79-7.25521 119.769-5.95312 121.081-5.04687 122.394-4.14062 124.029-3.6875 125.987-3.6875 128.217-3.6875 130.029-4.26562 131.425-5.42187 132.821-6.57812 133.55-8.27083 133.612-10.5L138.769-10.5C138.706-8.04167 138.107-5.99479 136.972-4.35937 135.836-2.72396 134.305-1.5 132.378-0.6875 130.451 0.125 128.29 0.53125 125.894 0.53125ZM157.477 0C155.019 0 153.133-0.390625 151.821-1.17187 150.508-1.95312 149.607-3.07812 149.118-4.54687 148.628-6.01562 148.383-7.78125 148.383-9.84375L148.383-26.2187 143.29-26.2187 143.29-30.4375 148.383-30.4375 148.383-37.4062 153.571-37.4062 153.571-30.4375 161.071-30.4375 161.071-26.2187 153.571-26.2187 153.571-10.0937C153.571-8.19792 153.816-6.74479 154.305-5.73437 154.795-4.72396 155.967-4.21875 157.821-4.21875L161.133-4.21875 161.133 0ZM177.602 0.46875C174.081 0.46875 171.54-0.510417 169.977-2.46875 168.415-4.42708 167.633-7.125 167.633-10.5625L167.633-30.4375 172.883-30.4375 172.883-11.2812C172.883-9.90625 173.04-8.67708 173.352-7.59375 173.665-6.51042 174.258-5.66667 175.133-5.0625 176.008-4.45833 177.269-4.15625 178.915-4.15625 181.206-4.15625 183.123-4.63021 184.665-5.57812 186.206-6.52604 187.446-7.625 188.383-8.875L188.383-30.4375 193.633-30.4375 193.633 0 188.602 0 188.446-4.6875C187.467-3.47917 186.086-2.31771 184.305-1.20312 182.524-0.0885417 180.29 0.46875 177.602 0.46875ZM204.04 0 204.04-30.4375 208.946-30.4375 209.133-25.25C209.987-26.8333 211.175-28.1562 212.696-29.2187 214.217-30.2812 216.196-30.8125 218.633-30.8125L219.258-30.8125 219.258-26.0312 218.54-26.0312C217.019-26.0312 215.685-25.8333 214.54-25.4375 213.394-25.0417 212.394-24.4948 211.54-23.7969 210.685-23.099 209.925-22.2917 209.258-21.375L209.258 0ZM225.237 0 225.237-30.4375 230.456-30.4375 230.456 0ZM227.831-36.1562C226.852-36.1562 226.066-36.4427 225.472-37.0156 224.878-37.5885 224.581-38.3125 224.581-39.1875 224.581-40.0625 224.878-40.7865 225.472-41.3594 226.066-41.9323 226.852-42.2187 227.831-42.2187 228.81-42.2187 229.602-41.9323 230.206-41.3594 230.81-40.7865 231.112-40.0625 231.112-39.1875 231.112-38.3125 230.81-37.5885 230.206-37.0156 229.602-36.4427 228.81-36.1562 227.831-36.1562ZM240.706 0 240.706-30.4375 245.706-30.4375 245.894-25.75C246.831-26.9792 248.175-28.1406 249.925-29.2344 251.675-30.3281 253.915-30.875 256.644-30.875 259.977-30.875 262.404-29.8906 263.925-27.9219 265.446-25.9531 266.206-23.1875 266.206-19.625L266.206 0 260.987 0 260.987-18.875C260.987-20.3542 260.831-21.6667 260.519-22.8125 260.206-23.9583 259.649-24.8594 258.847-25.5156 258.045-26.1719 256.883-26.5 255.362-26.5 253.092-26.5 251.185-25.9844 249.644-24.9531 248.102-23.9219 246.862-22.7917 245.925-21.5625L245.925 0ZM286.821 11.7812C283.529 11.7812 280.899 11.4062 278.93 10.6562 276.961 9.90625 275.54 8.90625 274.665 7.65625 273.79 6.40625 273.352 5.05208 273.352 3.59375 273.352 1.82292 274.107 0.25 275.618-1.125 277.128-2.5 279.456-3.46875 282.602-4.03125L283.602-5.75 287.446-5.75C292.446-5.75 296.019-5.08854 298.165-3.76562 300.31-2.44271 301.383-0.395833 301.383 2.375 301.383 5.125 300.159 7.38021 297.711 9.14062 295.264 10.901 291.633 11.7812 286.821 11.7812ZM286.696 8C290.237 8 292.732 7.5 294.18 6.5 295.628 5.5 296.352 4.26042 296.352 2.78125 296.352 1.90625 296.107 1.15104 295.618 0.515625 295.128-0.119792 294.222-0.614583 292.899-0.96875 291.576-1.32292 289.696-1.5 287.258-1.5L282.633-1.5C281.217-1.14583 280.123-0.541667 279.352 0.3125 278.581 1.16667 278.196 2.15625 278.196 3.28125 278.196 4.53125 278.852 5.63021 280.165 6.57812 281.477 7.52604 283.654 8 286.696 8ZM282.54-1.78125C280.56-1.98958 279.003-2.40104 277.868-3.01562 276.732-3.63021 275.925-4.31771 275.446-5.07812 274.967-5.83854 274.727-6.57292 274.727-7.28125 274.727-8.30208 275.139-9.26562 275.961-10.1719 276.784-11.0781 278.133-11.8229 280.008-12.4062L282.602-10.7812C281.498-10.4687 280.623-10.0677 279.977-9.57812 279.331-9.08854 279.008-8.54167 279.008-7.9375 279.008-7.52083 279.201-7.15104 279.586-6.82812 279.972-6.50521 280.628-6.24479 281.555-6.04687 282.482-5.84896 283.769-5.75 285.415-5.75ZM286.446-9.84375C283.946-9.84375 281.826-10.3281 280.086-11.2969 278.347-12.2656 277.029-13.5365 276.133-15.1094 275.237-16.6823 274.79-18.3854 274.79-20.2187 274.79-22.1562 275.243-23.9167 276.149-25.5 277.055-27.0833 278.389-28.3437 280.149-29.2812 281.909-30.2187 284.06-30.6875 286.602-30.6875 289.206-30.6875 291.373-30.2187 293.102-29.2812 294.831-28.3437 296.123-27.0833 296.977-25.5 297.831-23.9167 298.258-22.1562 298.258-20.2187 298.258-18.3437 297.826-16.6198 296.961-15.0469 296.097-13.474 294.79-12.2135 293.04-11.2656 291.29-10.3177 289.092-9.84375 286.446-9.84375ZM286.415-13.4062C288.415-13.4062 290.066-13.9792 291.368-15.125 292.67-16.2708 293.321-17.9687 293.321-20.2187 293.321-22.5729 292.706-24.3177 291.477-25.4531 290.248-26.5885 288.623-27.1562 286.602-27.1562 284.623-27.1562 282.982-26.5729 281.68-25.4062 280.378-24.2396 279.727-22.5208 279.727-20.25 279.727-17.9583 280.399-16.2448 281.743-15.1094 283.086-13.974 284.644-13.4062 286.415-13.4062ZM294.383-27.3437 292.258-29.3125C293.154-31.2708 294.326-32.6042 295.774-33.3125 297.222-34.0208 299.092-34.4062 301.383-34.4687L301.383-30.0625C299.925-30.0625 298.586-29.9115 297.368-29.6094 296.149-29.3073 295.154-28.5521 294.383-27.3437Z" transform="matrix(1 0 0 1 58.5875 176)"/></g></g></g><path d="M1068.5 1136.83C1068.5 1112.9 1087.9 1093.5 1111.83 1093.5L1467.17 1093.5C1491.1 1093.5 1510.5 1112.9 1510.5 1136.83L1510.5 1310.17C1510.5 1334.1 1491.1 1353.5 1467.17 1353.5L1111.83 1353.5C1087.9 1353.5 1068.5 1334.1 1068.5 1310.17Z" stroke="#042433" stroke-width="6.875" stroke-miterlimit="8" fill="#BFBFBF" fill-rule="evenodd"/><text font-family="Aptos,Aptos_MSFontService,sans-serif" font-weight="400" font-size="64" transform="matrix(1 0 0 1 1222.63 1205)">Data </text><text font-family="Aptos,Aptos_MSFontService,sans-serif" font-weight="400" font-size="64" transform="matrix(1 0 0 1 1137.86 1282)">structuring</text><g clip-path="url(#clip15)"><g filter="url(#fx2)" transform="translate(1942 1080)"><g><path d="M23.2228 66.5569C23.2228 42.6241 42.6242 23.2227 66.5571 23.2227L421.889 23.2227C445.821 23.2227 465.223 42.6241 465.223 66.5569L465.223 239.888C465.223 263.821 445.821 283.223 421.889 283.223L66.5571 283.223C42.6242 283.223 23.2228 263.821 23.2228 239.888Z" stroke="#042433" stroke-width="7" stroke-miterlimit="8" fill="#BFBFBF" fill-rule="evenodd"/></g></g><g clip-path="url(#clip16)" filter="url(#fx3)" transform="translate(1976 1116)"><g><path d="M5.5 0 5.5-42.0625 19.6562-42.0625C24.0521-42.0625 27.8021-41.2344 30.9062-39.5781 34.0104-37.9219 36.375-35.5208 38-32.375 39.625-29.2292 40.4375-25.4479 40.4375-21.0312 40.4375-16.5937 39.6198-12.8021 37.9844-9.65625 36.349-6.51042 33.9792-4.11458 30.875-2.46875 27.7708-0.822917 24.0312 0 19.6562 0ZM11.125-4.71875 18.4062-4.71875C22.0937-4.71875 25.1354-5.30729 27.5312-6.48437 29.9271-7.66146 31.7135-9.46354 32.8906-11.8906 34.0677-14.3177 34.6562-17.375 34.6562-21.0625 34.6562-24.7292 34.0573-27.7656 32.8594-30.1719 31.6615-32.5781 29.8594-34.375 27.4531-35.5625 25.0469-36.75 22.0312-37.3437 18.4062-37.3437L11.125-37.3437ZM56.9208 0.5625C55.1708 0.5625 53.5719 0.229167 52.124-0.4375 50.676-1.10417 49.5198-2.08854 48.6552-3.39062 47.7906-4.69271 47.3583-6.30208 47.3583-8.21875 47.3583-10.9479 48.2125-13.0208 49.9208-14.4375 51.6292-15.8542 54.0458-16.8177 57.1708-17.3281 60.2958-17.8385 63.9521-18.1146 68.1396-18.1562L68.1396-20.2812C68.1396-22.8854 67.4937-24.6719 66.2021-25.6406 64.9104-26.6094 63.275-27.0937 61.2958-27.0937 59.1917-27.0937 57.4208-26.5625 55.9833-25.5 54.5458-24.4375 53.8271-22.7604 53.8271-20.4687L48.7646-20.4687C48.7646-22.9687 49.301-24.9896 50.374-26.5312 51.4469-28.0729 52.926-29.1979 54.8115-29.9062 56.6969-30.6146 58.8583-30.9687 61.2958-30.9687 62.8583-30.9687 64.3531-30.8229 65.7802-30.5312 67.2073-30.2396 68.4885-29.7083 69.624-28.9375 70.7594-28.1667 71.6604-27.0885 72.3271-25.7031 72.9937-24.3177 73.3271-22.5312 73.3271-20.3437L73.3271 0 68.4521 0 68.2333-4.625C66.8375-3.0625 65.2177-1.80729 63.374-0.859375 61.5302 0.0885416 59.3792 0.5625 56.9208 0.5625ZM58.2958-3.4375C60.3792-3.4375 62.2542-3.92708 63.9208-4.90625 65.5875-5.88542 66.9833-7.125 68.1083-8.625L68.1083-14.8125C62.5667-14.75 58.5927-14.2292 56.1865-13.25 53.7802-12.2708 52.5771-10.6667 52.5771-8.4375 52.5771-6.91667 53.0615-5.70312 54.0302-4.79687 54.999-3.89062 56.4208-3.4375 58.2958-3.4375ZM93.0354 0C90.5771 0 88.6917-0.390625 87.3792-1.17187 86.0667-1.95312 85.1656-3.07812 84.676-4.54687 84.1865-6.01562 83.9417-7.78125 83.9417-9.84375L83.9417-26.2187 78.8479-26.2187 78.8479-30.4375 83.9417-30.4375 83.9417-37.4062 89.1292-37.4062 89.1292-30.4375 96.6292-30.4375 96.6292-26.2187 89.1292-26.2187 89.1292-10.0937C89.1292-8.19792 89.374-6.74479 89.8635-5.73437 90.3531-4.72396 91.525-4.21875 93.3792-4.21875L96.6917-4.21875 96.6917 0ZM111.096 0.5625C109.346 0.5625 107.747 0.229167 106.299-0.4375 104.851-1.10417 103.695-2.08854 102.83-3.39062 101.966-4.69271 101.533-6.30208 101.533-8.21875 101.533-10.9479 102.387-13.0208 104.096-14.4375 105.804-15.8542 108.221-16.8177 111.346-17.3281 114.471-17.8385 118.127-18.1146 122.315-18.1562L122.315-20.2812C122.315-22.8854 121.669-24.6719 120.377-25.6406 119.085-26.6094 117.45-27.0937 115.471-27.0937 113.367-27.0937 111.596-26.5625 110.158-25.5 108.721-24.4375 108.002-22.7604 108.002-20.4687L102.94-20.4687C102.94-22.9687 103.476-24.9896 104.549-26.5312 105.622-28.0729 107.101-29.1979 108.986-29.9062 110.872-30.6146 113.033-30.9687 115.471-30.9687 117.033-30.9687 118.528-30.8229 119.955-30.5312 121.382-30.2396 122.664-29.7083 123.799-28.9375 124.934-28.1667 125.835-27.0885 126.502-25.7031 127.169-24.3177 127.502-22.5312 127.502-20.3437L127.502 0 122.627 0 122.408-4.625C121.012-3.0625 119.393-1.80729 117.549-0.859375 115.705 0.0885416 113.554 0.5625 111.096 0.5625ZM112.471-3.4375C114.554-3.4375 116.429-3.92708 118.096-4.90625 119.762-5.88542 121.158-7.125 122.283-8.625L122.283-14.8125C116.742-14.75 112.768-14.2292 110.361-13.25 107.955-12.2708 106.752-10.6667 106.752-8.4375 106.752-6.91667 107.236-5.70312 108.205-4.79687 109.174-3.89062 110.596-3.4375 112.471-3.4375ZM150.804 11.1875 150.804-30.4375 155.867-30.4375 156.023-25.4687C157.106-27.0937 158.507-28.4167 160.226-29.4375 161.945-30.4583 163.94-30.9687 166.21-30.9687 168.71-30.9687 170.867-30.3802 172.679-29.2031 174.492-28.026 175.893-26.2708 176.882-23.9375 177.872-21.6042 178.367-18.6979 178.367-15.2187 178.367-11.7812 177.841-8.89062 176.789-6.54687 175.736-4.20312 174.252-2.43229 172.335-1.23437 170.419-0.0364584 168.169 0.5625 165.585 0.5625 163.419 0.5625 161.523 0.130208 159.898-0.734375 158.273-1.59896 156.971-2.78125 155.992-4.28125L155.992 11.1875ZM164.617-3.71875C167.387-3.71875 169.476-4.71354 170.882-6.70312 172.289-8.69271 172.992-11.5312 172.992-15.2187 172.992-18.9479 172.335-21.8021 171.023-23.7812 169.71-25.7604 167.783-26.75 165.242-26.75 163.012-26.75 161.132-26.1562 159.601-24.9687 158.07-23.7812 156.877-22.3958 156.023-20.8125L156.023-9.0625C156.856-7.47917 157.981-6.19271 159.398-5.20312 160.815-4.21354 162.554-3.71875 164.617-3.71875ZM186.898 0 186.898-30.4375 191.804-30.4375 191.992-25.25C192.846-26.8333 194.033-28.1562 195.554-29.2187 197.075-30.2812 199.054-30.8125 201.492-30.8125L202.117-30.8125 202.117-26.0312 201.398-26.0312C199.877-26.0312 198.544-25.8333 197.398-25.4375 196.252-25.0417 195.252-24.4948 194.398-23.7969 193.544-23.099 192.783-22.2917 192.117-21.375L192.117 0ZM219.881 0.5625C216.569 0.5625 213.855-0.130208 211.741-1.51562 209.626-2.90104 208.058-4.78646 207.037-7.17187 206.017-9.55729 205.506-12.2396 205.506-15.2187 205.506-18.3229 206.001-21.0573 206.991-23.4219 207.98-25.7865 209.491-27.6354 211.522-28.9687 213.553-30.3021 216.131-30.9687 219.256-30.9687 223.402-30.9687 226.652-29.7187 229.006-27.2187 231.36-24.7187 232.537-21.125 232.537-16.4375 232.537-16.125 232.527-15.7552 232.506-15.3281 232.485-14.901 232.454-14.5937 232.412-14.4062L210.725-14.4062C210.746-12.4271 211.064-10.6094 211.678-8.95312 212.293-7.29687 213.267-5.96875 214.6-4.96875 215.933-3.96875 217.694-3.46875 219.881-3.46875 222.215-3.46875 224.037-4.01562 225.35-5.10937 226.662-6.20312 227.35-7.78125 227.412-9.84375L232.569-9.84375C232.506-7.69792 231.954-5.84896 230.912-4.29687 229.871-2.74479 228.412-1.54687 226.537-0.703125 224.662 0.140625 222.444 0.5625 219.881 0.5625ZM210.756-18.2187 227.381-18.2187C227.319-21.0521 226.579-23.2187 225.162-24.7187 223.746-26.2187 221.777-26.9687 219.256-26.9687 216.715-26.9687 214.72-26.224 213.272-24.7344 211.824-23.2448 210.985-21.0729 210.756-18.2187Z" transform="matrix(1 0 0 1 80.855 99)"/><path d="M3.09375-13.2187 3.09375-17.8437 18.6875-17.8437 18.6875-13.2187Z" transform="matrix(1 0 0 1 316.851 99)"/><path d="M5.03125 11.1875 5.03125-30.4375 10.0937-30.4375 10.25-25.4687C11.3333-27.0937 12.7344-28.4167 14.4531-29.4375 16.1719-30.4583 18.1667-30.9687 20.4375-30.9687 22.9375-30.9687 25.0937-30.3802 26.9062-29.2031 28.7187-28.026 30.1198-26.2708 31.1094-23.9375 32.099-21.6042 32.5937-18.6979 32.5937-15.2187 32.5937-11.7812 32.0677-8.89062 31.0156-6.54687 29.9635-4.20312 28.4792-2.43229 26.5625-1.23437 24.6458-0.0364584 22.3958 0.5625 19.8125 0.5625 17.6458 0.5625 15.75 0.130208 14.125-0.734375 12.5-1.59896 11.1979-2.78125 10.2187-4.28125L10.2187 11.1875ZM18.8437-3.71875C21.6146-3.71875 23.7031-4.71354 25.1094-6.70312 26.5156-8.69271 27.2187-11.5312 27.2187-15.2187 27.2187-18.9479 26.5625-21.8021 25.25-23.7812 23.9375-25.7604 22.0104-26.75 19.4687-26.75 17.2396-26.75 15.3594-26.1562 13.8281-24.9687 12.2969-23.7812 11.1042-22.3958 10.25-20.8125L10.25-9.0625C11.0833-7.47917 12.2083-6.19271 13.625-5.20312 15.0417-4.21354 16.7812-3.71875 18.8437-3.71875ZM41.125 0 41.125-30.4375 46.0312-30.4375 46.2187-25.25C47.0729-26.8333 48.2604-28.1562 49.7812-29.2187 51.3021-30.2812 53.2812-30.8125 55.7187-30.8125L56.3437-30.8125 56.3437-26.0312 55.625-26.0312C54.1042-26.0312 52.7708-25.8333 51.625-25.4375 50.4792-25.0417 49.4792-24.4948 48.625-23.7969 47.7708-23.099 47.0104-22.2917 46.3437-21.375L46.3437 0ZM73.9208 0.5C70.9417 0.5 68.3896-0.130208 66.2646-1.39062 64.1396-2.65104 62.5198-4.45312 61.4052-6.79687 60.2906-9.14062 59.7333-11.9271 59.7333-15.1562 59.7333-18.4687 60.2906-21.3073 61.4052-23.6719 62.5198-26.0365 64.1396-27.8542 66.2646-29.125 68.3896-30.3958 70.9417-31.0312 73.9208-31.0312 76.9625-31.0312 79.5614-30.3958 81.7177-29.125 83.8739-27.8542 85.5302-26.0365 86.6865-23.6719 87.8427-21.3073 88.4208-18.4687 88.4208-15.1562 88.4208-11.9271 87.8427-9.14062 86.6865-6.79687 85.5302-4.45312 83.8739-2.65104 81.7177-1.39062 79.5614-0.130208 76.9625 0.5 73.9208 0.5ZM73.9208-3.65625C76.1708-3.65625 77.9625-4.15104 79.2958-5.14062 80.6292-6.13021 81.5875-7.49479 82.1708-9.23437 82.7542-10.974 83.0458-12.9479 83.0458-15.1562 83.0458-17.4062 82.7542-19.4167 82.1708-21.1875 81.5875-22.9583 80.6292-24.349 79.2958-25.3594 77.9625-26.3698 76.1708-26.875 73.9208-26.875 71.7333-26.875 69.999-26.3698 68.7177-25.3594 67.4365-24.349 66.5146-22.9583 65.9521-21.1875 65.3896-19.4167 65.1083-17.4062 65.1083-15.1562 65.1083-12.9479 65.3896-10.974 65.9521-9.23437 66.5146-7.49479 67.4365-6.13021 68.7177-5.14062 69.999-4.15104 71.7333-3.65625 73.9208-3.65625ZM109.348 0.53125C106.598 0.53125 104.16-0.046875 102.035-1.20312 99.9104-2.35937 98.249-4.09896 97.051-6.42187 95.8531-8.74479 95.2542-11.6562 95.2542-15.1562 95.2542-18.6562 95.8427-21.5781 97.0198-23.9219 98.1969-26.2656 99.8427-28.026 101.957-29.2031 104.072-30.3802 106.535-30.9687 109.348-30.9687 111.702-30.9687 113.822-30.5833 115.707-29.8125 117.593-29.0417 119.098-27.8802 120.223-26.3281 121.348-24.776 121.942-22.8125 122.004-20.4375L116.848-20.4375C116.723-22.3958 116.015-23.9375 114.723-25.0625 113.431-26.1875 111.671-26.75 109.442-26.75 106.483-26.75 104.275-25.7344 102.817-23.7031 101.358-21.6719 100.629-18.8229 100.629-15.1562 100.629-12.7187 100.952-10.651 101.598-8.95312 102.244-7.25521 103.223-5.95312 104.535-5.04687 105.848-4.14062 107.483-3.6875 109.442-3.6875 111.671-3.6875 113.483-4.26562 114.879-5.42187 116.275-6.57812 117.004-8.27083 117.067-10.5L122.223-10.5C122.16-8.04167 121.561-5.99479 120.426-4.35937 119.291-2.72396 117.759-1.5 115.832-0.6875 113.905 0.125 111.744 0.53125 109.348 0.53125ZM143.431 0.5625C140.119 0.5625 137.405-0.130208 135.291-1.51562 133.176-2.90104 131.608-4.78646 130.587-7.17187 129.567-9.55729 129.056-12.2396 129.056-15.2187 129.056-18.3229 129.551-21.0573 130.541-23.4219 131.53-25.7865 133.041-27.6354 135.072-28.9687 137.103-30.3021 139.681-30.9687 142.806-30.9687 146.952-30.9687 150.202-29.7187 152.556-27.2187 154.91-24.7187 156.087-21.125 156.087-16.4375 156.087-16.125 156.077-15.7552 156.056-15.3281 156.035-14.901 156.004-14.5937 155.962-14.4062L134.275-14.4062C134.296-12.4271 134.614-10.6094 135.228-8.95312 135.843-7.29687 136.817-5.96875 138.15-4.96875 139.483-3.96875 141.244-3.46875 143.431-3.46875 145.765-3.46875 147.587-4.01562 148.9-5.10937 150.212-6.20312 150.9-7.78125 150.962-9.84375L156.119-9.84375C156.056-7.69792 155.504-5.84896 154.462-4.29687 153.421-2.74479 151.962-1.54687 150.087-0.703125 148.212 0.140625 145.994 0.5625 143.431 0.5625ZM134.306-18.2187 150.931-18.2187C150.869-21.0521 150.129-23.2187 148.712-24.7187 147.296-26.2187 145.327-26.9687 142.806-26.9687 140.265-26.9687 138.27-26.224 136.822-24.7344 135.374-23.2448 134.535-21.0729 134.306-18.2187ZM175.358 0.5625C173.65 0.5625 172.03 0.375 170.499 0 168.968-0.375 167.619-0.96875 166.452-1.78125 165.285-2.59375 164.374-3.66146 163.718-4.98437 163.061-6.30729 162.733-7.90625 162.733-9.78125L167.765-9.78125C167.765-7.40625 168.499-5.73437 169.968-4.76562 171.436-3.79687 173.275-3.3125 175.483-3.3125 177.462-3.3125 179.093-3.69271 180.374-4.45312 181.655-5.21354 182.296-6.46875 182.296-8.21875 182.296-9.71875 181.718-10.8333 180.561-11.5625 179.405-12.2917 177.369-13 174.452-13.6875 172.077-14.25 170.077-14.901 168.452-15.6406 166.827-16.3802 165.608-17.3177 164.796-18.4531 163.983-19.5885 163.577-21.0208 163.577-22.75 163.577-24.1042 163.864-25.2969 164.436-26.3281 165.009-27.3594 165.811-28.2187 166.843-28.9062 167.874-29.5937 169.087-30.1094 170.483-30.4531 171.879-30.7969 173.39-30.9687 175.015-30.9687 176.619-30.9687 178.124-30.7812 179.53-30.4062 180.936-30.0312 182.176-29.4479 183.249-28.6562 184.322-27.8646 185.171-26.8437 185.796-25.5937 186.421-24.3437 186.733-22.8437 186.733-21.0937L181.671-21.0937C181.671-23.2604 181.025-24.7917 179.733-25.6875 178.442-26.5833 176.869-27.0312 175.015-27.0312 173.14-27.0312 171.619-26.6979 170.452-26.0312 169.285-25.3646 168.702-24.3229 168.702-22.9062 168.702-22.0937 168.962-21.4062 169.483-20.8437 170.004-20.2812 170.879-19.776 172.108-19.3281 173.337-18.8802 174.994-18.4062 177.077-17.9062 179.348-17.3646 181.254-16.7187 182.796-15.9687 184.337-15.2187 185.499-14.2552 186.28-13.0781 187.061-11.901 187.452-10.3958 187.452-8.5625 187.452-6.97917 187.145-5.60937 186.53-4.45312 185.916-3.29687 185.061-2.34896 183.968-1.60937 182.874-0.869792 181.593-0.322917 180.124 0.03125 178.655 0.385417 177.067 0.5625 175.358 0.5625ZM206.296 0.5625C204.587 0.5625 202.968 0.375 201.436 0 199.905-0.375 198.556-0.96875 197.39-1.78125 196.223-2.59375 195.311-3.66146 194.655-4.98437 193.999-6.30729 193.671-7.90625 193.671-9.78125L198.702-9.78125C198.702-7.40625 199.436-5.73437 200.905-4.76562 202.374-3.79687 204.212-3.3125 206.421-3.3125 208.4-3.3125 210.03-3.69271 211.311-4.45312 212.593-5.21354 213.233-6.46875 213.233-8.21875 213.233-9.71875 212.655-10.8333 211.499-11.5625 210.343-12.2917 208.306-13 205.39-13.6875 203.015-14.25 201.015-14.901 199.39-15.6406 197.765-16.3802 196.546-17.3177 195.733-18.4531 194.921-19.5885 194.515-21.0208 194.515-22.75 194.515-24.1042 194.801-25.2969 195.374-26.3281 195.947-27.3594 196.749-28.2187 197.78-28.9062 198.811-29.5937 200.025-30.1094 201.421-30.4531 202.817-30.7969 204.327-30.9687 205.952-30.9687 207.556-30.9687 209.061-30.7812 210.468-30.4062 211.874-30.0312 213.114-29.4479 214.186-28.6562 215.259-27.8646 216.108-26.8437 216.733-25.5937 217.358-24.3437 217.671-22.8437 217.671-21.0937L212.608-21.0937C212.608-23.2604 211.962-24.7917 210.671-25.6875 209.379-26.5833 207.806-27.0312 205.952-27.0312 204.077-27.0312 202.556-26.6979 201.39-26.0312 200.223-25.3646 199.64-24.3229 199.64-22.9062 199.64-22.0937 199.9-21.4062 200.421-20.8437 200.942-20.2812 201.817-19.776 203.046-19.3281 204.275-18.8802 205.931-18.4062 208.015-17.9062 210.285-17.3646 212.192-16.7187 213.733-15.9687 215.275-15.2187 216.436-14.2552 217.218-13.0781 217.999-11.901 218.39-10.3958 218.39-8.5625 218.39-6.97917 218.082-5.60937 217.468-4.45312 216.853-3.29687 215.999-2.34896 214.905-1.60937 213.811-0.869792 212.53-0.322917 211.061 0.03125 209.593 0.385417 208.004 0.5625 206.296 0.5625ZM226.452 0 226.452-30.4375 231.671-30.4375 231.671 0ZM229.046-36.1562C228.067-36.1562 227.28-36.4427 226.686-37.0156 226.093-37.5885 225.796-38.3125 225.796-39.1875 225.796-40.0625 226.093-40.7865 226.686-41.3594 227.28-41.9323 228.067-42.2187 229.046-42.2187 230.025-42.2187 230.817-41.9323 231.421-41.3594 232.025-40.7865 232.327-40.0625 232.327-39.1875 232.327-38.3125 232.025-37.5885 231.421-37.0156 230.817-36.4427 230.025-36.1562 229.046-36.1562ZM241.921 0 241.921-30.4375 246.921-30.4375 247.108-25.75C248.046-26.9792 249.39-28.1406 251.14-29.2344 252.89-30.3281 255.129-30.875 257.858-30.875 261.192-30.875 263.619-29.8906 265.14-27.9219 266.66-25.9531 267.421-23.1875 267.421-19.625L267.421 0 262.202 0 262.202-18.875C262.202-20.3542 262.046-21.6667 261.733-22.8125 261.421-23.9583 260.864-24.8594 260.061-25.5156 259.259-26.1719 258.098-26.5 256.577-26.5 254.306-26.5 252.4-25.9844 250.858-24.9531 249.317-23.9219 248.077-22.7917 247.14-21.5625L247.14 0ZM288.035 11.7812C284.744 11.7812 282.114 11.4062 280.145 10.6562 278.176 9.90625 276.754 8.90625 275.879 7.65625 275.004 6.40625 274.567 5.05208 274.567 3.59375 274.567 1.82292 275.322 0.25 276.832-1.125 278.343-2.5 280.671-3.46875 283.817-4.03125L284.817-5.75 288.66-5.75C293.66-5.75 297.233-5.08854 299.379-3.76562 301.525-2.44271 302.598-0.395833 302.598 2.375 302.598 5.125 301.374 7.38021 298.926 9.14062 296.478 10.901 292.848 11.7812 288.035 11.7812ZM287.91 8C291.452 8 293.947 7.5 295.395 6.5 296.843 5.5 297.567 4.26042 297.567 2.78125 297.567 1.90625 297.322 1.15104 296.832 0.515625 296.343-0.119792 295.436-0.614583 294.114-0.96875 292.791-1.32292 290.91-1.5 288.473-1.5L283.848-1.5C282.431-1.14583 281.337-0.541667 280.567 0.3125 279.796 1.16667 279.41 2.15625 279.41 3.28125 279.41 4.53125 280.067 5.63021 281.379 6.57812 282.692 7.52604 284.869 8 287.91 8ZM283.754-1.78125C281.775-1.98958 280.218-2.40104 279.082-3.01562 277.947-3.63021 277.14-4.31771 276.66-5.07812 276.181-5.83854 275.942-6.57292 275.942-7.28125 275.942-8.30208 276.353-9.26562 277.176-10.1719 277.999-11.0781 279.348-11.8229 281.223-12.4062L283.817-10.7812C282.712-10.4687 281.837-10.0677 281.192-9.57812 280.546-9.08854 280.223-8.54167 280.223-7.9375 280.223-7.52083 280.416-7.15104 280.801-6.82812 281.186-6.50521 281.843-6.24479 282.77-6.04687 283.697-5.84896 284.983-5.75 286.629-5.75ZM287.66-9.84375C285.16-9.84375 283.041-10.3281 281.301-11.2969 279.561-12.2656 278.244-13.5365 277.348-15.1094 276.452-16.6823 276.004-18.3854 276.004-20.2187 276.004-22.1562 276.457-23.9167 277.364-25.5 278.27-27.0833 279.603-28.3437 281.364-29.2812 283.124-30.2187 285.275-30.6875 287.817-30.6875 290.421-30.6875 292.587-30.2187 294.317-29.2812 296.046-28.3437 297.337-27.0833 298.192-25.5 299.046-23.9167 299.473-22.1562 299.473-20.2187 299.473-18.3437 299.041-16.6198 298.176-15.0469 297.311-13.474 296.004-12.2135 294.254-11.2656 292.504-10.3177 290.306-9.84375 287.66-9.84375ZM287.629-13.4062C289.629-13.4062 291.28-13.9792 292.582-15.125 293.884-16.2708 294.535-17.9687 294.535-20.2187 294.535-22.5729 293.921-24.3177 292.692-25.4531 291.462-26.5885 289.837-27.1562 287.817-27.1562 285.837-27.1562 284.197-26.5729 282.895-25.4062 281.593-24.2396 280.942-22.5208 280.942-20.25 280.942-17.9583 281.614-16.2448 282.957-15.1094 284.301-13.974 285.858-13.4062 287.629-13.4062ZM295.598-27.3437 293.473-29.3125C294.369-31.2708 295.541-32.6042 296.989-33.3125 298.436-34.0208 300.306-34.4062 302.598-34.4687L302.598-30.0625C301.14-30.0625 299.801-29.9115 298.582-29.6094 297.364-29.3073 296.369-28.5521 295.598-27.3437Z" transform="matrix(1 0 0 1 58.0759 176)"/></g></g></g><path d="M1955.5 1136.83C1955.5 1112.9 1974.9 1093.5 1998.83 1093.5L2354.17 1093.5C2378.1 1093.5 2397.5 1112.9 2397.5 1136.83L2397.5 1310.17C2397.5 1334.1 2378.1 1353.5 2354.17 1353.5L1998.83 1353.5C1974.9 1353.5 1955.5 1334.1 1955.5 1310.17Z" stroke="#042433" stroke-width="6.875" stroke-miterlimit="8" fill="#BFBFBF" fill-rule="evenodd"/><text font-family="Aptos,Aptos_MSFontService,sans-serif" font-weight="400" font-size="64" transform="matrix(1 0 0 1 2047.13 1205)">Data pre</text><text font-family="Aptos,Aptos_MSFontService,sans-serif" font-weight="400" font-size="64" transform="matrix(1 0 0 1 2283.13 1205)">-</text><text font-family="Aptos,Aptos_MSFontService,sans-serif" font-weight="400" font-size="64" transform="matrix(1 0 0 1 2024.35 1282)">processing</text><g clip-path="url(#clip17)"><g filter="url(#fx4)" transform="translate(2833 1080)"><g><path d="M23.2229 66.5569C23.2229 42.624 42.6243 23.2227 66.557 23.2227L420.889 23.2227C444.822 23.2227 464.223 42.624 464.223 66.5569L464.223 239.888C464.223 263.821 444.822 283.223 420.889 283.223L66.557 283.223C42.6243 283.223 23.2229 263.821 23.2229 239.888Z" stroke="#042433" stroke-width="7" stroke-miterlimit="8" fill="#BFBFBF" fill-rule="evenodd"/></g></g><g clip-path="url(#clip18)" filter="url(#fx5)" transform="translate(2835 1116)"><g><path d="M12.5312 0 12.5312-37.3437 0.5625-37.3437 0.5625-42.0625 30.0625-42.0625 30.0625-37.3437 18.125-37.3437 18.125 0ZM38.9771 0.5625C37.2271 0.5625 35.6281 0.229167 34.1802-0.4375 32.7323-1.10417 31.576-2.08854 30.7115-3.39062 29.8469-4.69271 29.4146-6.30208 29.4146-8.21875 29.4146-10.9479 30.2687-13.0208 31.9771-14.4375 33.6854-15.8542 36.1021-16.8177 39.2271-17.3281 42.3521-17.8385 46.0083-18.1146 50.1958-18.1562L50.1958-20.2812C50.1958-22.8854 49.55-24.6719 48.2583-25.6406 46.9667-26.6094 45.3312-27.0937 43.3521-27.0937 41.2479-27.0937 39.4771-26.5625 38.0396-25.5 36.6021-24.4375 35.8833-22.7604 35.8833-20.4687L30.8208-20.4687C30.8208-22.9687 31.3573-24.9896 32.4302-26.5312 33.5031-28.0729 34.9823-29.1979 36.8677-29.9062 38.7531-30.6146 40.9146-30.9687 43.3521-30.9687 44.9146-30.9687 46.4094-30.8229 47.8365-30.5312 49.2635-30.2396 50.5448-29.7083 51.6802-28.9375 52.8156-28.1667 53.7167-27.0885 54.3833-25.7031 55.05-24.3177 55.3833-22.5312 55.3833-20.3437L55.3833 0 50.5083 0 50.2896-4.625C48.8937-3.0625 47.274-1.80729 45.4302-0.859375 43.5865 0.0885416 41.4354 0.5625 38.9771 0.5625ZM40.3521-3.4375C42.4354-3.4375 44.3104-3.92708 45.9771-4.90625 47.6437-5.88542 49.0396-7.125 50.1646-8.625L50.1646-14.8125C44.6229-14.75 40.649-14.2292 38.2427-13.25 35.8365-12.2708 34.6333-10.6667 34.6333-8.4375 34.6333-6.91667 35.1177-5.70312 36.0865-4.79687 37.0552-3.89062 38.4771-3.4375 40.3521-3.4375ZM76.2896 0.5625C74.5812 0.5625 72.9614 0.375 71.4302 0 69.8989-0.375 68.55-0.96875 67.3833-1.78125 66.2167-2.59375 65.3052-3.66146 64.6489-4.98437 63.9927-6.30729 63.6646-7.90625 63.6646-9.78125L68.6958-9.78125C68.6958-7.40625 69.4302-5.73437 70.8989-4.76562 72.3677-3.79687 74.2062-3.3125 76.4146-3.3125 78.3937-3.3125 80.0239-3.69271 81.3052-4.45312 82.5864-5.21354 83.2271-6.46875 83.2271-8.21875 83.2271-9.71875 82.6489-10.8333 81.4927-11.5625 80.3364-12.2917 78.3-13 75.3833-13.6875 73.0083-14.25 71.0083-14.901 69.3833-15.6406 67.7583-16.3802 66.5396-17.3177 65.7271-18.4531 64.9146-19.5885 64.5083-21.0208 64.5083-22.75 64.5083-24.1042 64.7948-25.2969 65.3677-26.3281 65.9406-27.3594 66.7427-28.2187 67.7739-28.9062 68.8052-29.5937 70.0187-30.1094 71.4146-30.4531 72.8104-30.7969 74.3208-30.9687 75.9458-30.9687 77.55-30.9687 79.0552-30.7812 80.4614-30.4062 81.8677-30.0312 83.1073-29.4479 84.1802-28.6562 85.2531-27.8646 86.1021-26.8437 86.7271-25.5937 87.3521-24.3437 87.6646-22.8437 87.6646-21.0937L82.6021-21.0937C82.6021-23.2604 81.9562-24.7917 80.6646-25.6875 79.3729-26.5833 77.8-27.0312 75.9458-27.0312 74.0708-27.0312 72.55-26.6979 71.3833-26.0312 70.2167-25.3646 69.6333-24.3229 69.6333-22.9062 69.6333-22.0937 69.8937-21.4062 70.4146-20.8437 70.9354-20.2812 71.8104-19.776 73.0396-19.3281 74.2687-18.8802 75.925-18.4062 78.0083-17.9062 80.2792-17.3646 82.1854-16.7187 83.7271-15.9687 85.2687-15.2187 86.4302-14.2552 87.2114-13.0781 87.9927-11.901 88.3833-10.3958 88.3833-8.5625 88.3833-6.97917 88.076-5.60937 87.4614-4.45312 86.8469-3.29687 85.9927-2.34896 84.8989-1.60937 83.8052-0.869792 82.5239-0.322917 81.0552 0.03125 79.5864 0.385417 77.9979 0.5625 76.2896 0.5625ZM96.4458 0 96.4458-42.0625 101.665-42.0625 101.665-16.0937 115.415-30.4375 121.571-30.4375 107.821-16.1875 122.821 0 116.321 0 101.665-15.8125 101.665 0Z" transform="matrix(1 0 0 1 179.89 99)"/><path d="M5.03125 0 5.03125-30.4375 10.25-30.4375 10.25 0ZM7.625-36.1562C6.64583-36.1562 5.85937-36.4427 5.26562-37.0156 4.67187-37.5885 4.375-38.3125 4.375-39.1875 4.375-40.0625 4.67187-40.7865 5.26562-41.3594 5.85937-41.9323 6.64583-42.2187 7.625-42.2187 8.60417-42.2187 9.39583-41.9323 10-41.3594 10.6042-40.7865 10.9062-40.0625 10.9062-39.1875 10.9062-38.3125 10.6042-37.5885 10-37.0156 9.39583-36.4427 8.60417-36.1562 7.625-36.1562ZM30.9062 0.5625C28.4271 0.5625 26.2812-0.03125 24.4687-1.21875 22.6562-2.40625 21.2552-4.18229 20.2656-6.54687 19.276-8.91146 18.7812-11.8333 18.7812-15.3125 18.7812-18.7708 19.3073-21.6562 20.3594-23.9687 21.4115-26.2812 22.8958-28.026 24.8125-29.2031 26.7292-30.3802 28.9896-30.9687 31.5937-30.9687 33.7604-30.9687 35.6458-30.4948 37.25-29.5469 38.8542-28.599 40.1458-27.3125 41.125-25.6875L41.125-42.0625 46.3437-42.0625 46.3437 0 41.4062 0 41.125-4.4375C40.0417-2.95833 38.6458-1.75521 36.9375-0.828125 35.2292 0.0989583 33.2187 0.5625 30.9062 0.5625ZM31.9687-3.71875C34.1979-3.71875 36.0521-4.24479 37.5312-5.29687 39.0104-6.34896 40.2083-7.61458 41.125-9.09375L41.125-20.8125C40.2708-22.5208 39.151-23.9323 37.7656-25.0469 36.3802-26.1615 34.6354-26.7187 32.5312-26.7187 29.7604-26.7187 27.6719-25.7292 26.2656-23.75 24.8594-21.7708 24.1562-18.9583 24.1562-15.3125 24.1562-11.5417 24.8177-8.66667 26.1406-6.6875 27.4635-4.70833 29.4062-3.71875 31.9687-3.71875ZM69.25 0.5625C65.9375 0.5625 63.224-0.130208 61.1094-1.51562 58.9948-2.90104 57.4271-4.78646 56.4062-7.17187 55.3854-9.55729 54.875-12.2396 54.875-15.2187 54.875-18.3229 55.3698-21.0573 56.3594-23.4219 57.349-25.7865 58.8594-27.6354 60.8906-28.9687 62.9219-30.3021 65.5-30.9687 68.625-30.9687 72.7708-30.9687 76.0208-29.7187 78.375-27.2187 80.7292-24.7187 81.9062-21.125 81.9062-16.4375 81.9062-16.125 81.8958-15.7552 81.875-15.3281 81.8542-14.901 81.8229-14.5937 81.7812-14.4062L60.0937-14.4062C60.1146-12.4271 60.4323-10.6094 61.0469-8.95312 61.6615-7.29687 62.6354-5.96875 63.9687-4.96875 65.3021-3.96875 67.0625-3.46875 69.25-3.46875 71.5833-3.46875 73.4062-4.01562 74.7187-5.10937 76.0312-6.20312 76.7187-7.78125 76.7812-9.84375L81.9375-9.84375C81.875-7.69792 81.3229-5.84896 80.2812-4.29687 79.2396-2.74479 77.7812-1.54687 75.9062-0.703125 74.0312 0.140625 71.8125 0.5625 69.25 0.5625ZM60.125-18.2187 76.75-18.2187C76.6875-21.0521 75.9479-23.2187 74.5312-24.7187 73.1146-26.2187 71.1458-26.9687 68.625-26.9687 66.0833-26.9687 64.0885-26.224 62.6406-24.7344 61.1927-23.2448 60.3542-21.0729 60.125-18.2187ZM90.3958 0 90.3958-30.4375 95.3958-30.4375 95.5833-25.75C96.5208-26.9792 97.8646-28.1406 99.6146-29.2344 101.365-30.3281 103.604-30.875 106.333-30.875 109.667-30.875 112.094-29.8906 113.615-27.9219 115.135-25.9531 115.896-23.1875 115.896-19.625L115.896 0 110.677 0 110.677-18.875C110.677-20.3542 110.521-21.6667 110.208-22.8125 109.896-23.9583 109.339-24.8594 108.536-25.5156 107.734-26.1719 106.573-26.5 105.052-26.5 102.781-26.5 100.875-25.9844 99.3333-24.9531 97.7917-23.9219 96.5521-22.7917 95.6146-21.5625L95.6146 0ZM136.073 0C133.615 0 131.729-0.390625 130.417-1.17187 129.104-1.95312 128.203-3.07812 127.714-4.54687 127.224-6.01562 126.979-7.78125 126.979-9.84375L126.979-26.2187 121.885-26.2187 121.885-30.4375 126.979-30.4375 126.979-37.4062 132.167-37.4062 132.167-30.4375 139.667-30.4375 139.667-26.2187 132.167-26.2187 132.167-10.0937C132.167-8.19792 132.411-6.74479 132.901-5.73437 133.391-4.72396 134.562-4.21875 136.417-4.21875L139.729-4.21875 139.729 0ZM146.542 0 146.542-30.4375 151.76-30.4375 151.76 0ZM149.135-36.1562C148.156-36.1562 147.37-36.4427 146.776-37.0156 146.182-37.5885 145.885-38.3125 145.885-39.1875 145.885-40.0625 146.182-40.7865 146.776-41.3594 147.37-41.9323 148.156-42.2187 149.135-42.2187 150.115-42.2187 150.906-41.9323 151.51-41.3594 152.115-40.7865 152.417-40.0625 152.417-39.1875 152.417-38.3125 152.115-37.5885 151.51-37.0156 150.906-36.4427 150.115-36.1562 149.135-36.1562ZM163.073 0 163.073-26.2187 157.979-26.2187 157.979-30.4375 163.073-30.4375 163.073-32.1875C163.073-33.7292 163.203-35.1146 163.464-36.3437 163.724-37.5729 164.182-38.6094 164.839-39.4531 165.495-40.2969 166.411-40.9427 167.589-41.3906 168.766-41.8385 170.292-42.0625 172.167-42.0625L175.323-42.0625 175.323-37.9687 172.51-37.9687C170.656-37.9687 169.484-37.4687 168.995-36.4687 168.505-35.4687 168.26-34.0208 168.26-32.125L168.26-30.4375 175.354-30.4375 175.354-26.2187 168.26-26.2187 168.26 0ZM181.49 0 181.49-30.4375 186.708-30.4375 186.708 0ZM184.083-36.1562C183.104-36.1562 182.318-36.4427 181.724-37.0156 181.13-37.5885 180.833-38.3125 180.833-39.1875 180.833-40.0625 181.13-40.7865 181.724-41.3594 182.318-41.9323 183.104-42.2187 184.083-42.2187 185.062-42.2187 185.854-41.9323 186.458-41.3594 187.062-40.7865 187.365-40.0625 187.365-39.1875 187.365-38.3125 187.062-37.5885 186.458-37.0156 185.854-36.4427 185.062-36.1562 184.083-36.1562ZM209.333 0.53125C206.583 0.53125 204.146-0.046875 202.021-1.20312 199.896-2.35937 198.234-4.09896 197.036-6.42187 195.839-8.74479 195.24-11.6562 195.24-15.1562 195.24-18.6562 195.828-21.5781 197.005-23.9219 198.182-26.2656 199.828-28.026 201.943-29.2031 204.057-30.3802 206.521-30.9687 209.333-30.9687 211.688-30.9687 213.807-30.5833 215.693-29.8125 217.578-29.0417 219.083-27.8802 220.208-26.3281 221.333-24.776 221.927-22.8125 221.99-20.4375L216.833-20.4375C216.708-22.3958 216-23.9375 214.708-25.0625 213.417-26.1875 211.656-26.75 209.427-26.75 206.469-26.75 204.26-25.7344 202.802-23.7031 201.344-21.6719 200.615-18.8229 200.615-15.1562 200.615-12.7187 200.937-10.651 201.583-8.95312 202.229-7.25521 203.208-5.95312 204.521-5.04687 205.833-4.14062 207.469-3.6875 209.427-3.6875 211.656-3.6875 213.469-4.26562 214.865-5.42187 216.26-6.57812 216.99-8.27083 217.052-10.5L222.208-10.5C222.146-8.04167 221.547-5.99479 220.411-4.35937 219.276-2.72396 217.745-1.5 215.818-0.6875 213.891 0.125 211.729 0.53125 209.333 0.53125ZM238.237 0.5625C236.487 0.5625 234.889 0.229167 233.441-0.4375 231.993-1.10417 230.836-2.08854 229.972-3.39062 229.107-4.69271 228.675-6.30208 228.675-8.21875 228.675-10.9479 229.529-13.0208 231.237-14.4375 232.946-15.8542 235.362-16.8177 238.487-17.3281 241.612-17.8385 245.269-18.1146 249.456-18.1562L249.456-20.2812C249.456-22.8854 248.81-24.6719 247.519-25.6406 246.227-26.6094 244.592-27.0937 242.612-27.0937 240.508-27.0937 238.737-26.5625 237.3-25.5 235.862-24.4375 235.144-22.7604 235.144-20.4687L230.081-20.4687C230.081-22.9687 230.618-24.9896 231.691-26.5312 232.764-28.0729 234.243-29.1979 236.128-29.9062 238.014-30.6146 240.175-30.9687 242.612-30.9687 244.175-30.9687 245.67-30.8229 247.097-30.5312 248.524-30.2396 249.805-29.7083 250.941-28.9375 252.076-28.1667 252.977-27.0885 253.644-25.7031 254.31-24.3177 254.644-22.5312 254.644-20.3437L254.644 0 249.769 0 249.55-4.625C248.154-3.0625 246.534-1.80729 244.691-0.859375 242.847 0.0885416 240.696 0.5625 238.237 0.5625ZM239.612-3.4375C241.696-3.4375 243.571-3.92708 245.237-4.90625 246.904-5.88542 248.3-7.125 249.425-8.625L249.425-14.8125C243.883-14.75 239.909-14.2292 237.503-13.25 235.097-12.2708 233.894-10.6667 233.894-8.4375 233.894-6.91667 234.378-5.70312 235.347-4.79687 236.316-3.89062 237.737-3.4375 239.612-3.4375ZM274.352 0C271.894 0 270.008-0.390625 268.696-1.17187 267.383-1.95312 266.482-3.07812 265.993-4.54687 265.503-6.01562 265.258-7.78125 265.258-9.84375L265.258-26.2187 260.165-26.2187 260.165-30.4375 265.258-30.4375 265.258-37.4062 270.446-37.4062 270.446-30.4375 277.946-30.4375 277.946-26.2187 270.446-26.2187 270.446-10.0937C270.446-8.19792 270.691-6.74479 271.18-5.73437 271.67-4.72396 272.842-4.21875 274.696-4.21875L278.008-4.21875 278.008 0ZM284.821 0 284.821-30.4375 290.04-30.4375 290.04 0ZM287.415-36.1562C286.435-36.1562 285.649-36.4427 285.055-37.0156 284.461-37.5885 284.165-38.3125 284.165-39.1875 284.165-40.0625 284.461-40.7865 285.055-41.3594 285.649-41.9323 286.435-42.2187 287.415-42.2187 288.394-42.2187 289.185-41.9323 289.79-41.3594 290.394-40.7865 290.696-40.0625 290.696-39.1875 290.696-38.3125 290.394-37.5885 289.79-37.0156 289.185-36.4427 288.394-36.1562 287.415-36.1562ZM312.758 0.5C309.779 0.5 307.227-0.130208 305.102-1.39062 302.977-2.65104 301.357-4.45312 300.243-6.79687 299.128-9.14062 298.571-11.9271 298.571-15.1562 298.571-18.4687 299.128-21.3073 300.243-23.6719 301.357-26.0365 302.977-27.8542 305.102-29.125 307.227-30.3958 309.779-31.0312 312.758-31.0312 315.8-31.0312 318.399-30.3958 320.555-29.125 322.711-27.8542 324.368-26.0365 325.524-23.6719 326.68-21.3073 327.258-18.4687 327.258-15.1562 327.258-11.9271 326.68-9.14062 325.524-6.79687 324.368-4.45312 322.711-2.65104 320.555-1.39062 318.399-0.130208 315.8 0.5 312.758 0.5ZM312.758-3.65625C315.008-3.65625 316.8-4.15104 318.133-5.14062 319.467-6.13021 320.425-7.49479 321.008-9.23437 321.592-10.974 321.883-12.9479 321.883-15.1562 321.883-17.4062 321.592-19.4167 321.008-21.1875 320.425-22.9583 319.467-24.349 318.133-25.3594 316.8-26.3698 315.008-26.875 312.758-26.875 310.571-26.875 308.836-26.3698 307.555-25.3594 306.274-24.349 305.352-22.9583 304.79-21.1875 304.227-19.4167 303.946-17.4062 303.946-15.1562 303.946-12.9479 304.227-10.974 304.79-9.23437 305.352-7.49479 306.274-6.13021 307.555-5.14062 308.836-4.15104 310.571-3.65625 312.758-3.65625ZM335.81 0 335.81-30.4375 340.81-30.4375 340.998-25.75C341.935-26.9792 343.279-28.1406 345.029-29.2344 346.779-30.3281 349.019-30.875 351.748-30.875 355.081-30.875 357.508-29.8906 359.029-27.9219 360.55-25.9531 361.31-23.1875 361.31-19.625L361.31 0 356.092 0 356.092-18.875C356.092-20.3542 355.935-21.6667 355.623-22.8125 355.31-23.9583 354.753-24.8594 353.951-25.5156 353.149-26.1719 351.987-26.5 350.467-26.5 348.196-26.5 346.29-25.9844 344.748-24.9531 343.206-23.9219 341.967-22.7917 341.029-21.5625L341.029 0Z" transform="matrix(1 0 0 1 58.2026 176)"/></g></g></g><path d="M2846.5 1136.83C2846.5 1112.9 2865.9 1093.5 2889.83 1093.5L3244.17 1093.5C3268.1 1093.5 3287.5 1112.9 3287.5 1136.83L3287.5 1310.17C3287.5 1334.1 3268.1 1353.5 3244.17 1353.5L2889.83 1353.5C2865.9 1353.5 2846.5 1334.1 2846.5 1310.17Z" stroke="#042433" stroke-width="6.875" stroke-miterlimit="8" fill="#BFBFBF" fill-rule="evenodd"/><text font-family="Aptos,Aptos_MSFontService,sans-serif" font-weight="400" font-size="64" transform="matrix(1 0 0 1 3005.17 1205)">Task </text><text font-family="Aptos,Aptos_MSFontService,sans-serif" font-weight="400" font-size="64" transform="matrix(1 0 0 1 2883.48 1282)">identification</text><g clip-path="url(#clip19)" filter="url(#fx6)" transform="translate(1498 1167)"><g><path d="M19.7228 60.7228 453.371 60.7231 453.371 70.7231 19.7228 70.7228ZM425.89 43.9042 463.294 65.7231 425.89 87.542C423.505 88.9334 420.443 88.1277 419.052 85.7425 417.66 83.3572 418.466 80.2956 420.851 78.9042L450.851 61.4042 450.851 70.042 420.851 52.542C418.466 51.1506 417.66 48.089 419.052 45.7037 420.443 43.3185 423.505 42.5128 425.89 43.9042Z"/></g></g><path d="M1508 1217.84 1941.34 1217.84 1941.34 1228.16 1508 1228.16ZM1913 1200.5 1951.57 1223 1913 1245.5C1910.54 1246.94 1907.38 1246.11 1905.95 1243.65 1904.51 1241.19 1905.34 1238.03 1907.8 1236.59L1938.74 1218.55 1938.74 1227.45 1907.8 1209.41C1905.34 1207.97 1904.51 1204.82 1905.95 1202.36 1907.38 1199.9 1910.54 1199.06 1913 1200.5Z"/><g clip-path="url(#clip20)" filter="url(#fx7)" transform="translate(2389 1167)"><g><path d="M19.7227 60.7228 453.371 60.7231 453.371 70.7231 19.7227 70.7228ZM425.89 43.9042 463.294 65.7231 425.89 87.542C423.505 88.9334 420.443 88.1277 419.052 85.7425 417.66 83.3572 418.466 80.2956 420.851 78.9042L450.851 61.4042 450.851 70.042 420.851 52.542C418.466 51.1506 417.66 48.089 419.052 45.7037 420.443 43.3185 423.505 42.5128 425.89 43.9042Z"/></g></g><path d="M2399 1217.84 2832.34 1217.84 2832.34 1228.16 2399 1228.16ZM2804 1200.5 2842.57 1223 2804 1245.5C2801.54 1246.94 2798.38 1246.11 2796.95 1243.65 2795.51 1241.19 2796.34 1238.03 2798.8 1236.59L2829.74 1218.55 2829.74 1227.45 2798.8 1209.41C2796.34 1207.97 2795.51 1204.82 2796.95 1202.36 2798.38 1199.9 2801.54 1199.06 2804 1200.5Z"/><g clip-path="url(#clip21)" filter="url(#fx8)" transform="translate(615 1167)"><g><path d="M19.7227 60.7228 453.371 60.7231 453.371 70.7231 19.7227 70.7228ZM425.89 43.9042 463.294 65.7231 425.89 87.542C423.505 88.9334 420.443 88.1277 419.052 85.7425 417.66 83.3572 418.466 80.2956 420.851 78.9042L450.851 61.4042 450.851 70.042 420.851 52.542C418.466 51.1506 417.66 48.089 419.052 45.7037 420.443 43.3185 423.505 42.5128 425.89 43.9042Z"/></g></g><path d="M625 1217.84 1058.34 1217.84 1058.34 1228.16 625 1228.16ZM1030 1200.5 1068.57 1223 1030 1245.5C1027.54 1246.94 1024.38 1246.11 1022.95 1243.65 1021.51 1241.19 1022.34 1238.03 1024.8 1236.59L1055.74 1218.55 1055.74 1227.45 1024.8 1209.41C1022.34 1207.97 1021.51 1204.82 1022.95 1202.36 1024.38 1199.9 1027.54 1199.06 1030 1200.5Z"/><g clip-path="url(#clip22)" filter="url(#fx9)" transform="translate(3283 1167)"><g><path d="M19.7229 60.7228 453.371 60.7231 453.371 70.7231 19.7229 70.7228ZM425.89 43.9042 463.294 65.7231 425.89 87.542C423.505 88.9334 420.443 88.1277 419.052 85.7425 417.661 83.3572 418.466 80.2956 420.852 78.9042L450.852 61.4042 450.852 70.042 420.852 52.542C418.466 51.1506 417.661 48.089 419.052 45.7037 420.443 43.3185 423.505 42.5128 425.89 43.9042Z"/></g></g><path d="M3293 1217.84 3726.34 1217.84 3726.34 1228.16 3293 1228.16ZM3698 1200.5 3736.57 1223 3698 1245.5C3695.54 1246.94 3692.38 1246.11 3690.95 1243.65 3689.51 1241.19 3690.34 1238.03 3692.8 1236.59L3723.74 1218.55 3723.74 1227.45 3692.8 1209.41C3690.34 1207.97 3689.51 1204.82 3690.95 1202.36 3692.38 1199.9 3695.54 1199.06 3698 1200.5Z"/><text font-family="Aptos,Aptos_MSFontService,sans-serif" font-weight="400" font-size="64" transform="matrix(1 0 0 1 720.301 915)">IMU raw </text><text font-family="Aptos,Aptos_MSFontService,sans-serif" font-weight="400" font-size="64" transform="matrix(1 0 0 1 769.87 992)">data </text><text font-family="Aptos,Aptos_MSFontService,sans-serif" font-weight="400" font-size="64" transform="matrix(1 0 0 1 702.61 1069)">(.txt, .csv, </text><text font-family="Aptos,Aptos_MSFontService,sans-serif" font-weight="400" font-size="64" transform="matrix(1 0 0 1 712.739 1146)">.json, )</text><text font-family="Aptos,Aptos_MSFontService,sans-serif" font-weight="400" font-size="64" transform="matrix(1 0 0 1 1603.75 993)">IMU raw </text><text font-family="Aptos,Aptos_MSFontService,sans-serif" font-weight="400" font-size="64" transform="matrix(1 0 0 1 1653.32 1070)">data </text><text font-family="Aptos,Aptos_MSFontService,sans-serif" font-weight="400" font-size="64" transform="matrix(1 0 0 1 1581.43 1147)">organized</text><text font-family="Aptos,Aptos_MSFontService,sans-serif" font-weight="400" font-size="64" transform="matrix(1 0 0 1 2537.39 915)">MWC </text><text font-family="Aptos,Aptos_MSFontService,sans-serif" font-weight="400" font-size="64" transform="matrix(1 0 0 1 2475.4 992)">linear and </text><text font-family="Aptos,Aptos_MSFontService,sans-serif" font-weight="400" font-size="64" transform="matrix(1 0 0 1 2508.92 1069)">angular </text><text font-family="Aptos,Aptos_MSFontService,sans-serif" font-weight="400" font-size="64" transform="matrix(1 0 0 1 2528.11 1146)">speed</text><text font-family="Aptos,Aptos_MSFontService,sans-serif" font-weight="400" font-size="64" transform="matrix(1 0 0 1 3374.66 1070)">Locomotor </text><text font-family="Aptos,Aptos_MSFontService,sans-serif" font-weight="400" font-size="64" transform="matrix(1 0 0 1 3453.33 1147)">tasks</text><g clip-path="url(#clip23)" filter="url(#fx10)" transform="translate(2120 1297)"><g><path d="M5-1.18896e-05 5.00034 141.868-4.99966 141.868-5 1.18896e-05ZM21.8192 114.388 0.00036029 151.791-21.8186 114.388C-23.21 112.002-22.4044 108.941-20.0191 107.549-17.6338 106.158-14.5723 106.964-13.1808 109.349L4.31923 139.349-4.31856 139.349 13.1814 109.349C14.5728 106.964 17.6343 106.158 20.0196 107.549 22.4049 108.941 23.2106 112.002 21.8192 114.388Z" transform="matrix(1 0 0 -1 65.7227 217.491)"/></g></g><path d="M5.15625-1.22611e-05 5.15659 141.559-5.15591 141.559-5.15625 1.22611e-05ZM22.501 113.219 0.000360977 151.792-22.5005 113.22C-23.9354 110.76-23.1045 107.602-20.6447 106.168-18.1849 104.733-15.0276 105.564-13.5928 108.023L4.45419 138.961-4.45353 138.961 13.5933 108.023C15.0281 105.563 18.1854 104.733 20.6452 106.167 23.105 107.602 23.9359 110.76 22.501 113.219Z" transform="matrix(1 0 0 -1 2176 1504.77)"/><text font-family="Aptos,Aptos_MSFontService,sans-serif" font-weight="400" font-size="64" transform="matrix(1 0 0 1 2099.94 1580)">MWC </text><text font-family="Aptos,Aptos_MSFontService,sans-serif" font-weight="400" font-size="64" transform="matrix(1 0 0 1 2066.6 1657)">settings</text><g clip-path="url(#clip24)" filter="url(#fx11)" transform="translate(3011 1297)"><g><path d="M5-1.18896e-05 5.00034 141.868-4.99966 141.868-5 1.18896e-05ZM21.8192 114.388 0.00036029 151.791-21.8186 114.388C-23.21 112.002-22.4044 108.941-20.0191 107.549-17.6338 106.158-14.5723 106.964-13.1808 109.349L4.31923 139.349-4.31856 139.349 13.1814 109.349C14.5728 106.964 17.6343 106.158 20.0196 107.549 22.4049 108.941 23.2106 112.002 21.8192 114.388Z" transform="matrix(1 0 0 -1 65.7227 217.491)"/></g></g><path d="M5.15625-1.22611e-05 5.15659 141.559-5.15591 141.559-5.15625 1.22611e-05ZM22.501 113.219 0.000360977 151.792-22.5005 113.22C-23.9354 110.76-23.1045 107.602-20.6447 106.168-18.1849 104.733-15.0276 105.564-13.5928 108.023L4.45419 138.961-4.45353 138.961 13.5933 108.023C15.0281 105.563 18.1854 104.733 20.6452 106.167 23.105 107.602 23.9359 110.76 22.501 113.219Z" transform="matrix(1 0 0 -1 3067 1504.77)"/><text font-family="Aptos,Aptos_MSFontService,sans-serif" font-weight="400" font-size="64" transform="matrix(1 0 0 1 2873.49 1580)">Customizable </text><text font-family="Aptos,Aptos_MSFontService,sans-serif" font-weight="400" font-size="64" transform="matrix(1 0 0 1 2918.68 1657)">thresholds</text></g></svg>