<svg width="3217" height="467" xmlns="http://www.w3.org/2000/svg" xmlns:xlink="http://www.w3.org/1999/xlink" xml:space="preserve" overflow="hidden"><defs><filter id="fx0" x="-10%" y="-10%" width="120%" height="120%" filterUnits="userSpaceOnUse" primitiveUnits="userSpaceOnUse"><feComponentTransfer color-interpolation-filters="sRGB"><feFuncR type="discrete" tableValues="0 0"/><feFuncG type="discrete" tableValues="0 0"/><feFuncB type="discrete" tableValues="0 0"/><feFuncA type="linear" slope="0.4" intercept="0"/></feComponentTransfer><feGaussianBlur stdDeviation="6.11111 6.11111"/></filter><filter id="fx1" x="-10%" y="-10%" width="120%" height="120%" filterUnits="userSpaceOnUse" primitiveUnits="userSpaceOnUse"><feComponentTransfer color-interpolation-filters="sRGB"><feFuncR type="discrete" tableValues="0 0"/><feFuncG type="discrete" tableValues="0 0"/><feFuncB type="discrete" tableValues="0 0"/><feFuncA type="linear" slope="0.4" intercept="0"/></feComponentTransfer><feGaussianBlur stdDeviation="6.11111 6.11111"/></filter><filter id="fx2" x="-10%" y="-10%" width="120%" height="120%" filterUnits="userSpaceOnUse" primitiveUnits="userSpaceOnUse"><feComponentTransfer color-interpolation-filters="sRGB"><feFuncR type="discrete" tableValues="0 0"/><feFuncG type="discrete" tableValues="0 0"/><feFuncB type="discrete" tableValues="0 0"/><feFuncA type="linear" slope="0.4" intercept="0"/></feComponentTransfer><feGaussianBlur stdDeviation="6.11111 6.11111"/></filter><filter id="fx3" x="-10%" y="-10%" width="120%" height="120%" filterUnits="userSpaceOnUse" primitiveUnits="userSpaceOnUse"><feComponentTransfer color-interpolation-filters="sRGB"><feFuncR type="discrete" tableValues="0 0"/><feFuncG type="discrete" tableValues="0 0"/><feFuncB type="discrete" tableValues="0 0"/><feFuncA type="linear" slope="0.4" intercept="0"/></feComponentTransfer><feGaussianBlur stdDeviation="6.11111 6.11111"/></filter><filter id="fx4" x="-10%" y="-10%" width="120%" height="120%" filterUnits="userSpaceOnUse" primitiveUnits="userSpaceOnUse"><feComponentTransfer color-interpolation-filters="sRGB"><feFuncR type="discrete" tableValues="0 0"/><feFuncG type="discrete" tableValues="0 0"/><feFuncB type="discrete" tableValues="0 0"/><feFuncA type="linear" slope="0.4" intercept="0"/></feComponentTransfer><feGaussianBlur stdDeviation="6.11111 6.11111"/></filter><filter id="fx5" x="-10%" y="-10%" width="120%" height="120%" filterUnits="userSpaceOnUse" primitiveUnits="userSpaceOnUse"><feComponentTransfer color-interpolation-filters="sRGB"><feFuncR type="discrete" tableValues="0 0"/><feFuncG type="discrete" tableValues="0 0"/><feFuncB type="discrete" tableValues="0 0"/><feFuncA type="linear" slope="0.4" intercept="0"/></feComponentTransfer><feGaussianBlur stdDeviation="6.11111 6.11111"/></filter><filter id="fx6" x="-10%" y="-10%" width="120%" height="120%" filterUnits="userSpaceOnUse" primitiveUnits="userSpaceOnUse"><feComponentTransfer color-interpolation-filters="sRGB"><feFuncR type="discrete" tableValues="0 0"/><feFuncG type="discrete" tableValues="0 0"/><feFuncB type="discrete" tableValues="0 0"/><feFuncA type="linear" slope="0.4" intercept="0"/></feComponentTransfer><feGaussianBlur stdDeviation="6.11111 6.11111"/></filter><filter id="fx7" x="-10%" y="-10%" width="120%" height="120%" filterUnits="userSpaceOnUse" primitiveUnits="userSpaceOnUse"><feComponentTransfer color-interpolation-filters="sRGB"><feFuncR type="discrete" tableValues="0 0"/><feFuncG type="discrete" tableValues="0 0"/><feFuncB type="discrete" tableValues="0 0"/><feFuncA type="linear" slope="0.4" intercept="0"/></feComponentTransfer><feGaussianBlur stdDeviation="6.11111 6.11111"/></filter><filter id="fx8" x="-10%" y="-10%" width="120%" height="120%" filterUnits="userSpaceOnUse" primitiveUnits="userSpaceOnUse"><feComponentTransfer color-interpolation-filters="sRGB"><feFuncR type="discrete" tableValues="0 0"/><feFuncG type="discrete" tableValues="0 0"/><feFuncB type="discrete" tableValues="0 0"/><feFuncA type="linear" slope="0.4" intercept="0"/></feComponentTransfer><feGaussianBlur stdDeviation="6.11111 6.11111"/></filter><filter id="fx9" x="-10%" y="-10%" width="120%" height="120%" filterUnits="userSpaceOnUse" primitiveUnits="userSpaceOnUse"><feComponentTransfer color-interpolation-filters="sRGB"><feFuncR type="discrete" tableValues="0 0"/><feFuncG type="discrete" tableValues="0 0"/><feFuncB type="discrete" tableValues="0 0"/><feFuncA type="linear" slope="0.4" intercept="0"/></feComponentTransfer><feGaussianBlur stdDeviation="6.11111 6.11111"/></filter><clipPath id="clip10"><rect x="597" y="1081" width="3217" height="467"/></clipPath><clipPath id="clip11"><path d="M1111.83 1093.5C1087.9 1093.5 1068.5 1112.9 1068.5 1136.83L1068.5 1310.17C1068.5 1334.1 1087.9 1353.5 1111.83 1353.5L1467.17 1353.5C1491.1 1353.5 1510.5 1334.1 1510.5 1310.17L1510.5 1136.83C1510.5 1112.9 1491.1 1093.5 1467.17 1093.5ZM597 1081 3814 1081 3814 1548 597 1548Z" fill-rule="evenodd" clip-rule="evenodd"/></clipPath><clipPath id="clip12"><rect x="39" y="35" width="344" height="176"/></clipPath><clipPath id="clip13"><path d="M1998.83 1093.5C1974.9 1093.5 1955.5 1112.9 1955.5 1136.83L1955.5 1310.17C1955.5 1334.1 1974.9 1353.5 1998.83 1353.5L2354.17 1353.5C2378.1 1353.5 2397.5 1334.1 2397.5 1310.17L2397.5 1136.83C2397.5 1112.9 2378.1 1093.5 2354.17 1093.5ZM597 1081 3814 1081 3814 1548 597 1548Z" fill-rule="evenodd" clip-rule="evenodd"/></clipPath><clipPath id="clip14"><rect x="39" y="35" width="364" height="176"/></clipPath><clipPath id="clip15"><path d="M2889.83 1093.5C2865.9 1093.5 2846.5 1112.9 2846.5 1136.83L2846.5 1310.17C2846.5 1334.1 2865.9 1353.5 2889.83 1353.5L3257.17 1353.5C3281.1 1353.5 3300.5 1334.1 3300.5 1310.17L3300.5 1136.83C3300.5 1112.9 3281.1 1093.5 3257.17 1093.5ZM597 1081 3814 1081 3814 1548 597 1548Z" fill-rule="evenodd" clip-rule="evenodd"/></clipPath><clipPath id="clip16"><rect x="39" y="35" width="402" height="165"/></clipPath><clipPath id="clip17"><rect x="-3" y="22" width="489" height="89"/></clipPath><clipPath id="clip18"><rect x="-3" y="22" width="489" height="89"/></clipPath><clipPath id="clip19"><rect x="-3" y="22" width="489" height="89"/></clipPath><clipPath id="clip20"><rect x="-3" y="22" width="489" height="89"/></clipPath></defs><g clip-path="url(#clip10)" transform="translate(-597 -1081)"><g clip-path="url(#clip11)"><g filter="url(#fx0)" transform="translate(1055 1080)"><g><path d="M23.2225 66.5569C23.2225 42.6241 42.6239 23.2227 66.5568 23.2227L421.888 23.2227C445.821 23.2227 465.223 42.6241 465.223 66.5569L465.223 239.888C465.223 263.821 445.821 283.223 421.888 283.223L66.5568 283.223C42.6239 283.223 23.2225 263.821 23.2225 239.888Z" stroke="#042433" stroke-width="7" stroke-miterlimit="8" fill="#BFBFBF" fill-rule="evenodd"/></g></g><g clip-path="url(#clip12)" filter="url(#fx1)" transform="translate(1089 1116)"><g><path d="M5.5 0 5.5-42.0625 19.6562-42.0625C24.0521-42.0625 27.8021-41.2344 30.9062-39.5781 34.0104-37.9219 36.375-35.5208 38-32.375 39.625-29.2292 40.4375-25.4479 40.4375-21.0312 40.4375-16.5937 39.6198-12.8021 37.9844-9.65625 36.349-6.51042 33.9792-4.11458 30.875-2.46875 27.7708-0.822917 24.0312 0 19.6562 0ZM11.125-4.71875 18.4062-4.71875C22.0937-4.71875 25.1354-5.30729 27.5312-6.48437 29.9271-7.66146 31.7135-9.46354 32.8906-11.8906 34.0677-14.3177 34.6562-17.375 34.6562-21.0625 34.6562-24.7292 34.0573-27.7656 32.8594-30.1719 31.6615-32.5781 29.8594-34.375 27.4531-35.5625 25.0469-36.75 22.0312-37.3437 18.4062-37.3437L11.125-37.3437ZM56.9208 0.5625C55.1708 0.5625 53.5719 0.229167 52.124-0.4375 50.676-1.10417 49.5198-2.08854 48.6552-3.39062 47.7906-4.69271 47.3583-6.30208 47.3583-8.21875 47.3583-10.9479 48.2125-13.0208 49.9208-14.4375 51.6292-15.8542 54.0458-16.8177 57.1708-17.3281 60.2958-17.8385 63.9521-18.1146 68.1396-18.1562L68.1396-20.2812C68.1396-22.8854 67.4937-24.6719 66.2021-25.6406 64.9104-26.6094 63.275-27.0937 61.2958-27.0937 59.1917-27.0937 57.4208-26.5625 55.9833-25.5 54.5458-24.4375 53.8271-22.7604 53.8271-20.4687L48.7646-20.4687C48.7646-22.9687 49.301-24.9896 50.374-26.5312 51.4469-28.0729 52.926-29.1979 54.8115-29.9062 56.6969-30.6146 58.8583-30.9687 61.2958-30.9687 62.8583-30.9687 64.3531-30.8229 65.7802-30.5312 67.2073-30.2396 68.4885-29.7083 69.624-28.9375 70.7594-28.1667 71.6604-27.0885 72.3271-25.7031 72.9937-24.3177 73.3271-22.5312 73.3271-20.3437L73.3271 0 68.4521 0 68.2333-4.625C66.8375-3.0625 65.2177-1.80729 63.374-0.859375 61.5302 0.0885416 59.3792 0.5625 56.9208 0.5625ZM58.2958-3.4375C60.3792-3.4375 62.2542-3.92708 63.9208-4.90625 65.5875-5.88542 66.9833-7.125 68.1083-8.625L68.1083-14.8125C62.5667-14.75 58.5927-14.2292 56.1865-13.25 53.7802-12.2708 52.5771-10.6667 52.5771-8.4375 52.5771-6.91667 53.0615-5.70312 54.0302-4.79687 54.999-3.89062 56.4208-3.4375 58.2958-3.4375ZM93.0354 0C90.5771 0 88.6917-0.390625 87.3792-1.17187 86.0667-1.95312 85.1656-3.07812 84.676-4.54687 84.1865-6.01562 83.9417-7.78125 83.9417-9.84375L83.9417-26.2187 78.8479-26.2187 78.8479-30.4375 83.9417-30.4375 83.9417-37.4062 89.1292-37.4062 89.1292-30.4375 96.6292-30.4375 96.6292-26.2187 89.1292-26.2187 89.1292-10.0937C89.1292-8.19792 89.374-6.74479 89.8635-5.73437 90.3531-4.72396 91.525-4.21875 93.3792-4.21875L96.6917-4.21875 96.6917 0ZM111.096 0.5625C109.346 0.5625 107.747 0.229167 106.299-0.4375 104.851-1.10417 103.695-2.08854 102.83-3.39062 101.966-4.69271 101.533-6.30208 101.533-8.21875 101.533-10.9479 102.387-13.0208 104.096-14.4375 105.804-15.8542 108.221-16.8177 111.346-17.3281 114.471-17.8385 118.127-18.1146 122.315-18.1562L122.315-20.2812C122.315-22.8854 121.669-24.6719 120.377-25.6406 119.085-26.6094 117.45-27.0937 115.471-27.0937 113.367-27.0937 111.596-26.5625 110.158-25.5 108.721-24.4375 108.002-22.7604 108.002-20.4687L102.94-20.4687C102.94-22.9687 103.476-24.9896 104.549-26.5312 105.622-28.0729 107.101-29.1979 108.986-29.9062 110.872-30.6146 113.033-30.9687 115.471-30.9687 117.033-30.9687 118.528-30.8229 119.955-30.5312 121.382-30.2396 122.664-29.7083 123.799-28.9375 124.934-28.1667 125.835-27.0885 126.502-25.7031 127.169-24.3177 127.502-22.5312 127.502-20.3437L127.502 0 122.627 0 122.408-4.625C121.012-3.0625 119.393-1.80729 117.549-0.859375 115.705 0.0885416 113.554 0.5625 111.096 0.5625ZM112.471-3.4375C114.554-3.4375 116.429-3.92708 118.096-4.90625 119.762-5.88542 121.158-7.125 122.283-8.625L122.283-14.8125C116.742-14.75 112.768-14.2292 110.361-13.25 107.955-12.2708 106.752-10.6667 106.752-8.4375 106.752-6.91667 107.236-5.70312 108.205-4.79687 109.174-3.89062 110.596-3.4375 112.471-3.4375Z" transform="matrix(1 0 0 1 143.356 99)"/><path d="M15.8125 0.5625C14.1042 0.5625 12.4844 0.375 10.9531 0 9.42187-0.375 8.07292-0.96875 6.90625-1.78125 5.73958-2.59375 4.82812-3.66146 4.17187-4.98437 3.51562-6.30729 3.1875-7.90625 3.1875-9.78125L8.21875-9.78125C8.21875-7.40625 8.95312-5.73437 10.4219-4.76562 11.8906-3.79687 13.7292-3.3125 15.9375-3.3125 17.9167-3.3125 19.5469-3.69271 20.8281-4.45312 22.1094-5.21354 22.75-6.46875 22.75-8.21875 22.75-9.71875 22.1719-10.8333 21.0156-11.5625 19.8594-12.2917 17.8229-13 14.9062-13.6875 12.5312-14.25 10.5312-14.901 8.90625-15.6406 7.28125-16.3802 6.0625-17.3177 5.25-18.4531 4.4375-19.5885 4.03125-21.0208 4.03125-22.75 4.03125-24.1042 4.31771-25.2969 4.89062-26.3281 5.46354-27.3594 6.26562-28.2187 7.29687-28.9062 8.32812-29.5937 9.54167-30.1094 10.9375-30.4531 12.3333-30.7969 13.8437-30.9687 15.4687-30.9687 17.0729-30.9687 18.5781-30.7812 19.9844-30.4062 21.3906-30.0312 22.6302-29.4479 23.7031-28.6562 24.776-27.8646 25.625-26.8437 26.25-25.5937 26.875-24.3437 27.1875-22.8437 27.1875-21.0937L22.125-21.0937C22.125-23.2604 21.4792-24.7917 20.1875-25.6875 18.8958-26.5833 17.3229-27.0312 15.4687-27.0312 13.5937-27.0312 12.0729-26.6979 10.9062-26.0312 9.73958-25.3646 9.15625-24.3229 9.15625-22.9062 9.15625-22.0937 9.41667-21.4062 9.9375-20.8437 10.4583-20.2812 11.3333-19.776 12.5625-19.3281 13.7917-18.8802 15.4479-18.4062 17.5312-17.9062 19.8021-17.3646 21.7083-16.7187 23.25-15.9687 24.7917-15.2187 25.9531-14.2552 26.7344-13.0781 27.5156-11.901 27.9062-10.3958 27.9062-8.5625 27.9062-6.97917 27.599-5.60937 26.9844-4.45312 26.3698-3.29687 25.5156-2.34896 24.4219-1.60937 23.3281-0.869792 22.0469-0.322917 20.5781 0.03125 19.1094 0.385417 17.5208 0.5625 15.8125 0.5625ZM45.7583 0C43.3 0 41.4146-0.390625 40.1021-1.17187 38.7896-1.95312 37.8885-3.07812 37.399-4.54687 36.9094-6.01562 36.6646-7.78125 36.6646-9.84375L36.6646-26.2187 31.5708-26.2187 31.5708-30.4375 36.6646-30.4375 36.6646-37.4062 41.8521-37.4062 41.8521-30.4375 49.3521-30.4375 49.3521-26.2187 41.8521-26.2187 41.8521-10.0937C41.8521-8.19792 42.0969-6.74479 42.5865-5.73437 43.076-4.72396 44.2479-4.21875 46.1021-4.21875L49.4146-4.21875 49.4146 0ZM56.2271 0 56.2271-30.4375 61.1333-30.4375 61.3208-25.25C62.175-26.8333 63.3625-28.1562 64.8833-29.2187 66.4042-30.2812 68.3833-30.8125 70.8208-30.8125L71.4458-30.8125 71.4458-26.0312 70.7271-26.0312C69.2062-26.0312 67.8729-25.8333 66.7271-25.4375 65.5812-25.0417 64.5812-24.4948 63.7271-23.7969 62.8729-23.099 62.1125-22.2917 61.4458-21.375L61.4458 0ZM87.0812 0.46875C83.5604 0.46875 81.0187-0.510417 79.4562-2.46875 77.8937-4.42708 77.1125-7.125 77.1125-10.5625L77.1125-30.4375 82.3625-30.4375 82.3625-11.2812C82.3625-9.90625 82.5187-8.67708 82.8312-7.59375 83.1437-6.51042 83.7375-5.66667 84.6125-5.0625 85.4875-4.45833 86.7479-4.15625 88.3937-4.15625 90.6854-4.15625 92.6021-4.63021 94.1437-5.57812 95.6854-6.52604 96.925-7.625 97.8625-8.875L97.8625-30.4375 103.112-30.4375 103.112 0 98.0812 0 97.925-4.6875C96.9458-3.47917 95.5656-2.31771 93.7844-1.20312 92.0031-0.0885417 89.7687 0.46875 87.0812 0.46875ZM125.894 0.53125C123.144 0.53125 120.706-0.046875 118.581-1.20312 116.456-2.35937 114.795-4.09896 113.597-6.42187 112.399-8.74479 111.8-11.6562 111.8-15.1562 111.8-18.6562 112.389-21.5781 113.566-23.9219 114.743-26.2656 116.389-28.026 118.503-29.2031 120.618-30.3802 123.081-30.9687 125.894-30.9687 128.248-30.9687 130.368-30.5833 132.253-29.8125 134.139-29.0417 135.644-27.8802 136.769-26.3281 137.894-24.776 138.487-22.8125 138.55-20.4375L133.394-20.4375C133.269-22.3958 132.56-23.9375 131.269-25.0625 129.977-26.1875 128.217-26.75 125.987-26.75 123.029-26.75 120.821-25.7344 119.362-23.7031 117.904-21.6719 117.175-18.8229 117.175-15.1562 117.175-12.7187 117.498-10.651 118.144-8.95312 118.79-7.25521 119.769-5.95312 121.081-5.04687 122.394-4.14062 124.029-3.6875 125.987-3.6875 128.217-3.6875 130.029-4.26562 131.425-5.42187 132.821-6.57812 133.55-8.27083 133.612-10.5L138.769-10.5C138.706-8.04167 138.107-5.99479 136.972-4.35937 135.836-2.72396 134.305-1.5 132.378-0.6875 130.451 0.125 128.29 0.53125 125.894 0.53125ZM157.477 0C155.019 0 153.133-0.390625 151.821-1.17187 150.508-1.95312 149.607-3.07812 149.118-4.54687 148.628-6.01562 148.383-7.78125 148.383-9.84375L148.383-26.2187 143.29-26.2187 143.29-30.4375 148.383-30.4375 148.383-37.4062 153.571-37.4062 153.571-30.4375 161.071-30.4375 161.071-26.2187 153.571-26.2187 153.571-10.0937C153.571-8.19792 153.816-6.74479 154.305-5.73437 154.795-4.72396 155.967-4.21875 157.821-4.21875L161.133-4.21875 161.133 0ZM177.602 0.46875C174.081 0.46875 171.54-0.510417 169.977-2.46875 168.415-4.42708 167.633-7.125 167.633-10.5625L167.633-30.4375 172.883-30.4375 172.883-11.2812C172.883-9.90625 173.04-8.67708 173.352-7.59375 173.665-6.51042 174.258-5.66667 175.133-5.0625 176.008-4.45833 177.269-4.15625 178.915-4.15625 181.206-4.15625 183.123-4.63021 184.665-5.57812 186.206-6.52604 187.446-7.625 188.383-8.875L188.383-30.4375 193.633-30.4375 193.633 0 188.602 0 188.446-4.6875C187.467-3.47917 186.086-2.31771 184.305-1.20312 182.524-0.0885417 180.29 0.46875 177.602 0.46875ZM204.04 0 204.04-30.4375 208.946-30.4375 209.133-25.25C209.987-26.8333 211.175-28.1562 212.696-29.2187 214.217-30.2812 216.196-30.8125 218.633-30.8125L219.258-30.8125 219.258-26.0312 218.54-26.0312C217.019-26.0312 215.685-25.8333 214.54-25.4375 213.394-25.0417 212.394-24.4948 211.54-23.7969 210.685-23.099 209.925-22.2917 209.258-21.375L209.258 0ZM225.237 0 225.237-30.4375 230.456-30.4375 230.456 0ZM227.831-36.1562C226.852-36.1562 226.066-36.4427 225.472-37.0156 224.878-37.5885 224.581-38.3125 224.581-39.1875 224.581-40.0625 224.878-40.7865 225.472-41.3594 226.066-41.9323 226.852-42.2187 227.831-42.2187 228.81-42.2187 229.602-41.9323 230.206-41.3594 230.81-40.7865 231.112-40.0625 231.112-39.1875 231.112-38.3125 230.81-37.5885 230.206-37.0156 229.602-36.4427 228.81-36.1562 227.831-36.1562ZM240.706 0 240.706-30.4375 245.706-30.4375 245.894-25.75C246.831-26.9792 248.175-28.1406 249.925-29.2344 251.675-30.3281 253.915-30.875 256.644-30.875 259.977-30.875 262.404-29.8906 263.925-27.9219 265.446-25.9531 266.206-23.1875 266.206-19.625L266.206 0 260.987 0 260.987-18.875C260.987-20.3542 260.831-21.6667 260.519-22.8125 260.206-23.9583 259.649-24.8594 258.847-25.5156 258.045-26.1719 256.883-26.5 255.362-26.5 253.092-26.5 251.185-25.9844 249.644-24.9531 248.102-23.9219 246.862-22.7917 245.925-21.5625L245.925 0ZM286.821 11.7812C283.529 11.7812 280.899 11.4062 278.93 10.6562 276.961 9.90625 275.54 8.90625 274.665 7.65625 273.79 6.40625 273.352 5.05208 273.352 3.59375 273.352 1.82292 274.107 0.25 275.618-1.125 277.128-2.5 279.456-3.46875 282.602-4.03125L283.602-5.75 287.446-5.75C292.446-5.75 296.019-5.08854 298.165-3.76562 300.31-2.44271 301.383-0.395833 301.383 2.375 301.383 5.125 300.159 7.38021 297.711 9.14062 295.264 10.901 291.633 11.7812 286.821 11.7812ZM286.696 8C290.237 8 292.732 7.5 294.18 6.5 295.628 5.5 296.352 4.26042 296.352 2.78125 296.352 1.90625 296.107 1.15104 295.618 0.515625 295.128-0.119792 294.222-0.614583 292.899-0.96875 291.576-1.32292 289.696-1.5 287.258-1.5L282.633-1.5C281.217-1.14583 280.123-0.541667 279.352 0.3125 278.581 1.16667 278.196 2.15625 278.196 3.28125 278.196 4.53125 278.852 5.63021 280.165 6.57812 281.477 7.52604 283.654 8 286.696 8ZM282.54-1.78125C280.56-1.98958 279.003-2.40104 277.868-3.01562 276.732-3.63021 275.925-4.31771 275.446-5.07812 274.967-5.83854 274.727-6.57292 274.727-7.28125 274.727-8.30208 275.139-9.26562 275.961-10.1719 276.784-11.0781 278.133-11.8229 280.008-12.4062L282.602-10.7812C281.498-10.4687 280.623-10.0677 279.977-9.57812 279.331-9.08854 279.008-8.54167 279.008-7.9375 279.008-7.52083 279.201-7.15104 279.586-6.82812 279.972-6.50521 280.628-6.24479 281.555-6.04687 282.482-5.84896 283.769-5.75 285.415-5.75ZM286.446-9.84375C283.946-9.84375 281.826-10.3281 280.086-11.2969 278.347-12.2656 277.029-13.5365 276.133-15.1094 275.237-16.6823 274.79-18.3854 274.79-20.2187 274.79-22.1562 275.243-23.9167 276.149-25.5 277.055-27.0833 278.389-28.3437 280.149-29.2812 281.909-30.2187 284.06-30.6875 286.602-30.6875 289.206-30.6875 291.373-30.2187 293.102-29.2812 294.831-28.3437 296.123-27.0833 296.977-25.5 297.831-23.9167 298.258-22.1562 298.258-20.2187 298.258-18.3437 297.826-16.6198 296.961-15.0469 296.097-13.474 294.79-12.2135 293.04-11.2656 291.29-10.3177 289.092-9.84375 286.446-9.84375ZM286.415-13.4062C288.415-13.4062 290.066-13.9792 291.368-15.125 292.67-16.2708 293.321-17.9687 293.321-20.2187 293.321-22.5729 292.706-24.3177 291.477-25.4531 290.248-26.5885 288.623-27.1562 286.602-27.1562 284.623-27.1562 282.982-26.5729 281.68-25.4062 280.378-24.2396 279.727-22.5208 279.727-20.25 279.727-17.9583 280.399-16.2448 281.743-15.1094 283.086-13.974 284.644-13.4062 286.415-13.4062ZM294.383-27.3437 292.258-29.3125C293.154-31.2708 294.326-32.6042 295.774-33.3125 297.222-34.0208 299.092-34.4062 301.383-34.4687L301.383-30.0625C299.925-30.0625 298.586-29.9115 297.368-29.6094 296.149-29.3073 295.154-28.5521 294.383-27.3437Z" transform="matrix(1 0 0 1 58.5875 176)"/></g></g></g><path d="M1068.5 1136.83C1068.5 1112.9 1087.9 1093.5 1111.83 1093.5L1467.17 1093.5C1491.1 1093.5 1510.5 1112.9 1510.5 1136.83L1510.5 1310.17C1510.5 1334.1 1491.1 1353.5 1467.17 1353.5L1111.83 1353.5C1087.9 1353.5 1068.5 1334.1 1068.5 1310.17Z" stroke="#042433" stroke-width="6.875" stroke-miterlimit="8" fill="#BFBFBF" fill-rule="evenodd"/><text font-family="Aptos,Aptos_MSFontService,sans-serif" font-weight="400" font-size="64" transform="matrix(1 0 0 1 1222.63 1205)">Data </text><text font-family="Aptos,Aptos_MSFontService,sans-serif" font-weight="400" font-size="64" transform="matrix(1 0 0 1 1137.86 1282)">structuring</text><g clip-path="url(#clip13)"><g filter="url(#fx2)" transform="translate(1942 1080)"><g><path d="M23.2228 66.5569C23.2228 42.6241 42.6242 23.2227 66.5571 23.2227L421.889 23.2227C445.821 23.2227 465.223 42.6241 465.223 66.5569L465.223 239.888C465.223 263.821 445.821 283.223 421.889 283.223L66.5571 283.223C42.6242 283.223 23.2228 263.821 23.2228 239.888Z" stroke="#042433" stroke-width="7" stroke-miterlimit="8" fill="#007BFF" fill-rule="evenodd"/></g></g><g clip-path="url(#clip14)" filter="url(#fx3)" transform="translate(1967 1116)"><g><path d="M5.03125 0 5.03125-42.0625 20.6875-42.0625C25.1875-42.0625 29.0365-41.2292 32.2344-39.5625 35.4323-37.8958 37.875-35.5 39.5625-32.375 41.25-29.25 42.0937-25.5 42.0937-21.125 42.0937-16.6042 41.2396-12.7708 39.5312-9.625 37.8229-6.47917 35.3698-4.08854 32.1719-2.45312 28.974-0.817708 25.1458 0 20.6875 0ZM13.8125-7.3125 19.75-7.3125C22.7292-7.3125 25.2031-7.81771 27.1719-8.82812 29.1406-9.83854 30.6146-11.3698 31.5937-13.4219 32.5729-15.474 33.0625-18.0625 33.0625-21.1875 33.0625-24.1667 32.5365-26.6615 31.4844-28.6719 30.4323-30.6823 28.9167-32.1979 26.9375-33.2187 24.9583-34.2396 22.5625-34.75 19.75-34.75L13.8125-34.75ZM57.7812 0.53125C56.0521 0.53125 54.4375 0.197917 52.9375-0.46875 51.4375-1.13542 50.224-2.14062 49.2969-3.48437 48.3698-4.82812 47.9062-6.51042 47.9062-8.53125 47.9062-11.3437 48.75-13.4635 50.4375-14.8906 52.125-16.3177 54.4844-17.2865 57.5156-17.7969 60.5469-18.3073 64.0729-18.6042 68.0937-18.6875L68.0937-20.3125C68.0937-22.2917 67.6198-23.6458 66.6719-24.375 65.724-25.1042 64.5-25.4687 63-25.4687 61.3542-25.4687 60-25.0781 58.9375-24.2969 57.875-23.5156 57.3437-22.25 57.3437-20.5L49.5937-20.5C49.5937-23.1042 50.1615-25.1667 51.2969-26.6875 52.4323-28.2083 54.0052-29.3021 56.0156-29.9687 58.026-30.6354 60.3542-30.9687 63-30.9687 64.9375-30.9687 66.7083-30.8073 68.3125-30.4844 69.9167-30.1615 71.3073-29.6042 72.4844-28.8125 73.6615-28.0208 74.5729-26.9427 75.2187-25.5781 75.8646-24.2135 76.1875-22.5104 76.1875-20.4687L76.1875 0 68.4375 0 68.1875-3.96875C66.8958-2.48958 65.3958-1.36979 63.6875-0.609375 61.9792 0.151042 60.0104 0.53125 57.7812 0.53125ZM60.5-5.15625C62.0625-5.15625 63.5052-5.5625 64.8281-6.375 66.151-7.1875 67.2083-8.11458 68-9.15625L68-14.0937C63.625-14.0729 60.5625-13.6615 58.8125-12.8594 57.0625-12.0573 56.1875-10.7604 56.1875-8.96875 56.1875-7.67708 56.5885-6.71875 57.3906-6.09375 58.1927-5.46875 59.2292-5.15625 60.5-5.15625ZM97.6083 0C94.525 0 92.1344-0.369792 90.4364-1.10937 88.7385-1.84896 87.5562-2.99479 86.8896-4.54687 86.2229-6.09896 85.8896-8.125 85.8896-10.625L85.8896-24.125 80.8271-24.125 80.8271-30.5 85.8896-30.5 85.8896-37.6875 94.1708-37.6875 94.1708-30.5 100.827-30.5 100.827-24.125 94.1708-24.125 94.1708-11.125C94.1708-9.52083 94.3948-8.33333 94.8427-7.5625 95.2906-6.79167 96.3062-6.40625 97.8896-6.40625L100.827-6.40625 100.827 0ZM115.715 0.53125C113.985 0.53125 112.371 0.197917 110.871-0.46875 109.371-1.13542 108.157-2.14062 107.23-3.48437 106.303-4.82812 105.84-6.51042 105.84-8.53125 105.84-11.3437 106.683-13.4635 108.371-14.8906 110.058-16.3177 112.418-17.2865 115.449-17.7969 118.48-18.3073 122.006-18.6042 126.027-18.6875L126.027-20.3125C126.027-22.2917 125.553-23.6458 124.605-24.375 123.657-25.1042 122.433-25.4687 120.933-25.4687 119.287-25.4687 117.933-25.0781 116.871-24.2969 115.808-23.5156 115.277-22.25 115.277-20.5L107.527-20.5C107.527-23.1042 108.095-25.1667 109.23-26.6875 110.366-28.2083 111.939-29.3021 113.949-29.9687 115.959-30.6354 118.287-30.9687 120.933-30.9687 122.871-30.9687 124.642-30.8073 126.246-30.4844 127.85-30.1615 129.241-29.6042 130.418-28.8125 131.595-28.0208 132.506-26.9427 133.152-25.5781 133.798-24.2135 134.121-22.5104 134.121-20.4687L134.121 0 126.371 0 126.121-3.96875C124.829-2.48958 123.329-1.36979 121.621-0.609375 119.912 0.151042 117.944 0.53125 115.715 0.53125ZM118.433-5.15625C119.996-5.15625 121.439-5.5625 122.761-6.375 124.084-7.1875 125.142-8.11458 125.933-9.15625L125.933-14.0937C121.558-14.0729 118.496-13.6615 116.746-12.8594 114.996-12.0573 114.121-10.7604 114.121-8.96875 114.121-7.67708 114.522-6.71875 115.324-6.09375 116.126-5.46875 117.162-5.15625 118.433-5.15625ZM156.1 11.1875 156.1-30.5 163.912-30.5 164.381-25.8437C165.506-27.4896 166.86-28.7552 168.444-29.6406 170.027-30.526 171.902-30.9687 174.069-30.9687 176.444-30.9687 178.553-30.3958 180.397-29.25 182.241-28.1042 183.689-26.3646 184.741-24.0312 185.793-21.6979 186.319-18.7083 186.319-15.0625 186.319-11.5417 185.751-8.63542 184.616-6.34375 183.48-4.05208 181.944-2.33333 180.006-1.1875 178.069-0.0416667 175.892 0.541667 173.475 0.5625 171.496 0.583333 169.73 0.177083 168.178-0.65625 166.626-1.48958 165.36-2.65625 164.381-4.15625L164.381 11.1875ZM171.412-5.78125C173.496-5.78125 175.09-6.58333 176.194-8.1875 177.298-9.79167 177.85-12.1146 177.85-15.1562 177.85-18.3854 177.334-20.7812 176.303-22.3437 175.272-23.9062 173.86-24.6875 172.069-24.6875 170.194-24.6875 168.59-24.1615 167.256-23.1094 165.923-22.0573 164.965-20.9062 164.381-19.6562L164.381-10.6562C165.048-9.32292 165.98-8.17708 167.178-7.21875 168.376-6.26042 169.787-5.78125 171.412-5.78125ZM193.912 0 193.912-30.5 201.85-30.5 202.006-25.2187C202.798-27.0521 203.985-28.4583 205.569-29.4375 207.152-30.4167 209.069-30.9062 211.319-30.9062L211.944-30.9062 211.944-23.9375 211.162-23.9375C209.933-23.9375 208.756-23.8281 207.631-23.6094 206.506-23.3906 205.485-23.0156 204.569-22.4844 203.652-21.9531 202.86-21.2187 202.194-20.2812L202.194 0ZM230.723 0.5625C227.327 0.5625 224.473-0.0677084 222.16-1.32812 219.848-2.58854 218.098-4.40625 216.91-6.78125 215.723-9.15625 215.129-12.0104 215.129-15.3437 215.129-18.5729 215.707-21.3542 216.864-23.6875 218.02-26.0208 219.718-27.8177 221.957-29.0781 224.197-30.3385 226.952-30.9687 230.223-30.9687 234.765-30.9687 238.353-29.6406 240.989-26.9844 243.624-24.3281 244.942-20.5417 244.942-15.625 244.942-15.375 244.931-15.0365 244.91-14.6094 244.89-14.1823 244.858-13.8542 244.817-13.625L223.41-13.625C223.452-12.1875 223.718-10.8437 224.207-9.59375 224.697-8.34375 225.473-7.33854 226.535-6.57812 227.598-5.81771 228.994-5.4375 230.723-5.4375 232.515-5.4375 233.952-5.82812 235.035-6.60937 236.119-7.39062 236.671-8.55208 236.692-10.0937L244.848-10.0937C244.744-7.71875 244.093-5.73958 242.895-4.15625 241.697-2.57292 240.061-1.39062 237.989-0.609375 235.916 0.171875 233.494 0.5625 230.723 0.5625ZM223.504-18.875 236.723-18.875C236.66-21 236.03-22.5885 234.832-23.6406 233.634-24.6927 232.098-25.2187 230.223-25.2187 228.306-25.2187 226.738-24.6771 225.52-23.5937 224.301-22.5104 223.629-20.9375 223.504-18.875Z" transform="matrix(1 0 0 1 83.9656 99)"/><path d="M2.25-11.9062 2.25-18.9375 19.5312-18.9375 19.5312-11.9062Z" transform="matrix(1 0 0 1 331.74 99)"/><path d="M4.4375 11.1875 4.4375-30.5 12.25-30.5 12.7187-25.8437C13.8437-27.4896 15.1979-28.7552 16.7812-29.6406 18.3646-30.526 20.2396-30.9687 22.4062-30.9687 24.7812-30.9687 26.8906-30.3958 28.7344-29.25 30.5781-28.1042 32.026-26.3646 33.0781-24.0312 34.1302-21.6979 34.6562-18.7083 34.6562-15.0625 34.6562-11.5417 34.0885-8.63542 32.9531-6.34375 31.8177-4.05208 30.2812-2.33333 28.3437-1.1875 26.4062-0.0416667 24.2292 0.541667 21.8125 0.5625 19.8333 0.583333 18.0677 0.177083 16.5156-0.65625 14.9635-1.48958 13.6979-2.65625 12.7187-4.15625L12.7187 11.1875ZM19.75-5.78125C21.8333-5.78125 23.4271-6.58333 24.5312-8.1875 25.6354-9.79167 26.1875-12.1146 26.1875-15.1562 26.1875-18.3854 25.6719-20.7812 24.6406-22.3437 23.6094-23.9062 22.1979-24.6875 20.4062-24.6875 18.5312-24.6875 16.9271-24.1615 15.5937-23.1094 14.2604-22.0573 13.3021-20.9062 12.7187-19.6562L12.7187-10.6562C13.3854-9.32292 14.3177-8.17708 15.5156-7.21875 16.7135-6.26042 18.125-5.78125 19.75-5.78125ZM42.25 0 42.25-30.5 50.1875-30.5 50.3437-25.2187C51.1354-27.0521 52.3229-28.4583 53.9062-29.4375 55.4896-30.4167 57.4062-30.9062 59.6562-30.9062L60.2812-30.9062 60.2812-23.9375 59.5-23.9375C58.2708-23.9375 57.0937-23.8281 55.9687-23.6094 54.8437-23.3906 53.8229-23.0156 52.9062-22.4844 51.9896-21.9531 51.1979-21.2187 50.5312-20.2812L50.5312 0ZM78.8729 0.5C75.7896 0.5 73.0864-0.114583 70.7635-1.34375 68.4406-2.57292 66.6437-4.35417 65.3729-6.6875 64.1021-9.02083 63.4667-11.8437 63.4667-15.1562 63.4667-18.5312 64.1021-21.401 65.3729-23.7656 66.6437-26.1302 68.4406-27.9323 70.7635-29.1719 73.0864-30.4115 75.7896-31.0312 78.8729-31.0312 81.9979-31.0312 84.7219-30.4115 87.0448-29.1719 89.3677-27.9323 91.175-26.1302 92.4667-23.7656 93.7583-21.401 94.4042-18.5312 94.4042-15.1562 94.4042-11.8437 93.7583-9.02083 92.4667-6.6875 91.175-4.35417 89.3677-2.57292 87.0448-1.34375 84.7219-0.114583 81.9979 0.5 78.8729 0.5ZM78.8729-5.8125C80.6854-5.8125 82.1073-6.23437 83.1385-7.07812 84.1698-7.92187 84.8989-9.05208 85.326-10.4687 85.7531-11.8854 85.9667-13.4479 85.9667-15.1562 85.9667-16.9062 85.7531-18.5 85.326-19.9375 84.8989-21.375 84.1698-22.5208 83.1385-23.375 82.1073-24.2292 80.6854-24.6562 78.8729-24.6562 77.1021-24.6562 75.7114-24.2292 74.701-23.375 73.6906-22.5208 72.9771-21.375 72.5604-19.9375 72.1437-18.5 71.9354-16.9062 71.9354-15.1562 71.9354-13.4479 72.1437-11.8854 72.5604-10.4687 72.9771-9.05208 73.6906-7.92187 74.701-7.07812 75.7114-6.23437 77.1021-5.8125 78.8729-5.8125ZM115.383 0.4375C112.55 0.4375 109.977-0.104167 107.665-1.1875 105.352-2.27083 103.519-3.95833 102.165-6.25 100.81-8.54167 100.133-11.5 100.133-15.125 100.133-18.75 100.779-21.7292 102.071-24.0625 103.362-26.3958 105.159-28.1302 107.461-29.2656 109.764-30.401 112.404-30.9687 115.383-30.9687 117.967-30.9687 120.3-30.5417 122.383-29.6875 124.467-28.8333 126.123-27.5573 127.352-25.8594 128.581-24.1615 129.206-22.0208 129.227-19.4375L121.196-19.4375C121.154-21 120.633-22.2448 119.633-23.1719 118.633-24.099 117.227-24.5625 115.415-24.5625 113.019-24.5625 111.284-23.7396 110.211-22.0937 109.139-20.4479 108.602-18.125 108.602-15.125 108.602-13.1875 108.836-11.5365 109.305-10.1719 109.774-8.80729 110.514-7.76562 111.524-7.04687 112.534-6.32812 113.831-5.96875 115.415-5.96875 117.269-5.96875 118.732-6.47396 119.805-7.48437 120.878-8.49479 121.435-9.92708 121.477-11.7812L129.508-11.7812C129.446-9.13542 128.805-6.90625 127.586-5.09375 126.368-3.28125 124.706-1.90625 122.602-0.96875 120.498-0.03125 118.092 0.4375 115.383 0.4375ZM150.675 0.5625C147.279 0.5625 144.425-0.0677084 142.112-1.32812 139.8-2.58854 138.05-4.40625 136.862-6.78125 135.675-9.15625 135.081-12.0104 135.081-15.3437 135.081-18.5729 135.659-21.3542 136.816-23.6875 137.972-26.0208 139.67-27.8177 141.909-29.0781 144.149-30.3385 146.904-30.9687 150.175-30.9687 154.717-30.9687 158.305-29.6406 160.941-26.9844 163.576-24.3281 164.894-20.5417 164.894-15.625 164.894-15.375 164.883-15.0365 164.862-14.6094 164.842-14.1823 164.81-13.8542 164.769-13.625L143.362-13.625C143.404-12.1875 143.67-10.8437 144.159-9.59375 144.649-8.34375 145.425-7.33854 146.487-6.57812 147.55-5.81771 148.946-5.4375 150.675-5.4375 152.467-5.4375 153.904-5.82812 154.987-6.60937 156.071-7.39062 156.623-8.55208 156.644-10.0937L164.8-10.0937C164.696-7.71875 164.045-5.73958 162.847-4.15625 161.649-2.57292 160.014-1.39062 157.941-0.609375 155.868 0.171875 153.446 0.5625 150.675 0.5625ZM143.456-18.875 156.675-18.875C156.612-21 155.982-22.5885 154.784-23.6406 153.586-24.6927 152.05-25.2187 150.175-25.2187 148.258-25.2187 146.691-24.6771 145.472-23.5937 144.253-22.5104 143.581-20.9375 143.456-18.875ZM184.415 0.5625C182.727 0.5625 181.071 0.40625 179.446 0.09375 177.821-0.21875 176.352-0.755208 175.04-1.51562 173.727-2.27604 172.685-3.3125 171.915-4.625 171.144-5.9375 170.758-7.57292 170.758-9.53125L178.446-9.53125C178.446-7.82292 179.045-6.63542 180.243-5.96875 181.441-5.30208 182.842-4.96875 184.446-4.96875 186.029-4.96875 187.258-5.22396 188.133-5.73437 189.008-6.24479 189.446-7.10417 189.446-8.3125 189.446-9.45833 188.93-10.3125 187.899-10.875 186.868-11.4375 185.06-12.0104 182.477-12.5937 180.31-13.1146 178.378-13.7448 176.68-14.4844 174.982-15.224 173.654-16.2135 172.696-17.4531 171.737-18.6927 171.258-20.3229 171.258-22.3437 171.258-23.9271 171.623-25.2708 172.352-26.375 173.081-27.4792 174.055-28.3698 175.274-29.0469 176.493-29.724 177.868-30.2187 179.399-30.5312 180.93-30.8437 182.498-31 184.102-31 185.665-31 187.196-30.8437 188.696-30.5312 190.196-30.2187 191.55-29.6927 192.758-28.9531 193.967-28.2135 194.935-27.2187 195.665-25.9687 196.394-24.7187 196.758-23.1562 196.758-21.2812L189.071-21.2812C189.071-22.8437 188.576-23.9271 187.586-24.5312 186.597-25.1354 185.435-25.4375 184.102-25.4375 182.665-25.4375 181.534-25.2292 180.711-24.8125 179.889-24.3958 179.477-23.7083 179.477-22.75 179.477-22.1875 179.737-21.6927 180.258-21.2656 180.779-20.8385 181.612-20.4427 182.758-20.0781 183.904-19.7135 185.415-19.3229 187.29-18.9062 189.269-18.4479 191.04-17.8542 192.602-17.125 194.165-16.3958 195.404-15.4167 196.321-14.1875 197.237-12.9583 197.696-11.3646 197.696-9.40625 197.696-7.57292 197.326-6.02083 196.586-4.75 195.847-3.47917 194.857-2.45312 193.618-1.67187 192.378-0.890625 190.961-0.322917 189.368 0.03125 187.774 0.385417 186.123 0.5625 184.415 0.5625ZM217.644 0.5625C215.956 0.5625 214.3 0.40625 212.675 0.09375 211.05-0.21875 209.581-0.755208 208.269-1.51562 206.956-2.27604 205.915-3.3125 205.144-4.625 204.373-5.9375 203.987-7.57292 203.987-9.53125L211.675-9.53125C211.675-7.82292 212.274-6.63542 213.472-5.96875 214.67-5.30208 216.071-4.96875 217.675-4.96875 219.258-4.96875 220.487-5.22396 221.362-5.73437 222.237-6.24479 222.675-7.10417 222.675-8.3125 222.675-9.45833 222.159-10.3125 221.128-10.875 220.097-11.4375 218.29-12.0104 215.706-12.5937 213.54-13.1146 211.607-13.7448 209.909-14.4844 208.211-15.224 206.883-16.2135 205.925-17.4531 204.967-18.6927 204.487-20.3229 204.487-22.3437 204.487-23.9271 204.852-25.2708 205.581-26.375 206.31-27.4792 207.284-28.3698 208.503-29.0469 209.722-29.724 211.097-30.2187 212.628-30.5312 214.159-30.8437 215.727-31 217.331-31 218.894-31 220.425-30.8437 221.925-30.5312 223.425-30.2187 224.779-29.6927 225.987-28.9531 227.196-28.2135 228.165-27.2187 228.894-25.9687 229.623-24.7187 229.987-23.1562 229.987-21.2812L222.3-21.2812C222.3-22.8437 221.805-23.9271 220.816-24.5312 219.826-25.1354 218.665-25.4375 217.331-25.4375 215.894-25.4375 214.764-25.2292 213.941-24.8125 213.118-24.3958 212.706-23.7083 212.706-22.75 212.706-22.1875 212.967-21.6927 213.487-21.2656 214.008-20.8385 214.842-20.4427 215.987-20.0781 217.133-19.7135 218.644-19.3229 220.519-18.9062 222.498-18.4479 224.269-17.8542 225.831-17.125 227.394-16.3958 228.633-15.4167 229.55-14.1875 230.467-12.9583 230.925-11.3646 230.925-9.40625 230.925-7.57292 230.555-6.02083 229.816-4.75 229.076-3.47917 228.086-2.45312 226.847-1.67187 225.607-0.890625 224.191-0.322917 222.597 0.03125 221.003 0.385417 219.352 0.5625 217.644 0.5625ZM238.623 0 238.623-30.5 246.904-30.5 246.904 0ZM242.779-34.5C241.258-34.5 240.097-34.8854 239.295-35.6562 238.493-36.4271 238.092-37.3854 238.092-38.5312 238.092-39.6979 238.493-40.6615 239.295-41.4219 240.097-42.1823 241.258-42.5625 242.779-42.5625 244.3-42.5625 245.461-42.1823 246.264-41.4219 247.066-40.6615 247.467-39.6979 247.467-38.5312 247.467-37.3854 247.066-36.4271 246.264-35.6562 245.461-34.8854 244.3-34.5 242.779-34.5ZM255.81 0 255.81-30.5 263.779-30.5 263.935-25.9375C264.956-27.25 266.3-28.4115 267.967-29.4219 269.633-30.4323 271.8-30.9375 274.467-30.9375 277.571-30.9375 279.977-29.9948 281.685-28.1094 283.394-26.224 284.248-23.4687 284.248-19.8437L284.248 0 276.029 0 276.029-18.7812C276.029-19.8854 275.873-20.8542 275.56-21.6875 275.248-22.5208 274.753-23.1667 274.076-23.625 273.399-24.0833 272.508-24.3125 271.404-24.3125 269.758-24.3125 268.347-23.9271 267.17-23.1562 265.993-22.3854 264.967-21.4479 264.092-20.3437L264.092 0ZM305.05 11.7812C301.404 11.7812 298.508 11.4062 296.362 10.6562 294.217 9.90625 292.675 8.92187 291.737 7.70312 290.8 6.48437 290.331 5.16667 290.331 3.75 290.331 2.02083 291.154 0.505208 292.8-0.796875 294.446-2.09896 297.05-3.01042 300.612-3.53125L301.987-6.46875 306.112-6.46875C311.175-6.46875 314.868-5.77083 317.191-4.375 319.514-2.97917 320.675-0.84375 320.675 2.03125 320.675 4.94792 319.342 7.30208 316.675 9.09375 314.008 10.8854 310.133 11.7812 305.05 11.7812ZM304.925 6.59375C307.717 6.59375 309.685 6.22917 310.831 5.5 311.977 4.77083 312.55 3.88542 312.55 2.84375 312.55 2.17708 312.352 1.61458 311.956 1.15625 311.56 0.697917 310.904 0.34375 309.987 0.09375 309.071-0.15625 307.852-0.28125 306.331-0.28125L300.769-0.28125C299.956 0.03125 299.295 0.473958 298.784 1.04687 298.274 1.61979 298.019 2.28125 298.019 3.03125 298.019 3.90625 298.56 4.71875 299.644 5.46875 300.727 6.21875 302.487 6.59375 304.925 6.59375ZM300.737-0.6875C298.55-0.9375 296.779-1.38021 295.425-2.01562 294.071-2.65104 293.081-3.38542 292.456-4.21875 291.831-5.05208 291.519-5.875 291.519-6.6875 291.519-7.95833 292.003-9.03646 292.972-9.92187 293.941-10.8073 295.404-11.5833 297.362-12.25L301.675-10.6875C300.55-10.4167 299.612-10.0885 298.862-9.70312 298.112-9.31771 297.737-8.84375 297.737-8.28125 297.737-7.88542 297.961-7.55208 298.409-7.28125 298.857-7.01042 299.639-6.80729 300.753-6.67187 301.868-6.53646 303.404-6.46875 305.362-6.46875ZM304.487-9.71875C301.737-9.71875 299.394-10.2083 297.456-11.1875 295.519-12.1667 294.05-13.4583 293.05-15.0625 292.05-16.6667 291.55-18.3958 291.55-20.25 291.55-22.2292 292.055-24.0156 293.066-25.6094 294.076-27.2031 295.56-28.4792 297.519-29.4375 299.477-30.3958 301.862-30.875 304.675-30.875 307.571-30.875 309.972-30.3958 311.878-29.4375 313.784-28.4792 315.211-27.2031 316.159-25.6094 317.107-24.0156 317.581-22.2292 317.581-20.25 317.581-18.3542 317.097-16.6042 316.128-15 315.159-13.3958 313.711-12.1146 311.784-11.1562 309.857-10.1979 307.425-9.71875 304.487-9.71875ZM304.487-14.6875C306.029-14.6875 307.316-15.1615 308.347-16.1094 309.378-17.0573 309.894-18.4375 309.894-20.25 309.894-22.1667 309.415-23.5937 308.456-24.5312 307.498-25.4687 306.248-25.9375 304.706-25.9375 303.144-25.9375 301.852-25.4531 300.831-24.4844 299.81-23.5156 299.3-22.1042 299.3-20.25 299.3-18.4167 299.826-17.0312 300.878-16.0937 301.93-15.1562 303.133-14.6875 304.487-14.6875ZM313.206-26.25 310.769-29.3437C311.581-31.5104 312.836-32.9896 314.534-33.7812 316.232-34.5729 318.279-34.9792 320.675-35L320.675-28.9687C319.05-28.9687 317.566-28.8177 316.222-28.5156 314.878-28.2135 313.873-27.4583 313.206-26.25Z" transform="matrix(1 0 0 1 58.1155 176)"/></g></g></g><path d="M1955.5 1136.83C1955.5 1112.9 1974.9 1093.5 1998.83 1093.5L2354.17 1093.5C2378.1 1093.5 2397.5 1112.9 2397.5 1136.83L2397.5 1310.17C2397.5 1334.1 2378.1 1353.5 2354.17 1353.5L1998.83 1353.5C1974.9 1353.5 1955.5 1334.1 1955.5 1310.17Z" stroke="#042433" stroke-width="6.875" stroke-miterlimit="8" fill="#007BFF" fill-rule="evenodd"/><text font-family="Aptos,Aptos_MSFontService,sans-serif" font-weight="700" font-size="64" transform="matrix(1 0 0 1 2041.24 1205)">Data pre</text><text font-family="Aptos,Aptos_MSFontService,sans-serif" font-weight="700" font-size="64" transform="matrix(1 0 0 1 2289.02 1205)">-</text><text font-family="Aptos,Aptos_MSFontService,sans-serif" font-weight="700" font-size="64" transform="matrix(1 0 0 1 2015.39 1282)">processing</text><g clip-path="url(#clip15)"><g filter="url(#fx4)" transform="translate(2833 1080)"><g><path d="M23.2229 66.5567C23.2229 42.624 42.6242 23.2227 66.5569 23.2227L433.889 23.2227C457.821 23.2227 477.223 42.624 477.223 66.5567L477.223 239.888C477.223 263.821 457.821 283.223 433.889 283.223L66.5569 283.223C42.6242 283.223 23.2229 263.821 23.2229 239.888Z" stroke="#042433" stroke-width="7" stroke-miterlimit="8" fill="#BFBFBF" fill-rule="evenodd"/></g></g><g clip-path="url(#clip16)" filter="url(#fx5)" transform="translate(2841 1116)"><g><path d="M12.5312 0 12.5312-37.3437 0.5625-37.3437 0.5625-42.0625 30.0625-42.0625 30.0625-37.3437 18.125-37.3437 18.125 0ZM38.9771 0.5625C37.2271 0.5625 35.6281 0.229167 34.1802-0.4375 32.7323-1.10417 31.576-2.08854 30.7115-3.39062 29.8469-4.69271 29.4146-6.30208 29.4146-8.21875 29.4146-10.9479 30.2687-13.0208 31.9771-14.4375 33.6854-15.8542 36.1021-16.8177 39.2271-17.3281 42.3521-17.8385 46.0083-18.1146 50.1958-18.1562L50.1958-20.2812C50.1958-22.8854 49.55-24.6719 48.2583-25.6406 46.9667-26.6094 45.3312-27.0937 43.3521-27.0937 41.2479-27.0937 39.4771-26.5625 38.0396-25.5 36.6021-24.4375 35.8833-22.7604 35.8833-20.4687L30.8208-20.4687C30.8208-22.9687 31.3573-24.9896 32.4302-26.5312 33.5031-28.0729 34.9823-29.1979 36.8677-29.9062 38.7531-30.6146 40.9146-30.9687 43.3521-30.9687 44.9146-30.9687 46.4094-30.8229 47.8365-30.5312 49.2635-30.2396 50.5448-29.7083 51.6802-28.9375 52.8156-28.1667 53.7167-27.0885 54.3833-25.7031 55.05-24.3177 55.3833-22.5312 55.3833-20.3437L55.3833 0 50.5083 0 50.2896-4.625C48.8937-3.0625 47.274-1.80729 45.4302-0.859375 43.5865 0.0885416 41.4354 0.5625 38.9771 0.5625ZM40.3521-3.4375C42.4354-3.4375 44.3104-3.92708 45.9771-4.90625 47.6437-5.88542 49.0396-7.125 50.1646-8.625L50.1646-14.8125C44.6229-14.75 40.649-14.2292 38.2427-13.25 35.8365-12.2708 34.6333-10.6667 34.6333-8.4375 34.6333-6.91667 35.1177-5.70312 36.0865-4.79687 37.0552-3.89062 38.4771-3.4375 40.3521-3.4375ZM76.2896 0.5625C74.5812 0.5625 72.9614 0.375 71.4302 0 69.8989-0.375 68.55-0.96875 67.3833-1.78125 66.2167-2.59375 65.3052-3.66146 64.6489-4.98437 63.9927-6.30729 63.6646-7.90625 63.6646-9.78125L68.6958-9.78125C68.6958-7.40625 69.4302-5.73437 70.8989-4.76562 72.3677-3.79687 74.2062-3.3125 76.4146-3.3125 78.3937-3.3125 80.0239-3.69271 81.3052-4.45312 82.5864-5.21354 83.2271-6.46875 83.2271-8.21875 83.2271-9.71875 82.6489-10.8333 81.4927-11.5625 80.3364-12.2917 78.3-13 75.3833-13.6875 73.0083-14.25 71.0083-14.901 69.3833-15.6406 67.7583-16.3802 66.5396-17.3177 65.7271-18.4531 64.9146-19.5885 64.5083-21.0208 64.5083-22.75 64.5083-24.1042 64.7948-25.2969 65.3677-26.3281 65.9406-27.3594 66.7427-28.2187 67.7739-28.9062 68.8052-29.5937 70.0187-30.1094 71.4146-30.4531 72.8104-30.7969 74.3208-30.9687 75.9458-30.9687 77.55-30.9687 79.0552-30.7812 80.4614-30.4062 81.8677-30.0312 83.1073-29.4479 84.1802-28.6562 85.2531-27.8646 86.1021-26.8437 86.7271-25.5937 87.3521-24.3437 87.6646-22.8437 87.6646-21.0937L82.6021-21.0937C82.6021-23.2604 81.9562-24.7917 80.6646-25.6875 79.3729-26.5833 77.8-27.0312 75.9458-27.0312 74.0708-27.0312 72.55-26.6979 71.3833-26.0312 70.2167-25.3646 69.6333-24.3229 69.6333-22.9062 69.6333-22.0937 69.8937-21.4062 70.4146-20.8437 70.9354-20.2812 71.8104-19.776 73.0396-19.3281 74.2687-18.8802 75.925-18.4062 78.0083-17.9062 80.2792-17.3646 82.1854-16.7187 83.7271-15.9687 85.2687-15.2187 86.4302-14.2552 87.2114-13.0781 87.9927-11.901 88.3833-10.3958 88.3833-8.5625 88.3833-6.97917 88.076-5.60937 87.4614-4.45312 86.8469-3.29687 85.9927-2.34896 84.8989-1.60937 83.8052-0.869792 82.5239-0.322917 81.0552 0.03125 79.5864 0.385417 77.9979 0.5625 76.2896 0.5625ZM96.4458 0 96.4458-42.0625 101.665-42.0625 101.665-16.0937 115.415-30.4375 121.571-30.4375 107.821-16.1875 122.821 0 116.321 0 101.665-15.8125 101.665 0Z" transform="matrix(1 0 0 1 180.386 99)"/><path d="M5.03125 0 5.03125-30.4375 10.25-30.4375 10.25 0ZM7.625-36.1562C6.64583-36.1562 5.85937-36.4427 5.26562-37.0156 4.67187-37.5885 4.375-38.3125 4.375-39.1875 4.375-40.0625 4.67187-40.7865 5.26562-41.3594 5.85937-41.9323 6.64583-42.2187 7.625-42.2187 8.60417-42.2187 9.39583-41.9323 10-41.3594 10.6042-40.7865 10.9062-40.0625 10.9062-39.1875 10.9062-38.3125 10.6042-37.5885 10-37.0156 9.39583-36.4427 8.60417-36.1562 7.625-36.1562ZM30.9062 0.5625C28.4271 0.5625 26.2812-0.03125 24.4687-1.21875 22.6562-2.40625 21.2552-4.18229 20.2656-6.54687 19.276-8.91146 18.7812-11.8333 18.7812-15.3125 18.7812-18.7708 19.3073-21.6562 20.3594-23.9687 21.4115-26.2812 22.8958-28.026 24.8125-29.2031 26.7292-30.3802 28.9896-30.9687 31.5937-30.9687 33.7604-30.9687 35.6458-30.4948 37.25-29.5469 38.8542-28.599 40.1458-27.3125 41.125-25.6875L41.125-42.0625 46.3437-42.0625 46.3437 0 41.4062 0 41.125-4.4375C40.0417-2.95833 38.6458-1.75521 36.9375-0.828125 35.2292 0.0989583 33.2187 0.5625 30.9062 0.5625ZM31.9687-3.71875C34.1979-3.71875 36.0521-4.24479 37.5312-5.29687 39.0104-6.34896 40.2083-7.61458 41.125-9.09375L41.125-20.8125C40.2708-22.5208 39.151-23.9323 37.7656-25.0469 36.3802-26.1615 34.6354-26.7187 32.5312-26.7187 29.7604-26.7187 27.6719-25.7292 26.2656-23.75 24.8594-21.7708 24.1562-18.9583 24.1562-15.3125 24.1562-11.5417 24.8177-8.66667 26.1406-6.6875 27.4635-4.70833 29.4062-3.71875 31.9687-3.71875ZM69.25 0.5625C65.9375 0.5625 63.224-0.130208 61.1094-1.51562 58.9948-2.90104 57.4271-4.78646 56.4062-7.17187 55.3854-9.55729 54.875-12.2396 54.875-15.2187 54.875-18.3229 55.3698-21.0573 56.3594-23.4219 57.349-25.7865 58.8594-27.6354 60.8906-28.9687 62.9219-30.3021 65.5-30.9687 68.625-30.9687 72.7708-30.9687 76.0208-29.7187 78.375-27.2187 80.7292-24.7187 81.9062-21.125 81.9062-16.4375 81.9062-16.125 81.8958-15.7552 81.875-15.3281 81.8542-14.901 81.8229-14.5937 81.7812-14.4062L60.0937-14.4062C60.1146-12.4271 60.4323-10.6094 61.0469-8.95312 61.6615-7.29687 62.6354-5.96875 63.9687-4.96875 65.3021-3.96875 67.0625-3.46875 69.25-3.46875 71.5833-3.46875 73.4062-4.01562 74.7187-5.10937 76.0312-6.20312 76.7187-7.78125 76.7812-9.84375L81.9375-9.84375C81.875-7.69792 81.3229-5.84896 80.2812-4.29687 79.2396-2.74479 77.7812-1.54687 75.9062-0.703125 74.0312 0.140625 71.8125 0.5625 69.25 0.5625ZM60.125-18.2187 76.75-18.2187C76.6875-21.0521 75.9479-23.2187 74.5312-24.7187 73.1146-26.2187 71.1458-26.9687 68.625-26.9687 66.0833-26.9687 64.0885-26.224 62.6406-24.7344 61.1927-23.2448 60.3542-21.0729 60.125-18.2187ZM90.3958 0 90.3958-30.4375 95.3958-30.4375 95.5833-25.75C96.5208-26.9792 97.8646-28.1406 99.6146-29.2344 101.365-30.3281 103.604-30.875 106.333-30.875 109.667-30.875 112.094-29.8906 113.615-27.9219 115.135-25.9531 115.896-23.1875 115.896-19.625L115.896 0 110.677 0 110.677-18.875C110.677-20.3542 110.521-21.6667 110.208-22.8125 109.896-23.9583 109.339-24.8594 108.536-25.5156 107.734-26.1719 106.573-26.5 105.052-26.5 102.781-26.5 100.875-25.9844 99.3333-24.9531 97.7917-23.9219 96.5521-22.7917 95.6146-21.5625L95.6146 0ZM136.073 0C133.615 0 131.729-0.390625 130.417-1.17187 129.104-1.95312 128.203-3.07812 127.714-4.54687 127.224-6.01562 126.979-7.78125 126.979-9.84375L126.979-26.2187 121.885-26.2187 121.885-30.4375 126.979-30.4375 126.979-37.4062 132.167-37.4062 132.167-30.4375 139.667-30.4375 139.667-26.2187 132.167-26.2187 132.167-10.0937C132.167-8.19792 132.411-6.74479 132.901-5.73437 133.391-4.72396 134.562-4.21875 136.417-4.21875L139.729-4.21875 139.729 0ZM146.542 0 146.542-30.4375 151.76-30.4375 151.76 0ZM149.135-36.1562C148.156-36.1562 147.37-36.4427 146.776-37.0156 146.182-37.5885 145.885-38.3125 145.885-39.1875 145.885-40.0625 146.182-40.7865 146.776-41.3594 147.37-41.9323 148.156-42.2187 149.135-42.2187 150.115-42.2187 150.906-41.9323 151.51-41.3594 152.115-40.7865 152.417-40.0625 152.417-39.1875 152.417-38.3125 152.115-37.5885 151.51-37.0156 150.906-36.4427 150.115-36.1562 149.135-36.1562ZM163.073 0 163.073-26.2187 157.979-26.2187 157.979-30.4375 163.073-30.4375 163.073-32.1875C163.073-33.7292 163.203-35.1146 163.464-36.3437 163.724-37.5729 164.182-38.6094 164.839-39.4531 165.495-40.2969 166.411-40.9427 167.589-41.3906 168.766-41.8385 170.292-42.0625 172.167-42.0625L175.323-42.0625 175.323-37.9687 172.51-37.9687C170.656-37.9687 169.484-37.4687 168.995-36.4687 168.505-35.4687 168.26-34.0208 168.26-32.125L168.26-30.4375 175.354-30.4375 175.354-26.2187 168.26-26.2187 168.26 0ZM181.49 0 181.49-30.4375 186.708-30.4375 186.708 0ZM184.083-36.1562C183.104-36.1562 182.318-36.4427 181.724-37.0156 181.13-37.5885 180.833-38.3125 180.833-39.1875 180.833-40.0625 181.13-40.7865 181.724-41.3594 182.318-41.9323 183.104-42.2187 184.083-42.2187 185.062-42.2187 185.854-41.9323 186.458-41.3594 187.062-40.7865 187.365-40.0625 187.365-39.1875 187.365-38.3125 187.062-37.5885 186.458-37.0156 185.854-36.4427 185.062-36.1562 184.083-36.1562ZM209.333 0.53125C206.583 0.53125 204.146-0.046875 202.021-1.20312 199.896-2.35937 198.234-4.09896 197.036-6.42187 195.839-8.74479 195.24-11.6562 195.24-15.1562 195.24-18.6562 195.828-21.5781 197.005-23.9219 198.182-26.2656 199.828-28.026 201.943-29.2031 204.057-30.3802 206.521-30.9687 209.333-30.9687 211.688-30.9687 213.807-30.5833 215.693-29.8125 217.578-29.0417 219.083-27.8802 220.208-26.3281 221.333-24.776 221.927-22.8125 221.99-20.4375L216.833-20.4375C216.708-22.3958 216-23.9375 214.708-25.0625 213.417-26.1875 211.656-26.75 209.427-26.75 206.469-26.75 204.26-25.7344 202.802-23.7031 201.344-21.6719 200.615-18.8229 200.615-15.1562 200.615-12.7187 200.937-10.651 201.583-8.95312 202.229-7.25521 203.208-5.95312 204.521-5.04687 205.833-4.14062 207.469-3.6875 209.427-3.6875 211.656-3.6875 213.469-4.26562 214.865-5.42187 216.26-6.57812 216.99-8.27083 217.052-10.5L222.208-10.5C222.146-8.04167 221.547-5.99479 220.411-4.35937 219.276-2.72396 217.745-1.5 215.818-0.6875 213.891 0.125 211.729 0.53125 209.333 0.53125ZM238.237 0.5625C236.487 0.5625 234.889 0.229167 233.441-0.4375 231.993-1.10417 230.836-2.08854 229.972-3.39062 229.107-4.69271 228.675-6.30208 228.675-8.21875 228.675-10.9479 229.529-13.0208 231.237-14.4375 232.946-15.8542 235.362-16.8177 238.487-17.3281 241.612-17.8385 245.269-18.1146 249.456-18.1562L249.456-20.2812C249.456-22.8854 248.81-24.6719 247.519-25.6406 246.227-26.6094 244.592-27.0937 242.612-27.0937 240.508-27.0937 238.737-26.5625 237.3-25.5 235.862-24.4375 235.144-22.7604 235.144-20.4687L230.081-20.4687C230.081-22.9687 230.618-24.9896 231.691-26.5312 232.764-28.0729 234.243-29.1979 236.128-29.9062 238.014-30.6146 240.175-30.9687 242.612-30.9687 244.175-30.9687 245.67-30.8229 247.097-30.5312 248.524-30.2396 249.805-29.7083 250.941-28.9375 252.076-28.1667 252.977-27.0885 253.644-25.7031 254.31-24.3177 254.644-22.5312 254.644-20.3437L254.644 0 249.769 0 249.55-4.625C248.154-3.0625 246.534-1.80729 244.691-0.859375 242.847 0.0885416 240.696 0.5625 238.237 0.5625ZM239.612-3.4375C241.696-3.4375 243.571-3.92708 245.237-4.90625 246.904-5.88542 248.3-7.125 249.425-8.625L249.425-14.8125C243.883-14.75 239.909-14.2292 237.503-13.25 235.097-12.2708 233.894-10.6667 233.894-8.4375 233.894-6.91667 234.378-5.70312 235.347-4.79687 236.316-3.89062 237.737-3.4375 239.612-3.4375ZM274.352 0C271.894 0 270.008-0.390625 268.696-1.17187 267.383-1.95312 266.482-3.07812 265.993-4.54687 265.503-6.01562 265.258-7.78125 265.258-9.84375L265.258-26.2187 260.165-26.2187 260.165-30.4375 265.258-30.4375 265.258-37.4062 270.446-37.4062 270.446-30.4375 277.946-30.4375 277.946-26.2187 270.446-26.2187 270.446-10.0937C270.446-8.19792 270.691-6.74479 271.18-5.73437 271.67-4.72396 272.842-4.21875 274.696-4.21875L278.008-4.21875 278.008 0ZM284.821 0 284.821-30.4375 290.04-30.4375 290.04 0ZM287.415-36.1562C286.435-36.1562 285.649-36.4427 285.055-37.0156 284.461-37.5885 284.165-38.3125 284.165-39.1875 284.165-40.0625 284.461-40.7865 285.055-41.3594 285.649-41.9323 286.435-42.2187 287.415-42.2187 288.394-42.2187 289.185-41.9323 289.79-41.3594 290.394-40.7865 290.696-40.0625 290.696-39.1875 290.696-38.3125 290.394-37.5885 289.79-37.0156 289.185-36.4427 288.394-36.1562 287.415-36.1562ZM312.758 0.5C309.779 0.5 307.227-0.130208 305.102-1.39062 302.977-2.65104 301.357-4.45312 300.243-6.79687 299.128-9.14062 298.571-11.9271 298.571-15.1562 298.571-18.4687 299.128-21.3073 300.243-23.6719 301.357-26.0365 302.977-27.8542 305.102-29.125 307.227-30.3958 309.779-31.0312 312.758-31.0312 315.8-31.0312 318.399-30.3958 320.555-29.125 322.711-27.8542 324.368-26.0365 325.524-23.6719 326.68-21.3073 327.258-18.4687 327.258-15.1562 327.258-11.9271 326.68-9.14062 325.524-6.79687 324.368-4.45312 322.711-2.65104 320.555-1.39062 318.399-0.130208 315.8 0.5 312.758 0.5ZM312.758-3.65625C315.008-3.65625 316.8-4.15104 318.133-5.14062 319.467-6.13021 320.425-7.49479 321.008-9.23437 321.592-10.974 321.883-12.9479 321.883-15.1562 321.883-17.4062 321.592-19.4167 321.008-21.1875 320.425-22.9583 319.467-24.349 318.133-25.3594 316.8-26.3698 315.008-26.875 312.758-26.875 310.571-26.875 308.836-26.3698 307.555-25.3594 306.274-24.349 305.352-22.9583 304.79-21.1875 304.227-19.4167 303.946-17.4062 303.946-15.1562 303.946-12.9479 304.227-10.974 304.79-9.23437 305.352-7.49479 306.274-6.13021 307.555-5.14062 308.836-4.15104 310.571-3.65625 312.758-3.65625ZM335.81 0 335.81-30.4375 340.81-30.4375 340.998-25.75C341.935-26.9792 343.279-28.1406 345.029-29.2344 346.779-30.3281 349.019-30.875 351.748-30.875 355.081-30.875 357.508-29.8906 359.029-27.9219 360.55-25.9531 361.31-23.1875 361.31-19.625L361.31 0 356.092 0 356.092-18.875C356.092-20.3542 355.935-21.6667 355.623-22.8125 355.31-23.9583 354.753-24.8594 353.951-25.5156 353.149-26.1719 351.987-26.5 350.467-26.5 348.196-26.5 346.29-25.9844 344.748-24.9531 343.206-23.9219 341.967-22.7917 341.029-21.5625L341.029 0Z" transform="matrix(1 0 0 1 58.6987 176)"/></g></g></g><path d="M2846.5 1136.83C2846.5 1112.9 2865.9 1093.5 2889.83 1093.5L3257.17 1093.5C3281.1 1093.5 3300.5 1112.9 3300.5 1136.83L3300.5 1310.17C3300.5 1334.1 3281.1 1353.5 3257.17 1353.5L2889.83 1353.5C2865.9 1353.5 2846.5 1334.1 2846.5 1310.17Z" stroke="#042433" stroke-width="6.875" stroke-miterlimit="8" fill="#BFBFBF" fill-rule="evenodd"/><text font-family="Aptos,Aptos_MSFontService,sans-serif" font-weight="400" font-size="64" transform="matrix(1 0 0 1 3011.66 1205)">Task </text><text font-family="Aptos,Aptos_MSFontService,sans-serif" font-weight="400" font-size="64" transform="matrix(1 0 0 1 2889.98 1282)">identification</text><g clip-path="url(#clip17)" filter="url(#fx6)" transform="translate(1498 1167)"><g><path d="M19.7228 60.7228 453.371 60.7231 453.371 70.7231 19.7228 70.7228ZM425.89 43.9042 463.294 65.7231 425.89 87.542C423.505 88.9334 420.443 88.1277 419.052 85.7425 417.66 83.3572 418.466 80.2956 420.851 78.9042L450.851 61.4042 450.851 70.042 420.851 52.542C418.466 51.1506 417.66 48.089 419.052 45.7037 420.443 43.3185 423.505 42.5128 425.89 43.9042Z"/></g></g><path d="M1508 1217.84 1941.34 1217.84 1941.34 1228.16 1508 1228.16ZM1913 1200.5 1951.57 1223 1913 1245.5C1910.54 1246.94 1907.38 1246.11 1905.95 1243.65 1904.51 1241.19 1905.34 1238.03 1907.8 1236.59L1938.74 1218.55 1938.74 1227.45 1907.8 1209.41C1905.34 1207.97 1904.51 1204.82 1905.95 1202.36 1907.38 1199.9 1910.54 1199.06 1913 1200.5Z"/><g clip-path="url(#clip18)" filter="url(#fx7)" transform="translate(2389 1167)"><g><path d="M19.7227 60.7228 453.371 60.7231 453.371 70.7231 19.7227 70.7228ZM425.89 43.9042 463.294 65.7231 425.89 87.542C423.505 88.9334 420.443 88.1277 419.052 85.7425 417.66 83.3572 418.466 80.2956 420.851 78.9042L450.851 61.4042 450.851 70.042 420.851 52.542C418.466 51.1506 417.66 48.089 419.052 45.7037 420.443 43.3185 423.505 42.5128 425.89 43.9042Z"/></g></g><path d="M2399 1217.84 2832.34 1217.84 2832.34 1228.16 2399 1228.16ZM2804 1200.5 2842.57 1223 2804 1245.5C2801.54 1246.94 2798.38 1246.11 2796.95 1243.65 2795.51 1241.19 2796.34 1238.03 2798.8 1236.59L2829.74 1218.55 2829.74 1227.45 2798.8 1209.41C2796.34 1207.97 2795.51 1204.82 2796.95 1202.36 2798.38 1199.9 2801.54 1199.06 2804 1200.5Z"/><g clip-path="url(#clip19)" filter="url(#fx8)" transform="translate(615 1167)"><g><path d="M19.7227 60.7228 453.371 60.7231 453.371 70.7231 19.7227 70.7228ZM425.89 43.9042 463.294 65.7231 425.89 87.542C423.505 88.9334 420.443 88.1277 419.052 85.7425 417.66 83.3572 418.466 80.2956 420.851 78.9042L450.851 61.4042 450.851 70.042 420.851 52.542C418.466 51.1506 417.66 48.089 419.052 45.7037 420.443 43.3185 423.505 42.5128 425.89 43.9042Z"/></g></g><path d="M625 1217.84 1058.34 1217.84 1058.34 1228.16 625 1228.16ZM1030 1200.5 1068.57 1223 1030 1245.5C1027.54 1246.94 1024.38 1246.11 1022.95 1243.65 1021.51 1241.19 1022.34 1238.03 1024.8 1236.59L1055.74 1218.55 1055.74 1227.45 1024.8 1209.41C1022.34 1207.97 1021.51 1204.82 1022.95 1202.36 1024.38 1199.9 1027.54 1199.06 1030 1200.5Z"/><g clip-path="url(#clip20)" filter="url(#fx9)" transform="translate(3287 1167)"><g><path d="M19.7227 60.7228 453.371 60.7231 453.371 70.7231 19.7227 70.7228ZM425.89 43.9042 463.294 65.7231 425.89 87.542C423.505 88.9334 420.443 88.1277 419.052 85.7425 417.66 83.3572 418.466 80.2956 420.851 78.9042L450.851 61.4042 450.851 70.042 420.851 52.542C418.466 51.1506 417.66 48.089 419.052 45.7037 420.443 43.3185 423.505 42.5128 425.89 43.9042Z"/></g></g><path d="M3297 1217.84 3730.34 1217.84 3730.34 1228.16 3297 1228.16ZM3702 1200.5 3740.57 1223 3702 1245.5C3699.54 1246.94 3696.38 1246.11 3694.95 1243.65 3693.51 1241.19 3694.34 1238.03 3696.8 1236.59L3727.74 1218.55 3727.74 1227.45 3696.8 1209.41C3694.34 1207.97 3693.51 1204.82 3694.95 1202.36 3696.38 1199.9 3699.54 1199.06 3702 1200.5Z"/><text font-family="Aptos,Aptos_MSFontService,sans-serif" font-weight="400" font-size="64" transform="matrix(1 0 0 1 650.835 1337)">IMU raw data </text><text font-family="Aptos,Aptos_MSFontService,sans-serif" font-weight="400" font-size="64" transform="matrix(1 0 0 1 1549.05 1337)">IMU raw data </text><text font-family="Aptos,Aptos_MSFontService,sans-serif" font-weight="400" font-size="64" transform="matrix(1 0 0 1 1595.64 1414)">organized</text><text font-family="Aptos,Aptos_MSFontService,sans-serif" font-weight="400" font-size="64" transform="matrix(1 0 0 1 2461.45 1337)">MWC linear </text><text font-family="Aptos,Aptos_MSFontService,sans-serif" font-weight="400" font-size="64" transform="matrix(1 0 0 1 2458.48 1414)">and angular </text><text font-family="Aptos,Aptos_MSFontService,sans-serif" font-weight="400" font-size="64" transform="matrix(1 0 0 1 2537.24 1491)">speed</text><text font-family="Aptos,Aptos_MSFontService,sans-serif" font-weight="400" font-size="64" transform="matrix(1 0 0 1 3354.47 1337)">Locomotor </text><text font-family="Aptos,Aptos_MSFontService,sans-serif" font-weight="400" font-size="64" transform="matrix(1 0 0 1 3433.14 1414)">tasks</text></g></svg>