<svg width="3216" height="467" xmlns="http://www.w3.org/2000/svg" xmlns:xlink="http://www.w3.org/1999/xlink" xml:space="preserve" overflow="hidden"><defs><filter id="fx0" x="-10%" y="-10%" width="120%" height="120%" filterUnits="userSpaceOnUse" primitiveUnits="userSpaceOnUse"><feComponentTransfer color-interpolation-filters="sRGB"><feFuncR type="discrete" tableValues="0 0"/><feFuncG type="discrete" tableValues="0 0"/><feFuncB type="discrete" tableValues="0 0"/><feFuncA type="linear" slope="0.4" intercept="0"/></feComponentTransfer><feGaussianBlur stdDeviation="6.11111 6.11111"/></filter><filter id="fx1" x="-10%" y="-10%" width="120%" height="120%" filterUnits="userSpaceOnUse" primitiveUnits="userSpaceOnUse"><feComponentTransfer color-interpolation-filters="sRGB"><feFuncR type="discrete" tableValues="0 0"/><feFuncG type="discrete" tableValues="0 0"/><feFuncB type="discrete" tableValues="0 0"/><feFuncA type="linear" slope="0.4" intercept="0"/></feComponentTransfer><feGaussianBlur stdDeviation="6.11111 6.11111"/></filter><filter id="fx2" x="-10%" y="-10%" width="120%" height="120%" filterUnits="userSpaceOnUse" primitiveUnits="userSpaceOnUse"><feComponentTransfer color-interpolation-filters="sRGB"><feFuncR type="discrete" tableValues="0 0"/><feFuncG type="discrete" tableValues="0 0"/><feFuncB type="discrete" tableValues="0 0"/><feFuncA type="linear" slope="0.4" intercept="0"/></feComponentTransfer><feGaussianBlur stdDeviation="6.11111 6.11111"/></filter><filter id="fx3" x="-10%" y="-10%" width="120%" height="120%" filterUnits="userSpaceOnUse" primitiveUnits="userSpaceOnUse"><feComponentTransfer color-interpolation-filters="sRGB"><feFuncR type="discrete" tableValues="0 0"/><feFuncG type="discrete" tableValues="0 0"/><feFuncB type="discrete" tableValues="0 0"/><feFuncA type="linear" slope="0.4" intercept="0"/></feComponentTransfer><feGaussianBlur stdDeviation="6.11111 6.11111"/></filter><filter id="fx4" x="-10%" y="-10%" width="120%" height="120%" filterUnits="userSpaceOnUse" primitiveUnits="userSpaceOnUse"><feComponentTransfer color-interpolation-filters="sRGB"><feFuncR type="discrete" tableValues="0 0"/><feFuncG type="discrete" tableValues="0 0"/><feFuncB type="discrete" tableValues="0 0"/><feFuncA type="linear" slope="0.4" intercept="0"/></feComponentTransfer><feGaussianBlur stdDeviation="6.11111 6.11111"/></filter><filter id="fx5" x="-10%" y="-10%" width="120%" height="120%" filterUnits="userSpaceOnUse" primitiveUnits="userSpaceOnUse"><feComponentTransfer color-interpolation-filters="sRGB"><feFuncR type="discrete" tableValues="0 0"/><feFuncG type="discrete" tableValues="0 0"/><feFuncB type="discrete" tableValues="0 0"/><feFuncA type="linear" slope="0.4" intercept="0"/></feComponentTransfer><feGaussianBlur stdDeviation="6.11111 6.11111"/></filter><filter id="fx6" x="-10%" y="-10%" width="120%" height="120%" filterUnits="userSpaceOnUse" primitiveUnits="userSpaceOnUse"><feComponentTransfer color-interpolation-filters="sRGB"><feFuncR type="discrete" tableValues="0 0"/><feFuncG type="discrete" tableValues="0 0"/><feFuncB type="discrete" tableValues="0 0"/><feFuncA type="linear" slope="0.4" intercept="0"/></feComponentTransfer><feGaussianBlur stdDeviation="6.11111 6.11111"/></filter><filter id="fx7" x="-10%" y="-10%" width="120%" height="120%" filterUnits="userSpaceOnUse" primitiveUnits="userSpaceOnUse"><feComponentTransfer color-interpolation-filters="sRGB"><feFuncR type="discrete" tableValues="0 0"/><feFuncG type="discrete" tableValues="0 0"/><feFuncB type="discrete" tableValues="0 0"/><feFuncA type="linear" slope="0.4" intercept="0"/></feComponentTransfer><feGaussianBlur stdDeviation="6.11111 6.11111"/></filter><filter id="fx8" x="-10%" y="-10%" width="120%" height="120%" filterUnits="userSpaceOnUse" primitiveUnits="userSpaceOnUse"><feComponentTransfer color-interpolation-filters="sRGB"><feFuncR type="discrete" tableValues="0 0"/><feFuncG type="discrete" tableValues="0 0"/><feFuncB type="discrete" tableValues="0 0"/><feFuncA type="linear" slope="0.4" intercept="0"/></feComponentTransfer><feGaussianBlur stdDeviation="6.11111 6.11111"/></filter><filter id="fx9" x="-10%" y="-10%" width="120%" height="120%" filterUnits="userSpaceOnUse" primitiveUnits="userSpaceOnUse"><feComponentTransfer color-interpolation-filters="sRGB"><feFuncR type="discrete" tableValues="0 0"/><feFuncG type="discrete" tableValues="0 0"/><feFuncB type="discrete" tableValues="0 0"/><feFuncA type="linear" slope="0.4" intercept="0"/></feComponentTransfer><feGaussianBlur stdDeviation="6.11111 6.11111"/></filter><clipPath id="clip10"><rect x="583" y="483" width="3216" height="467"/></clipPath><clipPath id="clip11"><path d="M1096.83 495.5C1072.9 495.5 1053.5 514.901 1053.5 538.834L1053.5 712.166C1053.5 736.099 1072.9 755.5 1096.83 755.5L1452.17 755.5C1476.1 755.5 1495.5 736.099 1495.5 712.166L1495.5 538.834C1495.5 514.901 1476.1 495.5 1452.17 495.5ZM583 483 3799 483 3799 950 583 950Z" fill-rule="evenodd" clip-rule="evenodd"/></clipPath><clipPath id="clip12"><rect x="39" y="32" width="364" height="179"/></clipPath><clipPath id="clip13"><path d="M1983.83 495.5C1959.9 495.5 1940.5 514.901 1940.5 538.834L1940.5 712.166C1940.5 736.099 1959.9 755.5 1983.83 755.5L2339.17 755.5C2363.1 755.5 2382.5 736.099 2382.5 712.166L2382.5 538.834C2382.5 514.901 2363.1 495.5 2339.17 495.5ZM583 483 3799 483 3799 950 583 950Z" fill-rule="evenodd" clip-rule="evenodd"/></clipPath><clipPath id="clip14"><rect x="39" y="32" width="344" height="179"/></clipPath><clipPath id="clip15"><path d="M2874.83 495.5C2850.9 495.5 2831.5 514.901 2831.5 538.834L2831.5 712.166C2831.5 736.099 2850.9 755.5 2874.83 755.5L3243.17 755.5C3267.1 755.5 3286.5 736.099 3286.5 712.166L3286.5 538.834C3286.5 514.901 3267.1 495.5 3243.17 495.5ZM583 483 3799 483 3799 950 583 950Z" fill-rule="evenodd" clip-rule="evenodd"/></clipPath><clipPath id="clip16"><rect x="39" y="32" width="402" height="168"/></clipPath><clipPath id="clip17"><rect x="-3" y="22" width="489" height="89"/></clipPath><clipPath id="clip18"><rect x="-3" y="22" width="489" height="89"/></clipPath><clipPath id="clip19"><rect x="-3" y="22" width="489" height="89"/></clipPath><clipPath id="clip20"><rect x="-3" y="22" width="489" height="89"/></clipPath></defs><g clip-path="url(#clip10)" transform="translate(-583 -483)"><g clip-path="url(#clip11)"><g filter="url(#fx0)" transform="translate(1040 482)"><g><path d="M23.2228 66.5569C23.2228 42.624 42.6242 23.2226 66.5571 23.2226L421.889 23.2226C445.821 23.2226 465.223 42.624 465.223 66.5569L465.223 239.888C465.223 263.821 445.821 283.223 421.889 283.223L66.5571 283.223C42.6242 283.223 23.2228 263.821 23.2228 239.888Z" stroke="#042433" stroke-width="7" stroke-miterlimit="8" fill="#007BFF" fill-rule="evenodd"/></g></g><g clip-path="url(#clip12)" filter="url(#fx1)" transform="translate(1064 519)"><g><path d="M5.03125 0 5.03125-42.0625 20.6875-42.0625C25.1875-42.0625 29.0365-41.2292 32.2344-39.5625 35.4323-37.8958 37.875-35.5 39.5625-32.375 41.25-29.25 42.0937-25.5 42.0937-21.125 42.0937-16.6042 41.2396-12.7708 39.5312-9.625 37.8229-6.47917 35.3698-4.08854 32.1719-2.45312 28.974-0.817708 25.1458 0 20.6875 0ZM13.8125-7.3125 19.75-7.3125C22.7292-7.3125 25.2031-7.81771 27.1719-8.82812 29.1406-9.83854 30.6146-11.3698 31.5937-13.4219 32.5729-15.474 33.0625-18.0625 33.0625-21.1875 33.0625-24.1667 32.5365-26.6615 31.4844-28.6719 30.4323-30.6823 28.9167-32.1979 26.9375-33.2187 24.9583-34.2396 22.5625-34.75 19.75-34.75L13.8125-34.75ZM57.7812 0.53125C56.0521 0.53125 54.4375 0.197917 52.9375-0.46875 51.4375-1.13542 50.224-2.14062 49.2969-3.48437 48.3698-4.82812 47.9062-6.51042 47.9062-8.53125 47.9062-11.3437 48.75-13.4635 50.4375-14.8906 52.125-16.3177 54.4844-17.2865 57.5156-17.7969 60.5469-18.3073 64.0729-18.6042 68.0937-18.6875L68.0937-20.3125C68.0937-22.2917 67.6198-23.6458 66.6719-24.375 65.724-25.1042 64.5-25.4687 63-25.4687 61.3542-25.4687 60-25.0781 58.9375-24.2969 57.875-23.5156 57.3437-22.25 57.3437-20.5L49.5937-20.5C49.5937-23.1042 50.1615-25.1667 51.2969-26.6875 52.4323-28.2083 54.0052-29.3021 56.0156-29.9687 58.026-30.6354 60.3542-30.9687 63-30.9687 64.9375-30.9687 66.7083-30.8073 68.3125-30.4844 69.9167-30.1615 71.3073-29.6042 72.4844-28.8125 73.6615-28.0208 74.5729-26.9427 75.2187-25.5781 75.8646-24.2135 76.1875-22.5104 76.1875-20.4687L76.1875 0 68.4375 0 68.1875-3.96875C66.8958-2.48958 65.3958-1.36979 63.6875-0.609375 61.9792 0.151042 60.0104 0.53125 57.7812 0.53125ZM60.5-5.15625C62.0625-5.15625 63.5052-5.5625 64.8281-6.375 66.151-7.1875 67.2083-8.11458 68-9.15625L68-14.0937C63.625-14.0729 60.5625-13.6615 58.8125-12.8594 57.0625-12.0573 56.1875-10.7604 56.1875-8.96875 56.1875-7.67708 56.5885-6.71875 57.3906-6.09375 58.1927-5.46875 59.2292-5.15625 60.5-5.15625ZM97.6083 0C94.525 0 92.1344-0.369792 90.4364-1.10937 88.7385-1.84896 87.5562-2.99479 86.8896-4.54687 86.2229-6.09896 85.8896-8.125 85.8896-10.625L85.8896-24.125 80.8271-24.125 80.8271-30.5 85.8896-30.5 85.8896-37.6875 94.1708-37.6875 94.1708-30.5 100.827-30.5 100.827-24.125 94.1708-24.125 94.1708-11.125C94.1708-9.52083 94.3948-8.33333 94.8427-7.5625 95.2906-6.79167 96.3062-6.40625 97.8896-6.40625L100.827-6.40625 100.827 0ZM115.715 0.53125C113.985 0.53125 112.371 0.197917 110.871-0.46875 109.371-1.13542 108.157-2.14062 107.23-3.48437 106.303-4.82812 105.84-6.51042 105.84-8.53125 105.84-11.3437 106.683-13.4635 108.371-14.8906 110.058-16.3177 112.418-17.2865 115.449-17.7969 118.48-18.3073 122.006-18.6042 126.027-18.6875L126.027-20.3125C126.027-22.2917 125.553-23.6458 124.605-24.375 123.657-25.1042 122.433-25.4687 120.933-25.4687 119.287-25.4687 117.933-25.0781 116.871-24.2969 115.808-23.5156 115.277-22.25 115.277-20.5L107.527-20.5C107.527-23.1042 108.095-25.1667 109.23-26.6875 110.366-28.2083 111.939-29.3021 113.949-29.9687 115.959-30.6354 118.287-30.9687 120.933-30.9687 122.871-30.9687 124.642-30.8073 126.246-30.4844 127.85-30.1615 129.241-29.6042 130.418-28.8125 131.595-28.0208 132.506-26.9427 133.152-25.5781 133.798-24.2135 134.121-22.5104 134.121-20.4687L134.121 0 126.371 0 126.121-3.96875C124.829-2.48958 123.329-1.36979 121.621-0.609375 119.912 0.151042 117.944 0.53125 115.715 0.53125ZM118.433-5.15625C119.996-5.15625 121.439-5.5625 122.761-6.375 124.084-7.1875 125.142-8.11458 125.933-9.15625L125.933-14.0937C121.558-14.0729 118.496-13.6615 116.746-12.8594 114.996-12.0573 114.121-10.7604 114.121-8.96875 114.121-7.67708 114.522-6.71875 115.324-6.09375 116.126-5.46875 117.162-5.15625 118.433-5.15625Z" transform="matrix(1 0 0 1 150.756 98)"/><path d="M16.6875 0.5625C15 0.5625 13.3437 0.40625 11.7187 0.09375 10.0937-0.21875 8.625-0.755208 7.3125-1.51562 6-2.27604 4.95833-3.3125 4.1875-4.625 3.41667-5.9375 3.03125-7.57292 3.03125-9.53125L10.7187-9.53125C10.7187-7.82292 11.3177-6.63542 12.5156-5.96875 13.7135-5.30208 15.1146-4.96875 16.7187-4.96875 18.3021-4.96875 19.5312-5.22396 20.4062-5.73437 21.2812-6.24479 21.7187-7.10417 21.7187-8.3125 21.7187-9.45833 21.2031-10.3125 20.1719-10.875 19.1406-11.4375 17.3333-12.0104 14.75-12.5937 12.5833-13.1146 10.651-13.7448 8.95312-14.4844 7.25521-15.224 5.92708-16.2135 4.96875-17.4531 4.01042-18.6927 3.53125-20.3229 3.53125-22.3437 3.53125-23.9271 3.89583-25.2708 4.625-26.375 5.35417-27.4792 6.32812-28.3698 7.54687-29.0469 8.76562-29.724 10.1406-30.2187 11.6719-30.5312 13.2031-30.8437 14.7708-31 16.375-31 17.9375-31 19.4687-30.8437 20.9687-30.5312 22.4687-30.2187 23.8229-29.6927 25.0312-28.9531 26.2396-28.2135 27.2083-27.2187 27.9375-25.9687 28.6667-24.7187 29.0312-23.1562 29.0312-21.2812L21.3437-21.2812C21.3437-22.8437 20.849-23.9271 19.8594-24.5312 18.8698-25.1354 17.7083-25.4375 16.375-25.4375 14.9375-25.4375 13.8073-25.2292 12.9844-24.8125 12.1615-24.3958 11.75-23.7083 11.75-22.75 11.75-22.1875 12.0104-21.6927 12.5312-21.2656 13.0521-20.8385 13.8854-20.4427 15.0312-20.0781 16.1771-19.7135 17.6875-19.3229 19.5625-18.9062 21.5417-18.4479 23.3125-17.8542 24.875-17.125 26.4375-16.3958 27.6771-15.4167 28.5937-14.1875 29.5104-12.9583 29.9687-11.3646 29.9687-9.40625 29.9687-7.57292 29.599-6.02083 28.8594-4.75 28.1198-3.47917 27.1302-2.45312 25.8906-1.67187 24.651-0.890625 23.2344-0.322917 21.6406 0.03125 20.0469 0.385417 18.3958 0.5625 16.6875 0.5625ZM50.1708 0C47.0875 0 44.6969-0.369792 42.999-1.10937 41.301-1.84896 40.1187-2.99479 39.4521-4.54687 38.7854-6.09896 38.4521-8.125 38.4521-10.625L38.4521-24.125 33.3896-24.125 33.3896-30.5 38.4521-30.5 38.4521-37.6875 46.7333-37.6875 46.7333-30.5 53.3896-30.5 53.3896-24.125 46.7333-24.125 46.7333-11.125C46.7333-9.52083 46.9573-8.33333 47.4052-7.5625 47.8531-6.79167 48.8687-6.40625 50.4521-6.40625L53.3896-6.40625 53.3896 0ZM60.0562 0 60.0562-30.5 67.9937-30.5 68.15-25.2187C68.9417-27.0521 70.1292-28.4583 71.7125-29.4375 73.2958-30.4167 75.2125-30.9062 77.4625-30.9062L78.0875-30.9062 78.0875-23.9375 77.3062-23.9375C76.0771-23.9375 74.9-23.8281 73.775-23.6094 72.65-23.3906 71.6292-23.0156 70.7125-22.4844 69.7958-21.9531 69.0042-21.2187 68.3375-20.2812L68.3375 0ZM92.9521 0.40625C89.8687 0.40625 87.4833-0.546875 85.7958-2.45312 84.1083-4.35937 83.2646-7.07292 83.2646-10.5937L83.2646-30.5 91.5458-30.5 91.5458-11.5937C91.5458-10.5521 91.6969-9.63021 91.9989-8.82812 92.301-8.02604 92.801-7.40625 93.4989-6.96875 94.1969-6.53125 95.1187-6.3125 96.2646-6.3125 97.9312-6.3125 99.3531-6.68229 100.53-7.42187 101.707-8.16146 102.733-9.0625 103.608-10.125L103.608-30.5 111.89-30.5 111.89 0 103.89 0 103.765-4.59375C102.744-3.30208 101.348-2.14583 99.5771-1.125 97.8062-0.104167 95.5979 0.40625 92.9521 0.40625ZM134.473 0.4375C131.64 0.4375 129.067-0.104167 126.754-1.1875 124.442-2.27083 122.608-3.95833 121.254-6.25 119.9-8.54167 119.223-11.5 119.223-15.125 119.223-18.75 119.869-21.7292 121.16-24.0625 122.452-26.3958 124.249-28.1302 126.551-29.2656 128.853-30.401 131.494-30.9687 134.473-30.9687 137.056-30.9687 139.39-30.5417 141.473-29.6875 143.556-28.8333 145.212-27.5573 146.442-25.8594 147.671-24.1615 148.296-22.0208 148.317-19.4375L140.285-19.4375C140.244-21 139.723-22.2448 138.723-23.1719 137.723-24.099 136.317-24.5625 134.504-24.5625 132.108-24.5625 130.374-23.7396 129.301-22.0937 128.228-20.4479 127.692-18.125 127.692-15.125 127.692-13.1875 127.926-11.5365 128.395-10.1719 128.864-8.80729 129.603-7.76562 130.614-7.04687 131.624-6.32812 132.921-5.96875 134.504-5.96875 136.358-5.96875 137.822-6.47396 138.895-7.48437 139.968-8.49479 140.525-9.92708 140.567-11.7812L148.598-11.7812C148.535-9.13542 147.895-6.90625 146.676-5.09375 145.457-3.28125 143.796-1.90625 141.692-0.96875 139.587-0.03125 137.181 0.4375 134.473 0.4375ZM168.765 0C165.681 0 163.291-0.369792 161.593-1.10937 159.895-1.84896 158.712-2.99479 158.046-4.54687 157.379-6.09896 157.046-8.125 157.046-10.625L157.046-24.125 151.983-24.125 151.983-30.5 157.046-30.5 157.046-37.6875 165.327-37.6875 165.327-30.5 171.983-30.5 171.983-24.125 165.327-24.125 165.327-11.125C165.327-9.52083 165.551-8.33333 165.999-7.5625 166.447-6.79167 167.462-6.40625 169.046-6.40625L171.983-6.40625 171.983 0ZM188.056 0.40625C184.973 0.40625 182.587-0.546875 180.9-2.45312 179.212-4.35937 178.369-7.07292 178.369-10.5937L178.369-30.5 186.65-30.5 186.65-11.5937C186.65-10.5521 186.801-9.63021 187.103-8.82812 187.405-8.02604 187.905-7.40625 188.603-6.96875 189.301-6.53125 190.223-6.3125 191.369-6.3125 193.035-6.3125 194.457-6.68229 195.634-7.42187 196.811-8.16146 197.837-9.0625 198.712-10.125L198.712-30.5 206.994-30.5 206.994 0 198.994 0 198.869-4.59375C197.848-3.30208 196.452-2.14583 194.681-1.125 192.91-0.104167 190.702 0.40625 188.056 0.40625ZM215.89 0 215.89-30.5 223.827-30.5 223.983-25.2187C224.775-27.0521 225.962-28.4583 227.546-29.4375 229.129-30.4167 231.046-30.9062 233.296-30.9062L233.921-30.9062 233.921-23.9375 233.14-23.9375C231.91-23.9375 230.733-23.8281 229.608-23.6094 228.483-23.3906 227.462-23.0156 226.546-22.4844 225.629-21.9531 224.837-21.2187 224.171-20.2812L224.171 0ZM239.379 0 239.379-30.5 247.66-30.5 247.66 0ZM243.535-34.5C242.015-34.5 240.853-34.8854 240.051-35.6562 239.249-36.4271 238.848-37.3854 238.848-38.5312 238.848-39.6979 239.249-40.6615 240.051-41.4219 240.853-42.1823 242.015-42.5625 243.535-42.5625 245.056-42.5625 246.218-42.1823 247.02-41.4219 247.822-40.6615 248.223-39.6979 248.223-38.5312 248.223-37.3854 247.822-36.4271 247.02-35.6562 246.218-34.8854 245.056-34.5 243.535-34.5ZM256.567 0 256.567-30.5 264.535-30.5 264.692-25.9375C265.712-27.25 267.056-28.4115 268.723-29.4219 270.39-30.4323 272.556-30.9375 275.223-30.9375 278.327-30.9375 280.733-29.9948 282.442-28.1094 284.15-26.224 285.004-23.4687 285.004-19.8437L285.004 0 276.785 0 276.785-18.7812C276.785-19.8854 276.629-20.8542 276.317-21.6875 276.004-22.5208 275.509-23.1667 274.832-23.625 274.155-24.0833 273.265-24.3125 272.16-24.3125 270.515-24.3125 269.103-23.9271 267.926-23.1562 266.749-22.3854 265.723-21.4479 264.848-20.3437L264.848 0ZM305.806 11.7812C302.16 11.7812 299.265 11.4062 297.119 10.6562 294.973 9.90625 293.431 8.92187 292.494 7.70312 291.556 6.48437 291.087 5.16667 291.087 3.75 291.087 2.02083 291.91 0.505208 293.556-0.796875 295.202-2.09896 297.806-3.01042 301.369-3.53125L302.744-6.46875 306.869-6.46875C311.931-6.46875 315.624-5.77083 317.947-4.375 320.27-2.97917 321.431-0.84375 321.431 2.03125 321.431 4.94792 320.098 7.30208 317.431 9.09375 314.765 10.8854 310.89 11.7812 305.806 11.7812ZM305.681 6.59375C308.473 6.59375 310.442 6.22917 311.587 5.5 312.733 4.77083 313.306 3.88542 313.306 2.84375 313.306 2.17708 313.108 1.61458 312.712 1.15625 312.317 0.697917 311.66 0.34375 310.744 0.09375 309.827-0.15625 308.608-0.28125 307.087-0.28125L301.525-0.28125C300.712 0.03125 300.051 0.473958 299.541 1.04687 299.03 1.61979 298.775 2.28125 298.775 3.03125 298.775 3.90625 299.317 4.71875 300.4 5.46875 301.483 6.21875 303.244 6.59375 305.681 6.59375ZM301.494-0.6875C299.306-0.9375 297.535-1.38021 296.181-2.01562 294.827-2.65104 293.837-3.38542 293.212-4.21875 292.587-5.05208 292.275-5.875 292.275-6.6875 292.275-7.95833 292.759-9.03646 293.728-9.92187 294.697-10.8073 296.16-11.5833 298.119-12.25L302.431-10.6875C301.306-10.4167 300.369-10.0885 299.619-9.70312 298.869-9.31771 298.494-8.84375 298.494-8.28125 298.494-7.88542 298.718-7.55208 299.166-7.28125 299.613-7.01042 300.395-6.80729 301.509-6.67187 302.624-6.53646 304.16-6.46875 306.119-6.46875ZM305.244-9.71875C302.494-9.71875 300.15-10.2083 298.212-11.1875 296.275-12.1667 294.806-13.4583 293.806-15.0625 292.806-16.6667 292.306-18.3958 292.306-20.25 292.306-22.2292 292.811-24.0156 293.822-25.6094 294.832-27.2031 296.317-28.4792 298.275-29.4375 300.233-30.3958 302.619-30.875 305.431-30.875 308.327-30.875 310.728-30.3958 312.634-29.4375 314.541-28.4792 315.968-27.2031 316.916-25.6094 317.863-24.0156 318.337-22.2292 318.337-20.25 318.337-18.3542 317.853-16.6042 316.884-15 315.916-13.3958 314.468-12.1146 312.541-11.1562 310.613-10.1979 308.181-9.71875 305.244-9.71875ZM305.244-14.6875C306.785-14.6875 308.072-15.1615 309.103-16.1094 310.134-17.0573 310.65-18.4375 310.65-20.25 310.65-22.1667 310.171-23.5937 309.212-24.5312 308.254-25.4687 307.004-25.9375 305.462-25.9375 303.9-25.9375 302.608-25.4531 301.587-24.4844 300.567-23.5156 300.056-22.1042 300.056-20.25 300.056-18.4167 300.582-17.0312 301.634-16.0937 302.686-15.1562 303.89-14.6875 305.244-14.6875ZM313.962-26.25 311.525-29.3437C312.337-31.5104 313.593-32.9896 315.291-33.7812 316.988-34.5729 319.035-34.9792 321.431-35L321.431-28.9687C319.806-28.9687 318.322-28.8177 316.978-28.5156 315.634-28.2135 314.629-27.4583 313.962-26.25Z" transform="matrix(1 0 0 1 58.975 175)"/></g></g></g><path d="M1053.5 538.834C1053.5 514.901 1072.9 495.5 1096.83 495.5L1452.17 495.5C1476.1 495.5 1495.5 514.901 1495.5 538.834L1495.5 712.166C1495.5 736.099 1476.1 755.5 1452.17 755.5L1096.83 755.5C1072.9 755.5 1053.5 736.099 1053.5 712.166Z" stroke="#042433" stroke-width="6.875" stroke-miterlimit="8" fill="#007BFF" fill-rule="evenodd"/><text font-family="Aptos,Aptos_MSFontService,sans-serif" font-weight="700" font-size="64" transform="matrix(1 0 0 1 1205.03 607)">Data </text><text font-family="Aptos,Aptos_MSFontService,sans-serif" font-weight="700" font-size="64" transform="matrix(1 0 0 1 1113.25 684)">structuring</text><g clip-path="url(#clip13)"><g filter="url(#fx2)" transform="translate(1927 482)"><g><path d="M23.2227 66.5569C23.2227 42.624 42.6241 23.2226 66.5569 23.2226L421.888 23.2226C445.821 23.2226 465.223 42.624 465.223 66.5569L465.223 239.888C465.223 263.821 445.821 283.223 421.888 283.223L66.5569 283.223C42.6241 283.223 23.2227 263.821 23.2227 239.888Z" stroke="#042433" stroke-width="7" stroke-miterlimit="8" fill="#BFBFBF" fill-rule="evenodd"/></g></g><g clip-path="url(#clip14)" filter="url(#fx3)" transform="translate(1961 519)"><g><path d="M5.5 0 5.5-42.0625 19.6562-42.0625C24.0521-42.0625 27.8021-41.2344 30.9062-39.5781 34.0104-37.9219 36.375-35.5208 38-32.375 39.625-29.2292 40.4375-25.4479 40.4375-21.0312 40.4375-16.5937 39.6198-12.8021 37.9844-9.65625 36.349-6.51042 33.9792-4.11458 30.875-2.46875 27.7708-0.822917 24.0312 0 19.6562 0ZM11.125-4.71875 18.4062-4.71875C22.0937-4.71875 25.1354-5.30729 27.5312-6.48437 29.9271-7.66146 31.7135-9.46354 32.8906-11.8906 34.0677-14.3177 34.6562-17.375 34.6562-21.0625 34.6562-24.7292 34.0573-27.7656 32.8594-30.1719 31.6615-32.5781 29.8594-34.375 27.4531-35.5625 25.0469-36.75 22.0312-37.3437 18.4062-37.3437L11.125-37.3437ZM56.9208 0.5625C55.1708 0.5625 53.5719 0.229167 52.124-0.4375 50.676-1.10417 49.5198-2.08854 48.6552-3.39062 47.7906-4.69271 47.3583-6.30208 47.3583-8.21875 47.3583-10.9479 48.2125-13.0208 49.9208-14.4375 51.6292-15.8542 54.0458-16.8177 57.1708-17.3281 60.2958-17.8385 63.9521-18.1146 68.1396-18.1562L68.1396-20.2812C68.1396-22.8854 67.4937-24.6719 66.2021-25.6406 64.9104-26.6094 63.275-27.0937 61.2958-27.0937 59.1917-27.0937 57.4208-26.5625 55.9833-25.5 54.5458-24.4375 53.8271-22.7604 53.8271-20.4687L48.7646-20.4687C48.7646-22.9687 49.301-24.9896 50.374-26.5312 51.4469-28.0729 52.926-29.1979 54.8115-29.9062 56.6969-30.6146 58.8583-30.9687 61.2958-30.9687 62.8583-30.9687 64.3531-30.8229 65.7802-30.5312 67.2073-30.2396 68.4885-29.7083 69.624-28.9375 70.7594-28.1667 71.6604-27.0885 72.3271-25.7031 72.9937-24.3177 73.3271-22.5312 73.3271-20.3437L73.3271 0 68.4521 0 68.2333-4.625C66.8375-3.0625 65.2177-1.80729 63.374-0.859375 61.5302 0.0885416 59.3792 0.5625 56.9208 0.5625ZM58.2958-3.4375C60.3792-3.4375 62.2542-3.92708 63.9208-4.90625 65.5875-5.88542 66.9833-7.125 68.1083-8.625L68.1083-14.8125C62.5667-14.75 58.5927-14.2292 56.1865-13.25 53.7802-12.2708 52.5771-10.6667 52.5771-8.4375 52.5771-6.91667 53.0615-5.70312 54.0302-4.79687 54.999-3.89062 56.4208-3.4375 58.2958-3.4375ZM93.0354 0C90.5771 0 88.6917-0.390625 87.3792-1.17187 86.0667-1.95312 85.1656-3.07812 84.676-4.54687 84.1865-6.01562 83.9417-7.78125 83.9417-9.84375L83.9417-26.2187 78.8479-26.2187 78.8479-30.4375 83.9417-30.4375 83.9417-37.4062 89.1292-37.4062 89.1292-30.4375 96.6292-30.4375 96.6292-26.2187 89.1292-26.2187 89.1292-10.0937C89.1292-8.19792 89.374-6.74479 89.8635-5.73437 90.3531-4.72396 91.525-4.21875 93.3792-4.21875L96.6917-4.21875 96.6917 0ZM111.096 0.5625C109.346 0.5625 107.747 0.229167 106.299-0.4375 104.851-1.10417 103.695-2.08854 102.83-3.39062 101.966-4.69271 101.533-6.30208 101.533-8.21875 101.533-10.9479 102.387-13.0208 104.096-14.4375 105.804-15.8542 108.221-16.8177 111.346-17.3281 114.471-17.8385 118.127-18.1146 122.315-18.1562L122.315-20.2812C122.315-22.8854 121.669-24.6719 120.377-25.6406 119.085-26.6094 117.45-27.0937 115.471-27.0937 113.367-27.0937 111.596-26.5625 110.158-25.5 108.721-24.4375 108.002-22.7604 108.002-20.4687L102.94-20.4687C102.94-22.9687 103.476-24.9896 104.549-26.5312 105.622-28.0729 107.101-29.1979 108.986-29.9062 110.872-30.6146 113.033-30.9687 115.471-30.9687 117.033-30.9687 118.528-30.8229 119.955-30.5312 121.382-30.2396 122.664-29.7083 123.799-28.9375 124.934-28.1667 125.835-27.0885 126.502-25.7031 127.169-24.3177 127.502-22.5312 127.502-20.3437L127.502 0 122.627 0 122.408-4.625C121.012-3.0625 119.393-1.80729 117.549-0.859375 115.705 0.0885416 113.554 0.5625 111.096 0.5625ZM112.471-3.4375C114.554-3.4375 116.429-3.92708 118.096-4.90625 119.762-5.88542 121.158-7.125 122.283-8.625L122.283-14.8125C116.742-14.75 112.768-14.2292 110.361-13.25 107.955-12.2708 106.752-10.6667 106.752-8.4375 106.752-6.91667 107.236-5.70312 108.205-4.79687 109.174-3.89062 110.596-3.4375 112.471-3.4375ZM150.804 11.1875 150.804-30.4375 155.867-30.4375 156.023-25.4687C157.106-27.0937 158.507-28.4167 160.226-29.4375 161.945-30.4583 163.94-30.9687 166.21-30.9687 168.71-30.9687 170.867-30.3802 172.679-29.2031 174.492-28.026 175.893-26.2708 176.882-23.9375 177.872-21.6042 178.367-18.6979 178.367-15.2187 178.367-11.7812 177.841-8.89062 176.789-6.54687 175.736-4.20312 174.252-2.43229 172.335-1.23437 170.419-0.0364584 168.169 0.5625 165.585 0.5625 163.419 0.5625 161.523 0.130208 159.898-0.734375 158.273-1.59896 156.971-2.78125 155.992-4.28125L155.992 11.1875ZM164.617-3.71875C167.387-3.71875 169.476-4.71354 170.882-6.70312 172.289-8.69271 172.992-11.5312 172.992-15.2187 172.992-18.9479 172.335-21.8021 171.023-23.7812 169.71-25.7604 167.783-26.75 165.242-26.75 163.012-26.75 161.132-26.1562 159.601-24.9687 158.07-23.7812 156.877-22.3958 156.023-20.8125L156.023-9.0625C156.856-7.47917 157.981-6.19271 159.398-5.20312 160.815-4.21354 162.554-3.71875 164.617-3.71875ZM186.898 0 186.898-30.4375 191.804-30.4375 191.992-25.25C192.846-26.8333 194.033-28.1562 195.554-29.2187 197.075-30.2812 199.054-30.8125 201.492-30.8125L202.117-30.8125 202.117-26.0312 201.398-26.0312C199.877-26.0312 198.544-25.8333 197.398-25.4375 196.252-25.0417 195.252-24.4948 194.398-23.7969 193.544-23.099 192.783-22.2917 192.117-21.375L192.117 0ZM219.881 0.5625C216.569 0.5625 213.855-0.130208 211.741-1.51562 209.626-2.90104 208.058-4.78646 207.037-7.17187 206.017-9.55729 205.506-12.2396 205.506-15.2187 205.506-18.3229 206.001-21.0573 206.991-23.4219 207.98-25.7865 209.491-27.6354 211.522-28.9687 213.553-30.3021 216.131-30.9687 219.256-30.9687 223.402-30.9687 226.652-29.7187 229.006-27.2187 231.36-24.7187 232.537-21.125 232.537-16.4375 232.537-16.125 232.527-15.7552 232.506-15.3281 232.485-14.901 232.454-14.5937 232.412-14.4062L210.725-14.4062C210.746-12.4271 211.064-10.6094 211.678-8.95312 212.293-7.29687 213.267-5.96875 214.6-4.96875 215.933-3.96875 217.694-3.46875 219.881-3.46875 222.215-3.46875 224.037-4.01562 225.35-5.10937 226.662-6.20312 227.35-7.78125 227.412-9.84375L232.569-9.84375C232.506-7.69792 231.954-5.84896 230.912-4.29687 229.871-2.74479 228.412-1.54687 226.537-0.703125 224.662 0.140625 222.444 0.5625 219.881 0.5625ZM210.756-18.2187 227.381-18.2187C227.319-21.0521 226.579-23.2187 225.162-24.7187 223.746-26.2187 221.777-26.9687 219.256-26.9687 216.715-26.9687 214.72-26.224 213.272-24.7344 211.824-23.2448 210.985-21.0729 210.756-18.2187Z" transform="matrix(1 0 0 1 81.1885 98)"/><path d="M3.09375-13.2187 3.09375-17.8437 18.6875-17.8437 18.6875-13.2187Z" transform="matrix(1 0 0 1 317.184 98)"/><path d="M5.03125 11.1875 5.03125-30.4375 10.0937-30.4375 10.25-25.4687C11.3333-27.0937 12.7344-28.4167 14.4531-29.4375 16.1719-30.4583 18.1667-30.9687 20.4375-30.9687 22.9375-30.9687 25.0937-30.3802 26.9062-29.2031 28.7187-28.026 30.1198-26.2708 31.1094-23.9375 32.099-21.6042 32.5937-18.6979 32.5937-15.2187 32.5937-11.7812 32.0677-8.89062 31.0156-6.54687 29.9635-4.20312 28.4792-2.43229 26.5625-1.23437 24.6458-0.0364584 22.3958 0.5625 19.8125 0.5625 17.6458 0.5625 15.75 0.130208 14.125-0.734375 12.5-1.59896 11.1979-2.78125 10.2187-4.28125L10.2187 11.1875ZM18.8437-3.71875C21.6146-3.71875 23.7031-4.71354 25.1094-6.70312 26.5156-8.69271 27.2187-11.5312 27.2187-15.2187 27.2187-18.9479 26.5625-21.8021 25.25-23.7812 23.9375-25.7604 22.0104-26.75 19.4687-26.75 17.2396-26.75 15.3594-26.1562 13.8281-24.9687 12.2969-23.7812 11.1042-22.3958 10.25-20.8125L10.25-9.0625C11.0833-7.47917 12.2083-6.19271 13.625-5.20312 15.0417-4.21354 16.7812-3.71875 18.8437-3.71875ZM41.125 0 41.125-30.4375 46.0312-30.4375 46.2187-25.25C47.0729-26.8333 48.2604-28.1562 49.7812-29.2187 51.3021-30.2812 53.2812-30.8125 55.7187-30.8125L56.3437-30.8125 56.3437-26.0312 55.625-26.0312C54.1042-26.0312 52.7708-25.8333 51.625-25.4375 50.4792-25.0417 49.4792-24.4948 48.625-23.7969 47.7708-23.099 47.0104-22.2917 46.3437-21.375L46.3437 0ZM73.9208 0.5C70.9417 0.5 68.3896-0.130208 66.2646-1.39062 64.1396-2.65104 62.5198-4.45312 61.4052-6.79687 60.2906-9.14062 59.7333-11.9271 59.7333-15.1562 59.7333-18.4687 60.2906-21.3073 61.4052-23.6719 62.5198-26.0365 64.1396-27.8542 66.2646-29.125 68.3896-30.3958 70.9417-31.0312 73.9208-31.0312 76.9625-31.0312 79.5614-30.3958 81.7177-29.125 83.8739-27.8542 85.5302-26.0365 86.6865-23.6719 87.8427-21.3073 88.4208-18.4687 88.4208-15.1562 88.4208-11.9271 87.8427-9.14062 86.6865-6.79687 85.5302-4.45312 83.8739-2.65104 81.7177-1.39062 79.5614-0.130208 76.9625 0.5 73.9208 0.5ZM73.9208-3.65625C76.1708-3.65625 77.9625-4.15104 79.2958-5.14062 80.6292-6.13021 81.5875-7.49479 82.1708-9.23437 82.7542-10.974 83.0458-12.9479 83.0458-15.1562 83.0458-17.4062 82.7542-19.4167 82.1708-21.1875 81.5875-22.9583 80.6292-24.349 79.2958-25.3594 77.9625-26.3698 76.1708-26.875 73.9208-26.875 71.7333-26.875 69.999-26.3698 68.7177-25.3594 67.4365-24.349 66.5146-22.9583 65.9521-21.1875 65.3896-19.4167 65.1083-17.4062 65.1083-15.1562 65.1083-12.9479 65.3896-10.974 65.9521-9.23437 66.5146-7.49479 67.4365-6.13021 68.7177-5.14062 69.999-4.15104 71.7333-3.65625 73.9208-3.65625ZM109.348 0.53125C106.598 0.53125 104.16-0.046875 102.035-1.20312 99.9104-2.35937 98.249-4.09896 97.051-6.42187 95.8531-8.74479 95.2542-11.6562 95.2542-15.1562 95.2542-18.6562 95.8427-21.5781 97.0198-23.9219 98.1969-26.2656 99.8427-28.026 101.957-29.2031 104.072-30.3802 106.535-30.9687 109.348-30.9687 111.702-30.9687 113.822-30.5833 115.707-29.8125 117.593-29.0417 119.098-27.8802 120.223-26.3281 121.348-24.776 121.942-22.8125 122.004-20.4375L116.848-20.4375C116.723-22.3958 116.015-23.9375 114.723-25.0625 113.431-26.1875 111.671-26.75 109.442-26.75 106.483-26.75 104.275-25.7344 102.817-23.7031 101.358-21.6719 100.629-18.8229 100.629-15.1562 100.629-12.7187 100.952-10.651 101.598-8.95312 102.244-7.25521 103.223-5.95312 104.535-5.04687 105.848-4.14062 107.483-3.6875 109.442-3.6875 111.671-3.6875 113.483-4.26562 114.879-5.42187 116.275-6.57812 117.004-8.27083 117.067-10.5L122.223-10.5C122.16-8.04167 121.561-5.99479 120.426-4.35937 119.291-2.72396 117.759-1.5 115.832-0.6875 113.905 0.125 111.744 0.53125 109.348 0.53125ZM143.431 0.5625C140.119 0.5625 137.405-0.130208 135.291-1.51562 133.176-2.90104 131.608-4.78646 130.587-7.17187 129.567-9.55729 129.056-12.2396 129.056-15.2187 129.056-18.3229 129.551-21.0573 130.541-23.4219 131.53-25.7865 133.041-27.6354 135.072-28.9687 137.103-30.3021 139.681-30.9687 142.806-30.9687 146.952-30.9687 150.202-29.7187 152.556-27.2187 154.91-24.7187 156.087-21.125 156.087-16.4375 156.087-16.125 156.077-15.7552 156.056-15.3281 156.035-14.901 156.004-14.5937 155.962-14.4062L134.275-14.4062C134.296-12.4271 134.614-10.6094 135.228-8.95312 135.843-7.29687 136.817-5.96875 138.15-4.96875 139.483-3.96875 141.244-3.46875 143.431-3.46875 145.765-3.46875 147.587-4.01562 148.9-5.10937 150.212-6.20312 150.9-7.78125 150.962-9.84375L156.119-9.84375C156.056-7.69792 155.504-5.84896 154.462-4.29687 153.421-2.74479 151.962-1.54687 150.087-0.703125 148.212 0.140625 145.994 0.5625 143.431 0.5625ZM134.306-18.2187 150.931-18.2187C150.869-21.0521 150.129-23.2187 148.712-24.7187 147.296-26.2187 145.327-26.9687 142.806-26.9687 140.265-26.9687 138.27-26.224 136.822-24.7344 135.374-23.2448 134.535-21.0729 134.306-18.2187ZM175.358 0.5625C173.65 0.5625 172.03 0.375 170.499 0 168.968-0.375 167.619-0.96875 166.452-1.78125 165.285-2.59375 164.374-3.66146 163.718-4.98437 163.061-6.30729 162.733-7.90625 162.733-9.78125L167.765-9.78125C167.765-7.40625 168.499-5.73437 169.968-4.76562 171.436-3.79687 173.275-3.3125 175.483-3.3125 177.462-3.3125 179.093-3.69271 180.374-4.45312 181.655-5.21354 182.296-6.46875 182.296-8.21875 182.296-9.71875 181.718-10.8333 180.561-11.5625 179.405-12.2917 177.369-13 174.452-13.6875 172.077-14.25 170.077-14.901 168.452-15.6406 166.827-16.3802 165.608-17.3177 164.796-18.4531 163.983-19.5885 163.577-21.0208 163.577-22.75 163.577-24.1042 163.864-25.2969 164.436-26.3281 165.009-27.3594 165.811-28.2187 166.843-28.9062 167.874-29.5937 169.087-30.1094 170.483-30.4531 171.879-30.7969 173.39-30.9687 175.015-30.9687 176.619-30.9687 178.124-30.7812 179.53-30.4062 180.936-30.0312 182.176-29.4479 183.249-28.6562 184.322-27.8646 185.171-26.8437 185.796-25.5937 186.421-24.3437 186.733-22.8437 186.733-21.0937L181.671-21.0937C181.671-23.2604 181.025-24.7917 179.733-25.6875 178.442-26.5833 176.869-27.0312 175.015-27.0312 173.14-27.0312 171.619-26.6979 170.452-26.0312 169.285-25.3646 168.702-24.3229 168.702-22.9062 168.702-22.0937 168.962-21.4062 169.483-20.8437 170.004-20.2812 170.879-19.776 172.108-19.3281 173.337-18.8802 174.994-18.4062 177.077-17.9062 179.348-17.3646 181.254-16.7187 182.796-15.9687 184.337-15.2187 185.499-14.2552 186.28-13.0781 187.061-11.901 187.452-10.3958 187.452-8.5625 187.452-6.97917 187.145-5.60937 186.53-4.45312 185.916-3.29687 185.061-2.34896 183.968-1.60937 182.874-0.869792 181.593-0.322917 180.124 0.03125 178.655 0.385417 177.067 0.5625 175.358 0.5625ZM206.296 0.5625C204.587 0.5625 202.968 0.375 201.436 0 199.905-0.375 198.556-0.96875 197.39-1.78125 196.223-2.59375 195.311-3.66146 194.655-4.98437 193.999-6.30729 193.671-7.90625 193.671-9.78125L198.702-9.78125C198.702-7.40625 199.436-5.73437 200.905-4.76562 202.374-3.79687 204.212-3.3125 206.421-3.3125 208.4-3.3125 210.03-3.69271 211.311-4.45312 212.593-5.21354 213.233-6.46875 213.233-8.21875 213.233-9.71875 212.655-10.8333 211.499-11.5625 210.343-12.2917 208.306-13 205.39-13.6875 203.015-14.25 201.015-14.901 199.39-15.6406 197.765-16.3802 196.546-17.3177 195.733-18.4531 194.921-19.5885 194.515-21.0208 194.515-22.75 194.515-24.1042 194.801-25.2969 195.374-26.3281 195.947-27.3594 196.749-28.2187 197.78-28.9062 198.811-29.5937 200.025-30.1094 201.421-30.4531 202.817-30.7969 204.327-30.9687 205.952-30.9687 207.556-30.9687 209.061-30.7812 210.468-30.4062 211.874-30.0312 213.114-29.4479 214.186-28.6562 215.259-27.8646 216.108-26.8437 216.733-25.5937 217.358-24.3437 217.671-22.8437 217.671-21.0937L212.608-21.0937C212.608-23.2604 211.962-24.7917 210.671-25.6875 209.379-26.5833 207.806-27.0312 205.952-27.0312 204.077-27.0312 202.556-26.6979 201.39-26.0312 200.223-25.3646 199.64-24.3229 199.64-22.9062 199.64-22.0937 199.9-21.4062 200.421-20.8437 200.942-20.2812 201.817-19.776 203.046-19.3281 204.275-18.8802 205.931-18.4062 208.015-17.9062 210.285-17.3646 212.192-16.7187 213.733-15.9687 215.275-15.2187 216.436-14.2552 217.218-13.0781 217.999-11.901 218.39-10.3958 218.39-8.5625 218.39-6.97917 218.082-5.60937 217.468-4.45312 216.853-3.29687 215.999-2.34896 214.905-1.60937 213.811-0.869792 212.53-0.322917 211.061 0.03125 209.593 0.385417 208.004 0.5625 206.296 0.5625ZM226.452 0 226.452-30.4375 231.671-30.4375 231.671 0ZM229.046-36.1562C228.067-36.1562 227.28-36.4427 226.686-37.0156 226.093-37.5885 225.796-38.3125 225.796-39.1875 225.796-40.0625 226.093-40.7865 226.686-41.3594 227.28-41.9323 228.067-42.2187 229.046-42.2187 230.025-42.2187 230.817-41.9323 231.421-41.3594 232.025-40.7865 232.327-40.0625 232.327-39.1875 232.327-38.3125 232.025-37.5885 231.421-37.0156 230.817-36.4427 230.025-36.1562 229.046-36.1562ZM241.921 0 241.921-30.4375 246.921-30.4375 247.108-25.75C248.046-26.9792 249.39-28.1406 251.14-29.2344 252.89-30.3281 255.129-30.875 257.858-30.875 261.192-30.875 263.619-29.8906 265.14-27.9219 266.66-25.9531 267.421-23.1875 267.421-19.625L267.421 0 262.202 0 262.202-18.875C262.202-20.3542 262.046-21.6667 261.733-22.8125 261.421-23.9583 260.864-24.8594 260.061-25.5156 259.259-26.1719 258.098-26.5 256.577-26.5 254.306-26.5 252.4-25.9844 250.858-24.9531 249.317-23.9219 248.077-22.7917 247.14-21.5625L247.14 0ZM288.035 11.7812C284.744 11.7812 282.114 11.4062 280.145 10.6562 278.176 9.90625 276.754 8.90625 275.879 7.65625 275.004 6.40625 274.567 5.05208 274.567 3.59375 274.567 1.82292 275.322 0.25 276.832-1.125 278.343-2.5 280.671-3.46875 283.817-4.03125L284.817-5.75 288.66-5.75C293.66-5.75 297.233-5.08854 299.379-3.76562 301.525-2.44271 302.598-0.395833 302.598 2.375 302.598 5.125 301.374 7.38021 298.926 9.14062 296.478 10.901 292.848 11.7812 288.035 11.7812ZM287.91 8C291.452 8 293.947 7.5 295.395 6.5 296.843 5.5 297.567 4.26042 297.567 2.78125 297.567 1.90625 297.322 1.15104 296.832 0.515625 296.343-0.119792 295.436-0.614583 294.114-0.96875 292.791-1.32292 290.91-1.5 288.473-1.5L283.848-1.5C282.431-1.14583 281.337-0.541667 280.567 0.3125 279.796 1.16667 279.41 2.15625 279.41 3.28125 279.41 4.53125 280.067 5.63021 281.379 6.57812 282.692 7.52604 284.869 8 287.91 8ZM283.754-1.78125C281.775-1.98958 280.218-2.40104 279.082-3.01562 277.947-3.63021 277.14-4.31771 276.66-5.07812 276.181-5.83854 275.942-6.57292 275.942-7.28125 275.942-8.30208 276.353-9.26562 277.176-10.1719 277.999-11.0781 279.348-11.8229 281.223-12.4062L283.817-10.7812C282.712-10.4687 281.837-10.0677 281.192-9.57812 280.546-9.08854 280.223-8.54167 280.223-7.9375 280.223-7.52083 280.416-7.15104 280.801-6.82812 281.186-6.50521 281.843-6.24479 282.77-6.04687 283.697-5.84896 284.983-5.75 286.629-5.75ZM287.66-9.84375C285.16-9.84375 283.041-10.3281 281.301-11.2969 279.561-12.2656 278.244-13.5365 277.348-15.1094 276.452-16.6823 276.004-18.3854 276.004-20.2187 276.004-22.1562 276.457-23.9167 277.364-25.5 278.27-27.0833 279.603-28.3437 281.364-29.2812 283.124-30.2187 285.275-30.6875 287.817-30.6875 290.421-30.6875 292.587-30.2187 294.317-29.2812 296.046-28.3437 297.337-27.0833 298.192-25.5 299.046-23.9167 299.473-22.1562 299.473-20.2187 299.473-18.3437 299.041-16.6198 298.176-15.0469 297.311-13.474 296.004-12.2135 294.254-11.2656 292.504-10.3177 290.306-9.84375 287.66-9.84375ZM287.629-13.4062C289.629-13.4062 291.28-13.9792 292.582-15.125 293.884-16.2708 294.535-17.9687 294.535-20.2187 294.535-22.5729 293.921-24.3177 292.692-25.4531 291.462-26.5885 289.837-27.1562 287.817-27.1562 285.837-27.1562 284.197-26.5729 282.895-25.4062 281.593-24.2396 280.942-22.5208 280.942-20.25 280.942-17.9583 281.614-16.2448 282.957-15.1094 284.301-13.974 285.858-13.4062 287.629-13.4062ZM295.598-27.3437 293.473-29.3125C294.369-31.2708 295.541-32.6042 296.989-33.3125 298.436-34.0208 300.306-34.4062 302.598-34.4687L302.598-30.0625C301.14-30.0625 299.801-29.9115 298.582-29.6094 297.364-29.3073 296.369-28.5521 295.598-27.3437Z" transform="matrix(1 0 0 1 58.4093 175)"/></g></g></g><path d="M1940.5 538.834C1940.5 514.901 1959.9 495.5 1983.83 495.5L2339.17 495.5C2363.1 495.5 2382.5 514.901 2382.5 538.834L2382.5 712.166C2382.5 736.099 2363.1 755.5 2339.17 755.5L1983.83 755.5C1959.9 755.5 1940.5 736.099 1940.5 712.166Z" stroke="#042433" stroke-width="6.875" stroke-miterlimit="8" fill="#BFBFBF" fill-rule="evenodd"/><text font-family="Aptos,Aptos_MSFontService,sans-serif" font-weight="400" font-size="64" transform="matrix(1 0 0 1 2032.47 607)">Data pre</text><text font-family="Aptos,Aptos_MSFontService,sans-serif" font-weight="400" font-size="64" transform="matrix(1 0 0 1 2268.46 607)">-</text><text font-family="Aptos,Aptos_MSFontService,sans-serif" font-weight="400" font-size="64" transform="matrix(1 0 0 1 2009.69 684)">processing</text><g clip-path="url(#clip15)"><g filter="url(#fx4)" transform="translate(2818 482)"><g><path d="M23.2227 66.5566C23.2227 42.6239 42.6239 23.2226 66.5566 23.2226L434.889 23.2226C458.822 23.2226 478.223 42.6239 478.223 66.5566L478.223 239.889C478.223 263.821 458.822 283.223 434.889 283.223L66.5566 283.223C42.6239 283.223 23.2227 263.821 23.2227 239.889Z" stroke="#042433" stroke-width="7" stroke-miterlimit="8" fill="#BFBFBF" fill-rule="evenodd"/></g></g><g clip-path="url(#clip16)" filter="url(#fx5)" transform="translate(2827 519)"><g><path d="M12.5312 0 12.5312-37.3437 0.5625-37.3437 0.5625-42.0625 30.0625-42.0625 30.0625-37.3437 18.125-37.3437 18.125 0ZM38.9771 0.5625C37.2271 0.5625 35.6281 0.229167 34.1802-0.4375 32.7323-1.10417 31.576-2.08854 30.7115-3.39062 29.8469-4.69271 29.4146-6.30208 29.4146-8.21875 29.4146-10.9479 30.2687-13.0208 31.9771-14.4375 33.6854-15.8542 36.1021-16.8177 39.2271-17.3281 42.3521-17.8385 46.0083-18.1146 50.1958-18.1562L50.1958-20.2812C50.1958-22.8854 49.55-24.6719 48.2583-25.6406 46.9667-26.6094 45.3312-27.0937 43.3521-27.0937 41.2479-27.0937 39.4771-26.5625 38.0396-25.5 36.6021-24.4375 35.8833-22.7604 35.8833-20.4687L30.8208-20.4687C30.8208-22.9687 31.3573-24.9896 32.4302-26.5312 33.5031-28.0729 34.9823-29.1979 36.8677-29.9062 38.7531-30.6146 40.9146-30.9687 43.3521-30.9687 44.9146-30.9687 46.4094-30.8229 47.8365-30.5312 49.2635-30.2396 50.5448-29.7083 51.6802-28.9375 52.8156-28.1667 53.7167-27.0885 54.3833-25.7031 55.05-24.3177 55.3833-22.5312 55.3833-20.3437L55.3833 0 50.5083 0 50.2896-4.625C48.8937-3.0625 47.274-1.80729 45.4302-0.859375 43.5865 0.0885416 41.4354 0.5625 38.9771 0.5625ZM40.3521-3.4375C42.4354-3.4375 44.3104-3.92708 45.9771-4.90625 47.6437-5.88542 49.0396-7.125 50.1646-8.625L50.1646-14.8125C44.6229-14.75 40.649-14.2292 38.2427-13.25 35.8365-12.2708 34.6333-10.6667 34.6333-8.4375 34.6333-6.91667 35.1177-5.70312 36.0865-4.79687 37.0552-3.89062 38.4771-3.4375 40.3521-3.4375ZM76.2896 0.5625C74.5812 0.5625 72.9614 0.375 71.4302 0 69.8989-0.375 68.55-0.96875 67.3833-1.78125 66.2167-2.59375 65.3052-3.66146 64.6489-4.98437 63.9927-6.30729 63.6646-7.90625 63.6646-9.78125L68.6958-9.78125C68.6958-7.40625 69.4302-5.73437 70.8989-4.76562 72.3677-3.79687 74.2062-3.3125 76.4146-3.3125 78.3937-3.3125 80.0239-3.69271 81.3052-4.45312 82.5864-5.21354 83.2271-6.46875 83.2271-8.21875 83.2271-9.71875 82.6489-10.8333 81.4927-11.5625 80.3364-12.2917 78.3-13 75.3833-13.6875 73.0083-14.25 71.0083-14.901 69.3833-15.6406 67.7583-16.3802 66.5396-17.3177 65.7271-18.4531 64.9146-19.5885 64.5083-21.0208 64.5083-22.75 64.5083-24.1042 64.7948-25.2969 65.3677-26.3281 65.9406-27.3594 66.7427-28.2187 67.7739-28.9062 68.8052-29.5937 70.0187-30.1094 71.4146-30.4531 72.8104-30.7969 74.3208-30.9687 75.9458-30.9687 77.55-30.9687 79.0552-30.7812 80.4614-30.4062 81.8677-30.0312 83.1073-29.4479 84.1802-28.6562 85.2531-27.8646 86.1021-26.8437 86.7271-25.5937 87.3521-24.3437 87.6646-22.8437 87.6646-21.0937L82.6021-21.0937C82.6021-23.2604 81.9562-24.7917 80.6646-25.6875 79.3729-26.5833 77.8-27.0312 75.9458-27.0312 74.0708-27.0312 72.55-26.6979 71.3833-26.0312 70.2167-25.3646 69.6333-24.3229 69.6333-22.9062 69.6333-22.0937 69.8937-21.4062 70.4146-20.8437 70.9354-20.2812 71.8104-19.776 73.0396-19.3281 74.2687-18.8802 75.925-18.4062 78.0083-17.9062 80.2792-17.3646 82.1854-16.7187 83.7271-15.9687 85.2687-15.2187 86.4302-14.2552 87.2114-13.0781 87.9927-11.901 88.3833-10.3958 88.3833-8.5625 88.3833-6.97917 88.076-5.60937 87.4614-4.45312 86.8469-3.29687 85.9927-2.34896 84.8989-1.60937 83.8052-0.869792 82.5239-0.322917 81.0552 0.03125 79.5864 0.385417 77.9979 0.5625 76.2896 0.5625ZM96.4458 0 96.4458-42.0625 101.665-42.0625 101.665-16.0937 115.415-30.4375 121.571-30.4375 107.821-16.1875 122.821 0 116.321 0 101.665-15.8125 101.665 0Z" transform="matrix(1 0 0 1 179.719 98)"/><path d="M5.03125 0 5.03125-30.4375 10.25-30.4375 10.25 0ZM7.625-36.1562C6.64583-36.1562 5.85937-36.4427 5.26562-37.0156 4.67187-37.5885 4.375-38.3125 4.375-39.1875 4.375-40.0625 4.67187-40.7865 5.26562-41.3594 5.85937-41.9323 6.64583-42.2187 7.625-42.2187 8.60417-42.2187 9.39583-41.9323 10-41.3594 10.6042-40.7865 10.9062-40.0625 10.9062-39.1875 10.9062-38.3125 10.6042-37.5885 10-37.0156 9.39583-36.4427 8.60417-36.1562 7.625-36.1562ZM30.9062 0.5625C28.4271 0.5625 26.2812-0.03125 24.4687-1.21875 22.6562-2.40625 21.2552-4.18229 20.2656-6.54687 19.276-8.91146 18.7812-11.8333 18.7812-15.3125 18.7812-18.7708 19.3073-21.6562 20.3594-23.9687 21.4115-26.2812 22.8958-28.026 24.8125-29.2031 26.7292-30.3802 28.9896-30.9687 31.5937-30.9687 33.7604-30.9687 35.6458-30.4948 37.25-29.5469 38.8542-28.599 40.1458-27.3125 41.125-25.6875L41.125-42.0625 46.3437-42.0625 46.3437 0 41.4062 0 41.125-4.4375C40.0417-2.95833 38.6458-1.75521 36.9375-0.828125 35.2292 0.0989583 33.2187 0.5625 30.9062 0.5625ZM31.9687-3.71875C34.1979-3.71875 36.0521-4.24479 37.5312-5.29687 39.0104-6.34896 40.2083-7.61458 41.125-9.09375L41.125-20.8125C40.2708-22.5208 39.151-23.9323 37.7656-25.0469 36.3802-26.1615 34.6354-26.7187 32.5312-26.7187 29.7604-26.7187 27.6719-25.7292 26.2656-23.75 24.8594-21.7708 24.1562-18.9583 24.1562-15.3125 24.1562-11.5417 24.8177-8.66667 26.1406-6.6875 27.4635-4.70833 29.4062-3.71875 31.9687-3.71875ZM69.25 0.5625C65.9375 0.5625 63.224-0.130208 61.1094-1.51562 58.9948-2.90104 57.4271-4.78646 56.4062-7.17187 55.3854-9.55729 54.875-12.2396 54.875-15.2187 54.875-18.3229 55.3698-21.0573 56.3594-23.4219 57.349-25.7865 58.8594-27.6354 60.8906-28.9687 62.9219-30.3021 65.5-30.9687 68.625-30.9687 72.7708-30.9687 76.0208-29.7187 78.375-27.2187 80.7292-24.7187 81.9062-21.125 81.9062-16.4375 81.9062-16.125 81.8958-15.7552 81.875-15.3281 81.8542-14.901 81.8229-14.5937 81.7812-14.4062L60.0937-14.4062C60.1146-12.4271 60.4323-10.6094 61.0469-8.95312 61.6615-7.29687 62.6354-5.96875 63.9687-4.96875 65.3021-3.96875 67.0625-3.46875 69.25-3.46875 71.5833-3.46875 73.4062-4.01562 74.7187-5.10937 76.0312-6.20312 76.7187-7.78125 76.7812-9.84375L81.9375-9.84375C81.875-7.69792 81.3229-5.84896 80.2812-4.29687 79.2396-2.74479 77.7812-1.54687 75.9062-0.703125 74.0312 0.140625 71.8125 0.5625 69.25 0.5625ZM60.125-18.2187 76.75-18.2187C76.6875-21.0521 75.9479-23.2187 74.5312-24.7187 73.1146-26.2187 71.1458-26.9687 68.625-26.9687 66.0833-26.9687 64.0885-26.224 62.6406-24.7344 61.1927-23.2448 60.3542-21.0729 60.125-18.2187ZM90.3958 0 90.3958-30.4375 95.3958-30.4375 95.5833-25.75C96.5208-26.9792 97.8646-28.1406 99.6146-29.2344 101.365-30.3281 103.604-30.875 106.333-30.875 109.667-30.875 112.094-29.8906 113.615-27.9219 115.135-25.9531 115.896-23.1875 115.896-19.625L115.896 0 110.677 0 110.677-18.875C110.677-20.3542 110.521-21.6667 110.208-22.8125 109.896-23.9583 109.339-24.8594 108.536-25.5156 107.734-26.1719 106.573-26.5 105.052-26.5 102.781-26.5 100.875-25.9844 99.3333-24.9531 97.7917-23.9219 96.5521-22.7917 95.6146-21.5625L95.6146 0ZM136.073 0C133.615 0 131.729-0.390625 130.417-1.17187 129.104-1.95312 128.203-3.07812 127.714-4.54687 127.224-6.01562 126.979-7.78125 126.979-9.84375L126.979-26.2187 121.885-26.2187 121.885-30.4375 126.979-30.4375 126.979-37.4062 132.167-37.4062 132.167-30.4375 139.667-30.4375 139.667-26.2187 132.167-26.2187 132.167-10.0937C132.167-8.19792 132.411-6.74479 132.901-5.73437 133.391-4.72396 134.562-4.21875 136.417-4.21875L139.729-4.21875 139.729 0ZM146.542 0 146.542-30.4375 151.76-30.4375 151.76 0ZM149.135-36.1562C148.156-36.1562 147.37-36.4427 146.776-37.0156 146.182-37.5885 145.885-38.3125 145.885-39.1875 145.885-40.0625 146.182-40.7865 146.776-41.3594 147.37-41.9323 148.156-42.2187 149.135-42.2187 150.115-42.2187 150.906-41.9323 151.51-41.3594 152.115-40.7865 152.417-40.0625 152.417-39.1875 152.417-38.3125 152.115-37.5885 151.51-37.0156 150.906-36.4427 150.115-36.1562 149.135-36.1562ZM163.073 0 163.073-26.2187 157.979-26.2187 157.979-30.4375 163.073-30.4375 163.073-32.1875C163.073-33.7292 163.203-35.1146 163.464-36.3437 163.724-37.5729 164.182-38.6094 164.839-39.4531 165.495-40.2969 166.411-40.9427 167.589-41.3906 168.766-41.8385 170.292-42.0625 172.167-42.0625L175.323-42.0625 175.323-37.9687 172.51-37.9687C170.656-37.9687 169.484-37.4687 168.995-36.4687 168.505-35.4687 168.26-34.0208 168.26-32.125L168.26-30.4375 175.354-30.4375 175.354-26.2187 168.26-26.2187 168.26 0ZM181.49 0 181.49-30.4375 186.708-30.4375 186.708 0ZM184.083-36.1562C183.104-36.1562 182.318-36.4427 181.724-37.0156 181.13-37.5885 180.833-38.3125 180.833-39.1875 180.833-40.0625 181.13-40.7865 181.724-41.3594 182.318-41.9323 183.104-42.2187 184.083-42.2187 185.062-42.2187 185.854-41.9323 186.458-41.3594 187.062-40.7865 187.365-40.0625 187.365-39.1875 187.365-38.3125 187.062-37.5885 186.458-37.0156 185.854-36.4427 185.062-36.1562 184.083-36.1562ZM209.333 0.53125C206.583 0.53125 204.146-0.046875 202.021-1.20312 199.896-2.35937 198.234-4.09896 197.036-6.42187 195.839-8.74479 195.24-11.6562 195.24-15.1562 195.24-18.6562 195.828-21.5781 197.005-23.9219 198.182-26.2656 199.828-28.026 201.943-29.2031 204.057-30.3802 206.521-30.9687 209.333-30.9687 211.688-30.9687 213.807-30.5833 215.693-29.8125 217.578-29.0417 219.083-27.8802 220.208-26.3281 221.333-24.776 221.927-22.8125 221.99-20.4375L216.833-20.4375C216.708-22.3958 216-23.9375 214.708-25.0625 213.417-26.1875 211.656-26.75 209.427-26.75 206.469-26.75 204.26-25.7344 202.802-23.7031 201.344-21.6719 200.615-18.8229 200.615-15.1562 200.615-12.7187 200.937-10.651 201.583-8.95312 202.229-7.25521 203.208-5.95312 204.521-5.04687 205.833-4.14062 207.469-3.6875 209.427-3.6875 211.656-3.6875 213.469-4.26562 214.865-5.42187 216.26-6.57812 216.99-8.27083 217.052-10.5L222.208-10.5C222.146-8.04167 221.547-5.99479 220.411-4.35937 219.276-2.72396 217.745-1.5 215.818-0.6875 213.891 0.125 211.729 0.53125 209.333 0.53125ZM238.237 0.5625C236.487 0.5625 234.889 0.229167 233.441-0.4375 231.993-1.10417 230.836-2.08854 229.972-3.39062 229.107-4.69271 228.675-6.30208 228.675-8.21875 228.675-10.9479 229.529-13.0208 231.237-14.4375 232.946-15.8542 235.362-16.8177 238.487-17.3281 241.612-17.8385 245.269-18.1146 249.456-18.1562L249.456-20.2812C249.456-22.8854 248.81-24.6719 247.519-25.6406 246.227-26.6094 244.592-27.0937 242.612-27.0937 240.508-27.0937 238.737-26.5625 237.3-25.5 235.862-24.4375 235.144-22.7604 235.144-20.4687L230.081-20.4687C230.081-22.9687 230.618-24.9896 231.691-26.5312 232.764-28.0729 234.243-29.1979 236.128-29.9062 238.014-30.6146 240.175-30.9687 242.612-30.9687 244.175-30.9687 245.67-30.8229 247.097-30.5312 248.524-30.2396 249.805-29.7083 250.941-28.9375 252.076-28.1667 252.977-27.0885 253.644-25.7031 254.31-24.3177 254.644-22.5312 254.644-20.3437L254.644 0 249.769 0 249.55-4.625C248.154-3.0625 246.534-1.80729 244.691-0.859375 242.847 0.0885416 240.696 0.5625 238.237 0.5625ZM239.612-3.4375C241.696-3.4375 243.571-3.92708 245.237-4.90625 246.904-5.88542 248.3-7.125 249.425-8.625L249.425-14.8125C243.883-14.75 239.909-14.2292 237.503-13.25 235.097-12.2708 233.894-10.6667 233.894-8.4375 233.894-6.91667 234.378-5.70312 235.347-4.79687 236.316-3.89062 237.737-3.4375 239.612-3.4375ZM274.352 0C271.894 0 270.008-0.390625 268.696-1.17187 267.383-1.95312 266.482-3.07812 265.993-4.54687 265.503-6.01562 265.258-7.78125 265.258-9.84375L265.258-26.2187 260.165-26.2187 260.165-30.4375 265.258-30.4375 265.258-37.4062 270.446-37.4062 270.446-30.4375 277.946-30.4375 277.946-26.2187 270.446-26.2187 270.446-10.0937C270.446-8.19792 270.691-6.74479 271.18-5.73437 271.67-4.72396 272.842-4.21875 274.696-4.21875L278.008-4.21875 278.008 0ZM284.821 0 284.821-30.4375 290.04-30.4375 290.04 0ZM287.415-36.1562C286.435-36.1562 285.649-36.4427 285.055-37.0156 284.461-37.5885 284.165-38.3125 284.165-39.1875 284.165-40.0625 284.461-40.7865 285.055-41.3594 285.649-41.9323 286.435-42.2187 287.415-42.2187 288.394-42.2187 289.185-41.9323 289.79-41.3594 290.394-40.7865 290.696-40.0625 290.696-39.1875 290.696-38.3125 290.394-37.5885 289.79-37.0156 289.185-36.4427 288.394-36.1562 287.415-36.1562ZM312.758 0.5C309.779 0.5 307.227-0.130208 305.102-1.39062 302.977-2.65104 301.357-4.45312 300.243-6.79687 299.128-9.14062 298.571-11.9271 298.571-15.1562 298.571-18.4687 299.128-21.3073 300.243-23.6719 301.357-26.0365 302.977-27.8542 305.102-29.125 307.227-30.3958 309.779-31.0312 312.758-31.0312 315.8-31.0312 318.399-30.3958 320.555-29.125 322.711-27.8542 324.368-26.0365 325.524-23.6719 326.68-21.3073 327.258-18.4687 327.258-15.1562 327.258-11.9271 326.68-9.14062 325.524-6.79687 324.368-4.45312 322.711-2.65104 320.555-1.39062 318.399-0.130208 315.8 0.5 312.758 0.5ZM312.758-3.65625C315.008-3.65625 316.8-4.15104 318.133-5.14062 319.467-6.13021 320.425-7.49479 321.008-9.23437 321.592-10.974 321.883-12.9479 321.883-15.1562 321.883-17.4062 321.592-19.4167 321.008-21.1875 320.425-22.9583 319.467-24.349 318.133-25.3594 316.8-26.3698 315.008-26.875 312.758-26.875 310.571-26.875 308.836-26.3698 307.555-25.3594 306.274-24.349 305.352-22.9583 304.79-21.1875 304.227-19.4167 303.946-17.4062 303.946-15.1562 303.946-12.9479 304.227-10.974 304.79-9.23437 305.352-7.49479 306.274-6.13021 307.555-5.14062 308.836-4.15104 310.571-3.65625 312.758-3.65625ZM335.81 0 335.81-30.4375 340.81-30.4375 340.998-25.75C341.935-26.9792 343.279-28.1406 345.029-29.2344 346.779-30.3281 349.019-30.875 351.748-30.875 355.081-30.875 357.508-29.8906 359.029-27.9219 360.55-25.9531 361.31-23.1875 361.31-19.625L361.31 0 356.092 0 356.092-18.875C356.092-20.3542 355.935-21.6667 355.623-22.8125 355.31-23.9583 354.753-24.8594 353.951-25.5156 353.149-26.1719 351.987-26.5 350.467-26.5 348.196-26.5 346.29-25.9844 344.748-24.9531 343.206-23.9219 341.967-22.7917 341.029-21.5625L341.029 0Z" transform="matrix(1 0 0 1 58.032 175)"/></g></g></g><path d="M2831.5 538.834C2831.5 514.901 2850.9 495.5 2874.83 495.5L3243.17 495.5C3267.1 495.5 3286.5 514.901 3286.5 538.834L3286.5 712.166C3286.5 736.099 3267.1 755.5 3243.17 755.5L2874.83 755.5C2850.9 755.5 2831.5 736.099 2831.5 712.166Z" stroke="#042433" stroke-width="6.875" stroke-miterlimit="8" fill="#BFBFBF" fill-rule="evenodd"/><text font-family="Aptos,Aptos_MSFontService,sans-serif" font-weight="400" font-size="64" transform="matrix(1 0 0 1 2997 607)">Task </text><text font-family="Aptos,Aptos_MSFontService,sans-serif" font-weight="400" font-size="64" transform="matrix(1 0 0 1 2875.31 684)">identification</text><g clip-path="url(#clip17)" filter="url(#fx6)" transform="translate(1483 569)"><g><path d="M19.7227 60.7227 453.371 60.723 453.371 70.723 19.7227 70.7227ZM425.89 43.9041 463.294 65.723 425.89 87.5419C423.505 88.9333 420.443 88.1276 419.052 85.7423 417.66 83.3571 418.466 80.2955 420.851 78.9041L450.851 61.4041 450.851 70.0419 420.851 52.5419C418.466 51.1505 417.66 48.0889 419.052 45.7036 420.443 43.3184 423.505 42.5127 425.89 43.9041Z"/></g></g><path d="M1493 619.844 1926.34 619.844 1926.34 630.157 1493 630.156ZM1898 602.5 1936.57 625 1898 647.501C1895.54 648.936 1892.38 648.105 1890.95 645.645 1889.51 643.185 1890.34 640.028 1892.8 638.593L1923.74 620.546 1923.74 629.454 1892.8 611.407C1890.34 609.972 1889.51 606.815 1890.95 604.355 1892.38 601.896 1895.54 601.065 1898 602.5Z"/><g clip-path="url(#clip18)" filter="url(#fx7)" transform="translate(2374 569)"><g><path d="M19.7227 60.7227 453.371 60.723 453.371 70.723 19.7227 70.7227ZM425.89 43.9041 463.294 65.723 425.89 87.5419C423.505 88.9333 420.443 88.1276 419.052 85.7423 417.66 83.3571 418.466 80.2955 420.851 78.9041L450.851 61.4041 450.851 70.0419 420.851 52.5419C418.466 51.1505 417.66 48.0889 419.052 45.7036 420.443 43.3184 423.505 42.5127 425.89 43.9041Z"/></g></g><path d="M2384 619.844 2817.34 619.844 2817.34 630.157 2384 630.156ZM2789 602.5 2827.57 625 2789 647.501C2786.54 648.936 2783.38 648.105 2781.95 645.645 2780.51 643.185 2781.34 640.028 2783.8 638.593L2814.74 620.546 2814.74 629.454 2783.8 611.407C2781.34 609.972 2780.51 606.815 2781.95 604.355 2783.38 601.896 2786.54 601.065 2789 602.5Z"/><g clip-path="url(#clip19)" filter="url(#fx8)" transform="translate(600 569)"><g><path d="M19.7229 60.7227 453.371 60.723 453.371 70.723 19.7229 70.7227ZM425.89 43.9041 463.294 65.723 425.89 87.5419C423.505 88.9333 420.443 88.1276 419.052 85.7423 417.661 83.3571 418.466 80.2955 420.852 78.9041L450.852 61.4041 450.852 70.0419 420.852 52.5419C418.466 51.1505 417.661 48.0889 419.052 45.7036 420.443 43.3184 423.505 42.5127 425.89 43.9041Z"/></g></g><path d="M610 619.844 1043.34 619.844 1043.34 630.157 610 630.156ZM1015 602.5 1053.57 625 1015 647.501C1012.54 648.936 1009.38 648.105 1007.95 645.645 1006.51 643.185 1007.34 640.028 1009.8 638.593L1040.74 620.546 1040.74 629.454 1009.8 611.407C1007.34 609.972 1006.51 606.815 1007.95 604.355 1009.38 601.896 1012.54 601.065 1015 602.5Z"/><g clip-path="url(#clip20)" filter="url(#fx9)" transform="translate(3272 569)"><g><path d="M19.7229 60.7227 453.371 60.723 453.371 70.723 19.7229 70.7227ZM425.89 43.9041 463.294 65.723 425.89 87.5419C423.505 88.9333 420.443 88.1276 419.052 85.7423 417.661 83.3571 418.466 80.2955 420.852 78.9041L450.852 61.4041 450.852 70.0419 420.852 52.5419C418.466 51.1505 417.661 48.0889 419.052 45.7036 420.443 43.3184 423.505 42.5127 425.89 43.9041Z"/></g></g><path d="M3282 619.844 3715.34 619.844 3715.34 630.157 3282 630.156ZM3687 602.5 3725.57 625 3687 647.501C3684.54 648.936 3681.38 648.105 3679.95 645.645 3678.51 643.185 3679.34 640.028 3681.8 638.593L3712.74 620.546 3712.74 629.454 3681.8 611.407C3679.34 609.972 3678.51 606.815 3679.95 604.355 3681.38 601.896 3684.54 601.065 3687 602.5Z"/><text font-family="Aptos,Aptos_MSFontService,sans-serif" font-weight="400" font-size="64" transform="matrix(1 0 0 1 636.168 739)">IMU raw data </text><text font-family="Aptos,Aptos_MSFontService,sans-serif" font-weight="400" font-size="64" transform="matrix(1 0 0 1 1534.38 739)">IMU raw data </text><text font-family="Aptos,Aptos_MSFontService,sans-serif" font-weight="400" font-size="64" transform="matrix(1 0 0 1 1580.97 816)">organized</text><text font-family="Aptos,Aptos_MSFontService,sans-serif" font-weight="400" font-size="64" transform="matrix(1 0 0 1 2446.79 739)">MWC linear </text><text font-family="Aptos,Aptos_MSFontService,sans-serif" font-weight="400" font-size="64" transform="matrix(1 0 0 1 2443.81 816)">and angular </text><text font-family="Aptos,Aptos_MSFontService,sans-serif" font-weight="400" font-size="64" transform="matrix(1 0 0 1 2522.57 893)">speed</text><text font-family="Aptos,Aptos_MSFontService,sans-serif" font-weight="400" font-size="64" transform="matrix(1 0 0 1 3339.8 739)">Locomotor </text><text font-family="Aptos,Aptos_MSFontService,sans-serif" font-weight="400" font-size="64" transform="matrix(1 0 0 1 3418.47 816)">tasks</text></g></svg>