<svg width="3216" height="467" xmlns="http://www.w3.org/2000/svg" xmlns:xlink="http://www.w3.org/1999/xlink" xml:space="preserve" overflow="hidden"><defs><filter id="fx0" x="-10%" y="-10%" width="120%" height="120%" filterUnits="userSpaceOnUse" primitiveUnits="userSpaceOnUse"><feComponentTransfer color-interpolation-filters="sRGB"><feFuncR type="discrete" tableValues="0 0"/><feFuncG type="discrete" tableValues="0 0"/><feFuncB type="discrete" tableValues="0 0"/><feFuncA type="linear" slope="0.4" intercept="0"/></feComponentTransfer><feGaussianBlur stdDeviation="6.11111 6.11111"/></filter><filter id="fx1" x="-10%" y="-10%" width="120%" height="120%" filterUnits="userSpaceOnUse" primitiveUnits="userSpaceOnUse"><feComponentTransfer color-interpolation-filters="sRGB"><feFuncR type="discrete" tableValues="0 0"/><feFuncG type="discrete" tableValues="0 0"/><feFuncB type="discrete" tableValues="0 0"/><feFuncA type="linear" slope="0.4" intercept="0"/></feComponentTransfer><feGaussianBlur stdDeviation="6.11111 6.11111"/></filter><filter id="fx2" x="-10%" y="-10%" width="120%" height="120%" filterUnits="userSpaceOnUse" primitiveUnits="userSpaceOnUse"><feComponentTransfer color-interpolation-filters="sRGB"><feFuncR type="discrete" tableValues="0 0"/><feFuncG type="discrete" tableValues="0 0"/><feFuncB type="discrete" tableValues="0 0"/><feFuncA type="linear" slope="0.4" intercept="0"/></feComponentTransfer><feGaussianBlur stdDeviation="6.11111 6.11111"/></filter><filter id="fx3" x="-10%" y="-10%" width="120%" height="120%" filterUnits="userSpaceOnUse" primitiveUnits="userSpaceOnUse"><feComponentTransfer color-interpolation-filters="sRGB"><feFuncR type="discrete" tableValues="0 0"/><feFuncG type="discrete" tableValues="0 0"/><feFuncB type="discrete" tableValues="0 0"/><feFuncA type="linear" slope="0.4" intercept="0"/></feComponentTransfer><feGaussianBlur stdDeviation="6.11111 6.11111"/></filter><filter id="fx4" x="-10%" y="-10%" width="120%" height="120%" filterUnits="userSpaceOnUse" primitiveUnits="userSpaceOnUse"><feComponentTransfer color-interpolation-filters="sRGB"><feFuncR type="discrete" tableValues="0 0"/><feFuncG type="discrete" tableValues="0 0"/><feFuncB type="discrete" tableValues="0 0"/><feFuncA type="linear" slope="0.4" intercept="0"/></feComponentTransfer><feGaussianBlur stdDeviation="6.11111 6.11111"/></filter><filter id="fx5" x="-10%" y="-10%" width="120%" height="120%" filterUnits="userSpaceOnUse" primitiveUnits="userSpaceOnUse"><feComponentTransfer color-interpolation-filters="sRGB"><feFuncR type="discrete" tableValues="0 0"/><feFuncG type="discrete" tableValues="0 0"/><feFuncB type="discrete" tableValues="0 0"/><feFuncA type="linear" slope="0.4" intercept="0"/></feComponentTransfer><feGaussianBlur stdDeviation="6.11111 6.11111"/></filter><filter id="fx6" x="-10%" y="-10%" width="120%" height="120%" filterUnits="userSpaceOnUse" primitiveUnits="userSpaceOnUse"><feComponentTransfer color-interpolation-filters="sRGB"><feFuncR type="discrete" tableValues="0 0"/><feFuncG type="discrete" tableValues="0 0"/><feFuncB type="discrete" tableValues="0 0"/><feFuncA type="linear" slope="0.4" intercept="0"/></feComponentTransfer><feGaussianBlur stdDeviation="6.11111 6.11111"/></filter><filter id="fx7" x="-10%" y="-10%" width="120%" height="120%" filterUnits="userSpaceOnUse" primitiveUnits="userSpaceOnUse"><feComponentTransfer color-interpolation-filters="sRGB"><feFuncR type="discrete" tableValues="0 0"/><feFuncG type="discrete" tableValues="0 0"/><feFuncB type="discrete" tableValues="0 0"/><feFuncA type="linear" slope="0.4" intercept="0"/></feComponentTransfer><feGaussianBlur stdDeviation="6.11111 6.11111"/></filter><filter id="fx8" x="-10%" y="-10%" width="120%" height="120%" filterUnits="userSpaceOnUse" primitiveUnits="userSpaceOnUse"><feComponentTransfer color-interpolation-filters="sRGB"><feFuncR type="discrete" tableValues="0 0"/><feFuncG type="discrete" tableValues="0 0"/><feFuncB type="discrete" tableValues="0 0"/><feFuncA type="linear" slope="0.4" intercept="0"/></feComponentTransfer><feGaussianBlur stdDeviation="6.11111 6.11111"/></filter><filter id="fx9" x="-10%" y="-10%" width="120%" height="120%" filterUnits="userSpaceOnUse" primitiveUnits="userSpaceOnUse"><feComponentTransfer color-interpolation-filters="sRGB"><feFuncR type="discrete" tableValues="0 0"/><feFuncG type="discrete" tableValues="0 0"/><feFuncB type="discrete" tableValues="0 0"/><feFuncA type="linear" slope="0.4" intercept="0"/></feComponentTransfer><feGaussianBlur stdDeviation="6.11111 6.11111"/></filter><clipPath id="clip10"><rect x="610" y="1679" width="3216" height="467"/></clipPath><clipPath id="clip11"><path d="M1124.83 1691.5C1100.9 1691.5 1081.5 1710.9 1081.5 1734.83L1081.5 1908.17C1081.5 1932.1 1100.9 1951.5 1124.83 1951.5L1479.17 1951.5C1503.1 1951.5 1522.5 1932.1 1522.5 1908.17L1522.5 1734.83C1522.5 1710.9 1503.1 1691.5 1479.17 1691.5ZM610 1679 3826 1679 3826 2146 610 2146Z" fill-rule="evenodd" clip-rule="evenodd"/></clipPath><clipPath id="clip12"><rect x="39" y="32" width="344" height="179"/></clipPath><clipPath id="clip13"><path d="M2011.83 1691.5C1987.9 1691.5 1968.5 1710.9 1968.5 1734.83L1968.5 1908.17C1968.5 1932.1 1987.9 1951.5 2011.83 1951.5L2366.17 1951.5C2390.1 1951.5 2409.5 1932.1 2409.5 1908.17L2409.5 1734.83C2409.5 1710.9 2390.1 1691.5 2366.17 1691.5ZM610 1679 3826 1679 3826 2146 610 2146Z" fill-rule="evenodd" clip-rule="evenodd"/></clipPath><clipPath id="clip14"><rect x="39" y="32" width="347" height="179"/></clipPath><clipPath id="clip15"><path d="M2901.83 1691.5C2877.9 1691.5 2858.5 1710.9 2858.5 1734.83L2858.5 1908.17C2858.5 1932.1 2877.9 1951.5 2901.83 1951.5L3270.17 1951.5C3294.1 1951.5 3313.5 1932.1 3313.5 1908.17L3313.5 1734.83C3313.5 1710.9 3294.1 1691.5 3270.17 1691.5ZM610 1679 3826 1679 3826 2146 610 2146Z" fill-rule="evenodd" clip-rule="evenodd"/></clipPath><clipPath id="clip16"><rect x="39" y="32" width="430" height="168"/></clipPath><clipPath id="clip17"><rect x="-3" y="22" width="489" height="89"/></clipPath><clipPath id="clip18"><rect x="-3" y="22" width="489" height="89"/></clipPath><clipPath id="clip19"><rect x="-3" y="22" width="489" height="89"/></clipPath><clipPath id="clip20"><rect x="-3" y="22" width="489" height="89"/></clipPath></defs><g clip-path="url(#clip10)" transform="translate(-610 -1679)"><g clip-path="url(#clip11)"><g filter="url(#fx0)" transform="translate(1068 1678)"><g><path d="M23.2227 66.557C23.2227 42.6242 42.624 23.2228 66.5568 23.2228L420.889 23.2228C444.821 23.2228 464.223 42.6242 464.223 66.557L464.223 239.888C464.223 263.821 444.821 283.223 420.889 283.223L66.5568 283.223C42.624 283.223 23.2227 263.821 23.2227 239.888Z" stroke="#042433" stroke-width="7" stroke-miterlimit="8" fill="#BFBFBF" fill-rule="evenodd"/></g></g><g clip-path="url(#clip12)" filter="url(#fx1)" transform="translate(1102 1715)"><g><path d="M5.5 0 5.5-42.0625 19.6562-42.0625C24.0521-42.0625 27.8021-41.2344 30.9062-39.5781 34.0104-37.9219 36.375-35.5208 38-32.375 39.625-29.2292 40.4375-25.4479 40.4375-21.0312 40.4375-16.5937 39.6198-12.8021 37.9844-9.65625 36.349-6.51042 33.9792-4.11458 30.875-2.46875 27.7708-0.822917 24.0312 0 19.6562 0ZM11.125-4.71875 18.4062-4.71875C22.0937-4.71875 25.1354-5.30729 27.5312-6.48437 29.9271-7.66146 31.7135-9.46354 32.8906-11.8906 34.0677-14.3177 34.6562-17.375 34.6562-21.0625 34.6562-24.7292 34.0573-27.7656 32.8594-30.1719 31.6615-32.5781 29.8594-34.375 27.4531-35.5625 25.0469-36.75 22.0312-37.3437 18.4062-37.3437L11.125-37.3437ZM56.9208 0.5625C55.1708 0.5625 53.5719 0.229167 52.124-0.4375 50.676-1.10417 49.5198-2.08854 48.6552-3.39062 47.7906-4.69271 47.3583-6.30208 47.3583-8.21875 47.3583-10.9479 48.2125-13.0208 49.9208-14.4375 51.6292-15.8542 54.0458-16.8177 57.1708-17.3281 60.2958-17.8385 63.9521-18.1146 68.1396-18.1562L68.1396-20.2812C68.1396-22.8854 67.4937-24.6719 66.2021-25.6406 64.9104-26.6094 63.275-27.0937 61.2958-27.0937 59.1917-27.0937 57.4208-26.5625 55.9833-25.5 54.5458-24.4375 53.8271-22.7604 53.8271-20.4687L48.7646-20.4687C48.7646-22.9687 49.301-24.9896 50.374-26.5312 51.4469-28.0729 52.926-29.1979 54.8115-29.9062 56.6969-30.6146 58.8583-30.9687 61.2958-30.9687 62.8583-30.9687 64.3531-30.8229 65.7802-30.5312 67.2073-30.2396 68.4885-29.7083 69.624-28.9375 70.7594-28.1667 71.6604-27.0885 72.3271-25.7031 72.9937-24.3177 73.3271-22.5312 73.3271-20.3437L73.3271 0 68.4521 0 68.2333-4.625C66.8375-3.0625 65.2177-1.80729 63.374-0.859375 61.5302 0.0885416 59.3792 0.5625 56.9208 0.5625ZM58.2958-3.4375C60.3792-3.4375 62.2542-3.92708 63.9208-4.90625 65.5875-5.88542 66.9833-7.125 68.1083-8.625L68.1083-14.8125C62.5667-14.75 58.5927-14.2292 56.1865-13.25 53.7802-12.2708 52.5771-10.6667 52.5771-8.4375 52.5771-6.91667 53.0615-5.70312 54.0302-4.79687 54.999-3.89062 56.4208-3.4375 58.2958-3.4375ZM93.0354 0C90.5771 0 88.6917-0.390625 87.3792-1.17187 86.0667-1.95312 85.1656-3.07812 84.676-4.54687 84.1865-6.01562 83.9417-7.78125 83.9417-9.84375L83.9417-26.2187 78.8479-26.2187 78.8479-30.4375 83.9417-30.4375 83.9417-37.4062 89.1292-37.4062 89.1292-30.4375 96.6292-30.4375 96.6292-26.2187 89.1292-26.2187 89.1292-10.0937C89.1292-8.19792 89.374-6.74479 89.8635-5.73437 90.3531-4.72396 91.525-4.21875 93.3792-4.21875L96.6917-4.21875 96.6917 0ZM111.096 0.5625C109.346 0.5625 107.747 0.229167 106.299-0.4375 104.851-1.10417 103.695-2.08854 102.83-3.39062 101.966-4.69271 101.533-6.30208 101.533-8.21875 101.533-10.9479 102.387-13.0208 104.096-14.4375 105.804-15.8542 108.221-16.8177 111.346-17.3281 114.471-17.8385 118.127-18.1146 122.315-18.1562L122.315-20.2812C122.315-22.8854 121.669-24.6719 120.377-25.6406 119.085-26.6094 117.45-27.0937 115.471-27.0937 113.367-27.0937 111.596-26.5625 110.158-25.5 108.721-24.4375 108.002-22.7604 108.002-20.4687L102.94-20.4687C102.94-22.9687 103.476-24.9896 104.549-26.5312 105.622-28.0729 107.101-29.1979 108.986-29.9062 110.872-30.6146 113.033-30.9687 115.471-30.9687 117.033-30.9687 118.528-30.8229 119.955-30.5312 121.382-30.2396 122.664-29.7083 123.799-28.9375 124.934-28.1667 125.835-27.0885 126.502-25.7031 127.169-24.3177 127.502-22.5312 127.502-20.3437L127.502 0 122.627 0 122.408-4.625C121.012-3.0625 119.393-1.80729 117.549-0.859375 115.705 0.0885416 113.554 0.5625 111.096 0.5625ZM112.471-3.4375C114.554-3.4375 116.429-3.92708 118.096-4.90625 119.762-5.88542 121.158-7.125 122.283-8.625L122.283-14.8125C116.742-14.75 112.768-14.2292 110.361-13.25 107.955-12.2708 106.752-10.6667 106.752-8.4375 106.752-6.91667 107.236-5.70312 108.205-4.79687 109.174-3.89062 110.596-3.4375 112.471-3.4375Z" transform="matrix(1 0 0 1 142.859 98)"/><path d="M15.8125 0.5625C14.1042 0.5625 12.4844 0.375 10.9531 0 9.42187-0.375 8.07292-0.96875 6.90625-1.78125 5.73958-2.59375 4.82812-3.66146 4.17187-4.98437 3.51562-6.30729 3.1875-7.90625 3.1875-9.78125L8.21875-9.78125C8.21875-7.40625 8.95312-5.73437 10.4219-4.76562 11.8906-3.79687 13.7292-3.3125 15.9375-3.3125 17.9167-3.3125 19.5469-3.69271 20.8281-4.45312 22.1094-5.21354 22.75-6.46875 22.75-8.21875 22.75-9.71875 22.1719-10.8333 21.0156-11.5625 19.8594-12.2917 17.8229-13 14.9062-13.6875 12.5312-14.25 10.5312-14.901 8.90625-15.6406 7.28125-16.3802 6.0625-17.3177 5.25-18.4531 4.4375-19.5885 4.03125-21.0208 4.03125-22.75 4.03125-24.1042 4.31771-25.2969 4.89062-26.3281 5.46354-27.3594 6.26562-28.2187 7.29687-28.9062 8.32812-29.5937 9.54167-30.1094 10.9375-30.4531 12.3333-30.7969 13.8437-30.9687 15.4687-30.9687 17.0729-30.9687 18.5781-30.7812 19.9844-30.4062 21.3906-30.0312 22.6302-29.4479 23.7031-28.6562 24.776-27.8646 25.625-26.8437 26.25-25.5937 26.875-24.3437 27.1875-22.8437 27.1875-21.0937L22.125-21.0937C22.125-23.2604 21.4792-24.7917 20.1875-25.6875 18.8958-26.5833 17.3229-27.0312 15.4687-27.0312 13.5937-27.0312 12.0729-26.6979 10.9062-26.0312 9.73958-25.3646 9.15625-24.3229 9.15625-22.9062 9.15625-22.0937 9.41667-21.4062 9.9375-20.8437 10.4583-20.2812 11.3333-19.776 12.5625-19.3281 13.7917-18.8802 15.4479-18.4062 17.5312-17.9062 19.8021-17.3646 21.7083-16.7187 23.25-15.9687 24.7917-15.2187 25.9531-14.2552 26.7344-13.0781 27.5156-11.901 27.9062-10.3958 27.9062-8.5625 27.9062-6.97917 27.599-5.60937 26.9844-4.45312 26.3698-3.29687 25.5156-2.34896 24.4219-1.60937 23.3281-0.869792 22.0469-0.322917 20.5781 0.03125 19.1094 0.385417 17.5208 0.5625 15.8125 0.5625ZM45.7583 0C43.3 0 41.4146-0.390625 40.1021-1.17187 38.7896-1.95312 37.8885-3.07812 37.399-4.54687 36.9094-6.01562 36.6646-7.78125 36.6646-9.84375L36.6646-26.2187 31.5708-26.2187 31.5708-30.4375 36.6646-30.4375 36.6646-37.4062 41.8521-37.4062 41.8521-30.4375 49.3521-30.4375 49.3521-26.2187 41.8521-26.2187 41.8521-10.0937C41.8521-8.19792 42.0969-6.74479 42.5865-5.73437 43.076-4.72396 44.2479-4.21875 46.1021-4.21875L49.4146-4.21875 49.4146 0ZM56.2271 0 56.2271-30.4375 61.1333-30.4375 61.3208-25.25C62.175-26.8333 63.3625-28.1562 64.8833-29.2187 66.4042-30.2812 68.3833-30.8125 70.8208-30.8125L71.4458-30.8125 71.4458-26.0312 70.7271-26.0312C69.2062-26.0312 67.8729-25.8333 66.7271-25.4375 65.5812-25.0417 64.5812-24.4948 63.7271-23.7969 62.8729-23.099 62.1125-22.2917 61.4458-21.375L61.4458 0ZM87.0812 0.46875C83.5604 0.46875 81.0187-0.510417 79.4562-2.46875 77.8937-4.42708 77.1125-7.125 77.1125-10.5625L77.1125-30.4375 82.3625-30.4375 82.3625-11.2812C82.3625-9.90625 82.5187-8.67708 82.8312-7.59375 83.1437-6.51042 83.7375-5.66667 84.6125-5.0625 85.4875-4.45833 86.7479-4.15625 88.3937-4.15625 90.6854-4.15625 92.6021-4.63021 94.1437-5.57812 95.6854-6.52604 96.925-7.625 97.8625-8.875L97.8625-30.4375 103.112-30.4375 103.112 0 98.0812 0 97.925-4.6875C96.9458-3.47917 95.5656-2.31771 93.7844-1.20312 92.0031-0.0885417 89.7687 0.46875 87.0812 0.46875ZM125.894 0.53125C123.144 0.53125 120.706-0.046875 118.581-1.20312 116.456-2.35937 114.795-4.09896 113.597-6.42187 112.399-8.74479 111.8-11.6562 111.8-15.1562 111.8-18.6562 112.389-21.5781 113.566-23.9219 114.743-26.2656 116.389-28.026 118.503-29.2031 120.618-30.3802 123.081-30.9687 125.894-30.9687 128.248-30.9687 130.368-30.5833 132.253-29.8125 134.139-29.0417 135.644-27.8802 136.769-26.3281 137.894-24.776 138.487-22.8125 138.55-20.4375L133.394-20.4375C133.269-22.3958 132.56-23.9375 131.269-25.0625 129.977-26.1875 128.217-26.75 125.987-26.75 123.029-26.75 120.821-25.7344 119.362-23.7031 117.904-21.6719 117.175-18.8229 117.175-15.1562 117.175-12.7187 117.498-10.651 118.144-8.95312 118.79-7.25521 119.769-5.95312 121.081-5.04687 122.394-4.14062 124.029-3.6875 125.987-3.6875 128.217-3.6875 130.029-4.26562 131.425-5.42187 132.821-6.57812 133.55-8.27083 133.612-10.5L138.769-10.5C138.706-8.04167 138.107-5.99479 136.972-4.35937 135.836-2.72396 134.305-1.5 132.378-0.6875 130.451 0.125 128.29 0.53125 125.894 0.53125ZM157.477 0C155.019 0 153.133-0.390625 151.821-1.17187 150.508-1.95312 149.607-3.07812 149.118-4.54687 148.628-6.01562 148.383-7.78125 148.383-9.84375L148.383-26.2187 143.29-26.2187 143.29-30.4375 148.383-30.4375 148.383-37.4062 153.571-37.4062 153.571-30.4375 161.071-30.4375 161.071-26.2187 153.571-26.2187 153.571-10.0937C153.571-8.19792 153.816-6.74479 154.305-5.73437 154.795-4.72396 155.967-4.21875 157.821-4.21875L161.133-4.21875 161.133 0ZM177.602 0.46875C174.081 0.46875 171.54-0.510417 169.977-2.46875 168.415-4.42708 167.633-7.125 167.633-10.5625L167.633-30.4375 172.883-30.4375 172.883-11.2812C172.883-9.90625 173.04-8.67708 173.352-7.59375 173.665-6.51042 174.258-5.66667 175.133-5.0625 176.008-4.45833 177.269-4.15625 178.915-4.15625 181.206-4.15625 183.123-4.63021 184.665-5.57812 186.206-6.52604 187.446-7.625 188.383-8.875L188.383-30.4375 193.633-30.4375 193.633 0 188.602 0 188.446-4.6875C187.467-3.47917 186.086-2.31771 184.305-1.20312 182.524-0.0885417 180.29 0.46875 177.602 0.46875ZM204.04 0 204.04-30.4375 208.946-30.4375 209.133-25.25C209.987-26.8333 211.175-28.1562 212.696-29.2187 214.217-30.2812 216.196-30.8125 218.633-30.8125L219.258-30.8125 219.258-26.0312 218.54-26.0312C217.019-26.0312 215.685-25.8333 214.54-25.4375 213.394-25.0417 212.394-24.4948 211.54-23.7969 210.685-23.099 209.925-22.2917 209.258-21.375L209.258 0ZM225.237 0 225.237-30.4375 230.456-30.4375 230.456 0ZM227.831-36.1562C226.852-36.1562 226.066-36.4427 225.472-37.0156 224.878-37.5885 224.581-38.3125 224.581-39.1875 224.581-40.0625 224.878-40.7865 225.472-41.3594 226.066-41.9323 226.852-42.2187 227.831-42.2187 228.81-42.2187 229.602-41.9323 230.206-41.3594 230.81-40.7865 231.112-40.0625 231.112-39.1875 231.112-38.3125 230.81-37.5885 230.206-37.0156 229.602-36.4427 228.81-36.1562 227.831-36.1562ZM240.706 0 240.706-30.4375 245.706-30.4375 245.894-25.75C246.831-26.9792 248.175-28.1406 249.925-29.2344 251.675-30.3281 253.915-30.875 256.644-30.875 259.977-30.875 262.404-29.8906 263.925-27.9219 265.446-25.9531 266.206-23.1875 266.206-19.625L266.206 0 260.987 0 260.987-18.875C260.987-20.3542 260.831-21.6667 260.519-22.8125 260.206-23.9583 259.649-24.8594 258.847-25.5156 258.045-26.1719 256.883-26.5 255.362-26.5 253.092-26.5 251.185-25.9844 249.644-24.9531 248.102-23.9219 246.862-22.7917 245.925-21.5625L245.925 0ZM286.821 11.7812C283.529 11.7812 280.899 11.4062 278.93 10.6562 276.961 9.90625 275.54 8.90625 274.665 7.65625 273.79 6.40625 273.352 5.05208 273.352 3.59375 273.352 1.82292 274.107 0.25 275.618-1.125 277.128-2.5 279.456-3.46875 282.602-4.03125L283.602-5.75 287.446-5.75C292.446-5.75 296.019-5.08854 298.165-3.76562 300.31-2.44271 301.383-0.395833 301.383 2.375 301.383 5.125 300.159 7.38021 297.711 9.14062 295.264 10.901 291.633 11.7812 286.821 11.7812ZM286.696 8C290.237 8 292.732 7.5 294.18 6.5 295.628 5.5 296.352 4.26042 296.352 2.78125 296.352 1.90625 296.107 1.15104 295.618 0.515625 295.128-0.119792 294.222-0.614583 292.899-0.96875 291.576-1.32292 289.696-1.5 287.258-1.5L282.633-1.5C281.217-1.14583 280.123-0.541667 279.352 0.3125 278.581 1.16667 278.196 2.15625 278.196 3.28125 278.196 4.53125 278.852 5.63021 280.165 6.57812 281.477 7.52604 283.654 8 286.696 8ZM282.54-1.78125C280.56-1.98958 279.003-2.40104 277.868-3.01562 276.732-3.63021 275.925-4.31771 275.446-5.07812 274.967-5.83854 274.727-6.57292 274.727-7.28125 274.727-8.30208 275.139-9.26562 275.961-10.1719 276.784-11.0781 278.133-11.8229 280.008-12.4062L282.602-10.7812C281.498-10.4687 280.623-10.0677 279.977-9.57812 279.331-9.08854 279.008-8.54167 279.008-7.9375 279.008-7.52083 279.201-7.15104 279.586-6.82812 279.972-6.50521 280.628-6.24479 281.555-6.04687 282.482-5.84896 283.769-5.75 285.415-5.75ZM286.446-9.84375C283.946-9.84375 281.826-10.3281 280.086-11.2969 278.347-12.2656 277.029-13.5365 276.133-15.1094 275.237-16.6823 274.79-18.3854 274.79-20.2187 274.79-22.1562 275.243-23.9167 276.149-25.5 277.055-27.0833 278.389-28.3437 280.149-29.2812 281.909-30.2187 284.06-30.6875 286.602-30.6875 289.206-30.6875 291.373-30.2187 293.102-29.2812 294.831-28.3437 296.123-27.0833 296.977-25.5 297.831-23.9167 298.258-22.1562 298.258-20.2187 298.258-18.3437 297.826-16.6198 296.961-15.0469 296.097-13.474 294.79-12.2135 293.04-11.2656 291.29-10.3177 289.092-9.84375 286.446-9.84375ZM286.415-13.4062C288.415-13.4062 290.066-13.9792 291.368-15.125 292.67-16.2708 293.321-17.9687 293.321-20.2187 293.321-22.5729 292.706-24.3177 291.477-25.4531 290.248-26.5885 288.623-27.1562 286.602-27.1562 284.623-27.1562 282.982-26.5729 281.68-25.4062 280.378-24.2396 279.727-22.5208 279.727-20.25 279.727-17.9583 280.399-16.2448 281.743-15.1094 283.086-13.974 284.644-13.4062 286.415-13.4062ZM294.383-27.3437 292.258-29.3125C293.154-31.2708 294.326-32.6042 295.774-33.3125 297.222-34.0208 299.092-34.4062 301.383-34.4687L301.383-30.0625C299.925-30.0625 298.586-29.9115 297.368-29.6094 296.149-29.3073 295.154-28.5521 294.383-27.3437Z" transform="matrix(1 0 0 1 58.0906 175)"/></g></g></g><path d="M1081.5 1734.83C1081.5 1710.9 1100.9 1691.5 1124.83 1691.5L1479.17 1691.5C1503.1 1691.5 1522.5 1710.9 1522.5 1734.83L1522.5 1908.17C1522.5 1932.1 1503.1 1951.5 1479.17 1951.5L1124.83 1951.5C1100.9 1951.5 1081.5 1932.1 1081.5 1908.17Z" stroke="#042433" stroke-width="6.875" stroke-miterlimit="8" fill="#BFBFBF" fill-rule="evenodd"/><text font-family="Aptos,Aptos_MSFontService,sans-serif" font-weight="400" font-size="64" transform="matrix(1 0 0 1 1235.14 1803)">Data </text><text font-family="Aptos,Aptos_MSFontService,sans-serif" font-weight="400" font-size="64" transform="matrix(1 0 0 1 1150.37 1880)">structuring</text><g clip-path="url(#clip13)"><g filter="url(#fx2)" transform="translate(1955 1678)"><g><path d="M23.2229 66.5569C23.2229 42.6241 42.6242 23.2228 66.557 23.2228L420.888 23.2228C444.821 23.2228 464.223 42.6241 464.223 66.5569L464.223 239.888C464.223 263.821 444.821 283.222 420.888 283.222L66.557 283.222C42.6242 283.222 23.2229 263.821 23.2229 239.888Z" stroke="#042433" stroke-width="7" stroke-miterlimit="8" fill="#BFBFBF" fill-rule="evenodd"/></g></g><g clip-path="url(#clip14)" filter="url(#fx3)" transform="translate(1988 1715)"><g><path d="M5.5 0 5.5-42.0625 19.6562-42.0625C24.0521-42.0625 27.8021-41.2344 30.9062-39.5781 34.0104-37.9219 36.375-35.5208 38-32.375 39.625-29.2292 40.4375-25.4479 40.4375-21.0312 40.4375-16.5937 39.6198-12.8021 37.9844-9.65625 36.349-6.51042 33.9792-4.11458 30.875-2.46875 27.7708-0.822917 24.0312 0 19.6562 0ZM11.125-4.71875 18.4062-4.71875C22.0937-4.71875 25.1354-5.30729 27.5312-6.48437 29.9271-7.66146 31.7135-9.46354 32.8906-11.8906 34.0677-14.3177 34.6562-17.375 34.6562-21.0625 34.6562-24.7292 34.0573-27.7656 32.8594-30.1719 31.6615-32.5781 29.8594-34.375 27.4531-35.5625 25.0469-36.75 22.0312-37.3437 18.4062-37.3437L11.125-37.3437ZM56.9208 0.5625C55.1708 0.5625 53.5719 0.229167 52.124-0.4375 50.676-1.10417 49.5198-2.08854 48.6552-3.39062 47.7906-4.69271 47.3583-6.30208 47.3583-8.21875 47.3583-10.9479 48.2125-13.0208 49.9208-14.4375 51.6292-15.8542 54.0458-16.8177 57.1708-17.3281 60.2958-17.8385 63.9521-18.1146 68.1396-18.1562L68.1396-20.2812C68.1396-22.8854 67.4937-24.6719 66.2021-25.6406 64.9104-26.6094 63.275-27.0937 61.2958-27.0937 59.1917-27.0937 57.4208-26.5625 55.9833-25.5 54.5458-24.4375 53.8271-22.7604 53.8271-20.4687L48.7646-20.4687C48.7646-22.9687 49.301-24.9896 50.374-26.5312 51.4469-28.0729 52.926-29.1979 54.8115-29.9062 56.6969-30.6146 58.8583-30.9687 61.2958-30.9687 62.8583-30.9687 64.3531-30.8229 65.7802-30.5312 67.2073-30.2396 68.4885-29.7083 69.624-28.9375 70.7594-28.1667 71.6604-27.0885 72.3271-25.7031 72.9937-24.3177 73.3271-22.5312 73.3271-20.3437L73.3271 0 68.4521 0 68.2333-4.625C66.8375-3.0625 65.2177-1.80729 63.374-0.859375 61.5302 0.0885416 59.3792 0.5625 56.9208 0.5625ZM58.2958-3.4375C60.3792-3.4375 62.2542-3.92708 63.9208-4.90625 65.5875-5.88542 66.9833-7.125 68.1083-8.625L68.1083-14.8125C62.5667-14.75 58.5927-14.2292 56.1865-13.25 53.7802-12.2708 52.5771-10.6667 52.5771-8.4375 52.5771-6.91667 53.0615-5.70312 54.0302-4.79687 54.999-3.89062 56.4208-3.4375 58.2958-3.4375ZM93.0354 0C90.5771 0 88.6917-0.390625 87.3792-1.17187 86.0667-1.95312 85.1656-3.07812 84.676-4.54687 84.1865-6.01562 83.9417-7.78125 83.9417-9.84375L83.9417-26.2187 78.8479-26.2187 78.8479-30.4375 83.9417-30.4375 83.9417-37.4062 89.1292-37.4062 89.1292-30.4375 96.6292-30.4375 96.6292-26.2187 89.1292-26.2187 89.1292-10.0937C89.1292-8.19792 89.374-6.74479 89.8635-5.73437 90.3531-4.72396 91.525-4.21875 93.3792-4.21875L96.6917-4.21875 96.6917 0ZM111.096 0.5625C109.346 0.5625 107.747 0.229167 106.299-0.4375 104.851-1.10417 103.695-2.08854 102.83-3.39062 101.966-4.69271 101.533-6.30208 101.533-8.21875 101.533-10.9479 102.387-13.0208 104.096-14.4375 105.804-15.8542 108.221-16.8177 111.346-17.3281 114.471-17.8385 118.127-18.1146 122.315-18.1562L122.315-20.2812C122.315-22.8854 121.669-24.6719 120.377-25.6406 119.085-26.6094 117.45-27.0937 115.471-27.0937 113.367-27.0937 111.596-26.5625 110.158-25.5 108.721-24.4375 108.002-22.7604 108.002-20.4687L102.94-20.4687C102.94-22.9687 103.476-24.9896 104.549-26.5312 105.622-28.0729 107.101-29.1979 108.986-29.9062 110.872-30.6146 113.033-30.9687 115.471-30.9687 117.033-30.9687 118.528-30.8229 119.955-30.5312 121.382-30.2396 122.664-29.7083 123.799-28.9375 124.934-28.1667 125.835-27.0885 126.502-25.7031 127.169-24.3177 127.502-22.5312 127.502-20.3437L127.502 0 122.627 0 122.408-4.625C121.012-3.0625 119.393-1.80729 117.549-0.859375 115.705 0.0885416 113.554 0.5625 111.096 0.5625ZM112.471-3.4375C114.554-3.4375 116.429-3.92708 118.096-4.90625 119.762-5.88542 121.158-7.125 122.283-8.625L122.283-14.8125C116.742-14.75 112.768-14.2292 110.361-13.25 107.955-12.2708 106.752-10.6667 106.752-8.4375 106.752-6.91667 107.236-5.70312 108.205-4.79687 109.174-3.89062 110.596-3.4375 112.471-3.4375ZM150.804 11.1875 150.804-30.4375 155.867-30.4375 156.023-25.4687C157.106-27.0937 158.507-28.4167 160.226-29.4375 161.945-30.4583 163.94-30.9687 166.21-30.9687 168.71-30.9687 170.867-30.3802 172.679-29.2031 174.492-28.026 175.893-26.2708 176.882-23.9375 177.872-21.6042 178.367-18.6979 178.367-15.2187 178.367-11.7812 177.841-8.89062 176.789-6.54687 175.736-4.20312 174.252-2.43229 172.335-1.23437 170.419-0.0364584 168.169 0.5625 165.585 0.5625 163.419 0.5625 161.523 0.130208 159.898-0.734375 158.273-1.59896 156.971-2.78125 155.992-4.28125L155.992 11.1875ZM164.617-3.71875C167.387-3.71875 169.476-4.71354 170.882-6.70312 172.289-8.69271 172.992-11.5312 172.992-15.2187 172.992-18.9479 172.335-21.8021 171.023-23.7812 169.71-25.7604 167.783-26.75 165.242-26.75 163.012-26.75 161.132-26.1562 159.601-24.9687 158.07-23.7812 156.877-22.3958 156.023-20.8125L156.023-9.0625C156.856-7.47917 157.981-6.19271 159.398-5.20312 160.815-4.21354 162.554-3.71875 164.617-3.71875ZM186.898 0 186.898-30.4375 191.804-30.4375 191.992-25.25C192.846-26.8333 194.033-28.1562 195.554-29.2187 197.075-30.2812 199.054-30.8125 201.492-30.8125L202.117-30.8125 202.117-26.0312 201.398-26.0312C199.877-26.0312 198.544-25.8333 197.398-25.4375 196.252-25.0417 195.252-24.4948 194.398-23.7969 193.544-23.099 192.783-22.2917 192.117-21.375L192.117 0ZM219.881 0.5625C216.569 0.5625 213.855-0.130208 211.741-1.51562 209.626-2.90104 208.058-4.78646 207.037-7.17187 206.017-9.55729 205.506-12.2396 205.506-15.2187 205.506-18.3229 206.001-21.0573 206.991-23.4219 207.98-25.7865 209.491-27.6354 211.522-28.9687 213.553-30.3021 216.131-30.9687 219.256-30.9687 223.402-30.9687 226.652-29.7187 229.006-27.2187 231.36-24.7187 232.537-21.125 232.537-16.4375 232.537-16.125 232.527-15.7552 232.506-15.3281 232.485-14.901 232.454-14.5937 232.412-14.4062L210.725-14.4062C210.746-12.4271 211.064-10.6094 211.678-8.95312 212.293-7.29687 213.267-5.96875 214.6-4.96875 215.933-3.96875 217.694-3.46875 219.881-3.46875 222.215-3.46875 224.037-4.01562 225.35-5.10937 226.662-6.20312 227.35-7.78125 227.412-9.84375L232.569-9.84375C232.506-7.69792 231.954-5.84896 230.912-4.29687 229.871-2.74479 228.412-1.54687 226.537-0.703125 224.662 0.140625 222.444 0.5625 219.881 0.5625ZM210.756-18.2187 227.381-18.2187C227.319-21.0521 226.579-23.2187 225.162-24.7187 223.746-26.2187 221.777-26.9687 219.256-26.9687 216.715-26.9687 214.72-26.224 213.272-24.7344 211.824-23.2448 210.985-21.0729 210.756-18.2187Z" transform="matrix(1 0 0 1 81.3582 98)"/><path d="M3.09375-13.2187 3.09375-17.8437 18.6875-17.8437 18.6875-13.2187Z" transform="matrix(1 0 0 1 317.354 98)"/><path d="M5.03125 11.1875 5.03125-30.4375 10.0937-30.4375 10.25-25.4687C11.3333-27.0937 12.7344-28.4167 14.4531-29.4375 16.1719-30.4583 18.1667-30.9687 20.4375-30.9687 22.9375-30.9687 25.0937-30.3802 26.9062-29.2031 28.7187-28.026 30.1198-26.2708 31.1094-23.9375 32.099-21.6042 32.5937-18.6979 32.5937-15.2187 32.5937-11.7812 32.0677-8.89062 31.0156-6.54687 29.9635-4.20312 28.4792-2.43229 26.5625-1.23437 24.6458-0.0364584 22.3958 0.5625 19.8125 0.5625 17.6458 0.5625 15.75 0.130208 14.125-0.734375 12.5-1.59896 11.1979-2.78125 10.2187-4.28125L10.2187 11.1875ZM18.8437-3.71875C21.6146-3.71875 23.7031-4.71354 25.1094-6.70312 26.5156-8.69271 27.2187-11.5312 27.2187-15.2187 27.2187-18.9479 26.5625-21.8021 25.25-23.7812 23.9375-25.7604 22.0104-26.75 19.4687-26.75 17.2396-26.75 15.3594-26.1562 13.8281-24.9687 12.2969-23.7812 11.1042-22.3958 10.25-20.8125L10.25-9.0625C11.0833-7.47917 12.2083-6.19271 13.625-5.20312 15.0417-4.21354 16.7812-3.71875 18.8437-3.71875ZM41.125 0 41.125-30.4375 46.0312-30.4375 46.2187-25.25C47.0729-26.8333 48.2604-28.1562 49.7812-29.2187 51.3021-30.2812 53.2812-30.8125 55.7187-30.8125L56.3437-30.8125 56.3437-26.0312 55.625-26.0312C54.1042-26.0312 52.7708-25.8333 51.625-25.4375 50.4792-25.0417 49.4792-24.4948 48.625-23.7969 47.7708-23.099 47.0104-22.2917 46.3437-21.375L46.3437 0ZM73.9208 0.5C70.9417 0.5 68.3896-0.130208 66.2646-1.39062 64.1396-2.65104 62.5198-4.45312 61.4052-6.79687 60.2906-9.14062 59.7333-11.9271 59.7333-15.1562 59.7333-18.4687 60.2906-21.3073 61.4052-23.6719 62.5198-26.0365 64.1396-27.8542 66.2646-29.125 68.3896-30.3958 70.9417-31.0312 73.9208-31.0312 76.9625-31.0312 79.5614-30.3958 81.7177-29.125 83.8739-27.8542 85.5302-26.0365 86.6865-23.6719 87.8427-21.3073 88.4208-18.4687 88.4208-15.1562 88.4208-11.9271 87.8427-9.14062 86.6865-6.79687 85.5302-4.45312 83.8739-2.65104 81.7177-1.39062 79.5614-0.130208 76.9625 0.5 73.9208 0.5ZM73.9208-3.65625C76.1708-3.65625 77.9625-4.15104 79.2958-5.14062 80.6292-6.13021 81.5875-7.49479 82.1708-9.23437 82.7542-10.974 83.0458-12.9479 83.0458-15.1562 83.0458-17.4062 82.7542-19.4167 82.1708-21.1875 81.5875-22.9583 80.6292-24.349 79.2958-25.3594 77.9625-26.3698 76.1708-26.875 73.9208-26.875 71.7333-26.875 69.999-26.3698 68.7177-25.3594 67.4365-24.349 66.5146-22.9583 65.9521-21.1875 65.3896-19.4167 65.1083-17.4062 65.1083-15.1562 65.1083-12.9479 65.3896-10.974 65.9521-9.23437 66.5146-7.49479 67.4365-6.13021 68.7177-5.14062 69.999-4.15104 71.7333-3.65625 73.9208-3.65625ZM109.348 0.53125C106.598 0.53125 104.16-0.046875 102.035-1.20312 99.9104-2.35937 98.249-4.09896 97.051-6.42187 95.8531-8.74479 95.2542-11.6562 95.2542-15.1562 95.2542-18.6562 95.8427-21.5781 97.0198-23.9219 98.1969-26.2656 99.8427-28.026 101.957-29.2031 104.072-30.3802 106.535-30.9687 109.348-30.9687 111.702-30.9687 113.822-30.5833 115.707-29.8125 117.593-29.0417 119.098-27.8802 120.223-26.3281 121.348-24.776 121.942-22.8125 122.004-20.4375L116.848-20.4375C116.723-22.3958 116.015-23.9375 114.723-25.0625 113.431-26.1875 111.671-26.75 109.442-26.75 106.483-26.75 104.275-25.7344 102.817-23.7031 101.358-21.6719 100.629-18.8229 100.629-15.1562 100.629-12.7187 100.952-10.651 101.598-8.95312 102.244-7.25521 103.223-5.95312 104.535-5.04687 105.848-4.14062 107.483-3.6875 109.442-3.6875 111.671-3.6875 113.483-4.26562 114.879-5.42187 116.275-6.57812 117.004-8.27083 117.067-10.5L122.223-10.5C122.16-8.04167 121.561-5.99479 120.426-4.35937 119.291-2.72396 117.759-1.5 115.832-0.6875 113.905 0.125 111.744 0.53125 109.348 0.53125ZM143.431 0.5625C140.119 0.5625 137.405-0.130208 135.291-1.51562 133.176-2.90104 131.608-4.78646 130.587-7.17187 129.567-9.55729 129.056-12.2396 129.056-15.2187 129.056-18.3229 129.551-21.0573 130.541-23.4219 131.53-25.7865 133.041-27.6354 135.072-28.9687 137.103-30.3021 139.681-30.9687 142.806-30.9687 146.952-30.9687 150.202-29.7187 152.556-27.2187 154.91-24.7187 156.087-21.125 156.087-16.4375 156.087-16.125 156.077-15.7552 156.056-15.3281 156.035-14.901 156.004-14.5937 155.962-14.4062L134.275-14.4062C134.296-12.4271 134.614-10.6094 135.228-8.95312 135.843-7.29687 136.817-5.96875 138.15-4.96875 139.483-3.96875 141.244-3.46875 143.431-3.46875 145.765-3.46875 147.587-4.01562 148.9-5.10937 150.212-6.20312 150.9-7.78125 150.962-9.84375L156.119-9.84375C156.056-7.69792 155.504-5.84896 154.462-4.29687 153.421-2.74479 151.962-1.54687 150.087-0.703125 148.212 0.140625 145.994 0.5625 143.431 0.5625ZM134.306-18.2187 150.931-18.2187C150.869-21.0521 150.129-23.2187 148.712-24.7187 147.296-26.2187 145.327-26.9687 142.806-26.9687 140.265-26.9687 138.27-26.224 136.822-24.7344 135.374-23.2448 134.535-21.0729 134.306-18.2187ZM175.358 0.5625C173.65 0.5625 172.03 0.375 170.499 0 168.968-0.375 167.619-0.96875 166.452-1.78125 165.285-2.59375 164.374-3.66146 163.718-4.98437 163.061-6.30729 162.733-7.90625 162.733-9.78125L167.765-9.78125C167.765-7.40625 168.499-5.73437 169.968-4.76562 171.436-3.79687 173.275-3.3125 175.483-3.3125 177.462-3.3125 179.093-3.69271 180.374-4.45312 181.655-5.21354 182.296-6.46875 182.296-8.21875 182.296-9.71875 181.718-10.8333 180.561-11.5625 179.405-12.2917 177.369-13 174.452-13.6875 172.077-14.25 170.077-14.901 168.452-15.6406 166.827-16.3802 165.608-17.3177 164.796-18.4531 163.983-19.5885 163.577-21.0208 163.577-22.75 163.577-24.1042 163.864-25.2969 164.436-26.3281 165.009-27.3594 165.811-28.2187 166.843-28.9062 167.874-29.5937 169.087-30.1094 170.483-30.4531 171.879-30.7969 173.39-30.9687 175.015-30.9687 176.619-30.9687 178.124-30.7812 179.53-30.4062 180.936-30.0312 182.176-29.4479 183.249-28.6562 184.322-27.8646 185.171-26.8437 185.796-25.5937 186.421-24.3437 186.733-22.8437 186.733-21.0937L181.671-21.0937C181.671-23.2604 181.025-24.7917 179.733-25.6875 178.442-26.5833 176.869-27.0312 175.015-27.0312 173.14-27.0312 171.619-26.6979 170.452-26.0312 169.285-25.3646 168.702-24.3229 168.702-22.9062 168.702-22.0937 168.962-21.4062 169.483-20.8437 170.004-20.2812 170.879-19.776 172.108-19.3281 173.337-18.8802 174.994-18.4062 177.077-17.9062 179.348-17.3646 181.254-16.7187 182.796-15.9687 184.337-15.2187 185.499-14.2552 186.28-13.0781 187.061-11.901 187.452-10.3958 187.452-8.5625 187.452-6.97917 187.145-5.60937 186.53-4.45312 185.916-3.29687 185.061-2.34896 183.968-1.60937 182.874-0.869792 181.593-0.322917 180.124 0.03125 178.655 0.385417 177.067 0.5625 175.358 0.5625ZM206.296 0.5625C204.587 0.5625 202.968 0.375 201.436 0 199.905-0.375 198.556-0.96875 197.39-1.78125 196.223-2.59375 195.311-3.66146 194.655-4.98437 193.999-6.30729 193.671-7.90625 193.671-9.78125L198.702-9.78125C198.702-7.40625 199.436-5.73437 200.905-4.76562 202.374-3.79687 204.212-3.3125 206.421-3.3125 208.4-3.3125 210.03-3.69271 211.311-4.45312 212.593-5.21354 213.233-6.46875 213.233-8.21875 213.233-9.71875 212.655-10.8333 211.499-11.5625 210.343-12.2917 208.306-13 205.39-13.6875 203.015-14.25 201.015-14.901 199.39-15.6406 197.765-16.3802 196.546-17.3177 195.733-18.4531 194.921-19.5885 194.515-21.0208 194.515-22.75 194.515-24.1042 194.801-25.2969 195.374-26.3281 195.947-27.3594 196.749-28.2187 197.78-28.9062 198.811-29.5937 200.025-30.1094 201.421-30.4531 202.817-30.7969 204.327-30.9687 205.952-30.9687 207.556-30.9687 209.061-30.7812 210.468-30.4062 211.874-30.0312 213.114-29.4479 214.186-28.6562 215.259-27.8646 216.108-26.8437 216.733-25.5937 217.358-24.3437 217.671-22.8437 217.671-21.0937L212.608-21.0937C212.608-23.2604 211.962-24.7917 210.671-25.6875 209.379-26.5833 207.806-27.0312 205.952-27.0312 204.077-27.0312 202.556-26.6979 201.39-26.0312 200.223-25.3646 199.64-24.3229 199.64-22.9062 199.64-22.0937 199.9-21.4062 200.421-20.8437 200.942-20.2812 201.817-19.776 203.046-19.3281 204.275-18.8802 205.931-18.4062 208.015-17.9062 210.285-17.3646 212.192-16.7187 213.733-15.9687 215.275-15.2187 216.436-14.2552 217.218-13.0781 217.999-11.901 218.39-10.3958 218.39-8.5625 218.39-6.97917 218.082-5.60937 217.468-4.45312 216.853-3.29687 215.999-2.34896 214.905-1.60937 213.811-0.869792 212.53-0.322917 211.061 0.03125 209.593 0.385417 208.004 0.5625 206.296 0.5625ZM226.452 0 226.452-30.4375 231.671-30.4375 231.671 0ZM229.046-36.1562C228.067-36.1562 227.28-36.4427 226.686-37.0156 226.093-37.5885 225.796-38.3125 225.796-39.1875 225.796-40.0625 226.093-40.7865 226.686-41.3594 227.28-41.9323 228.067-42.2187 229.046-42.2187 230.025-42.2187 230.817-41.9323 231.421-41.3594 232.025-40.7865 232.327-40.0625 232.327-39.1875 232.327-38.3125 232.025-37.5885 231.421-37.0156 230.817-36.4427 230.025-36.1562 229.046-36.1562ZM241.921 0 241.921-30.4375 246.921-30.4375 247.108-25.75C248.046-26.9792 249.39-28.1406 251.14-29.2344 252.89-30.3281 255.129-30.875 257.858-30.875 261.192-30.875 263.619-29.8906 265.14-27.9219 266.66-25.9531 267.421-23.1875 267.421-19.625L267.421 0 262.202 0 262.202-18.875C262.202-20.3542 262.046-21.6667 261.733-22.8125 261.421-23.9583 260.864-24.8594 260.061-25.5156 259.259-26.1719 258.098-26.5 256.577-26.5 254.306-26.5 252.4-25.9844 250.858-24.9531 249.317-23.9219 248.077-22.7917 247.14-21.5625L247.14 0ZM288.035 11.7812C284.744 11.7812 282.114 11.4062 280.145 10.6562 278.176 9.90625 276.754 8.90625 275.879 7.65625 275.004 6.40625 274.567 5.05208 274.567 3.59375 274.567 1.82292 275.322 0.25 276.832-1.125 278.343-2.5 280.671-3.46875 283.817-4.03125L284.817-5.75 288.66-5.75C293.66-5.75 297.233-5.08854 299.379-3.76562 301.525-2.44271 302.598-0.395833 302.598 2.375 302.598 5.125 301.374 7.38021 298.926 9.14062 296.478 10.901 292.848 11.7812 288.035 11.7812ZM287.91 8C291.452 8 293.947 7.5 295.395 6.5 296.843 5.5 297.567 4.26042 297.567 2.78125 297.567 1.90625 297.322 1.15104 296.832 0.515625 296.343-0.119792 295.436-0.614583 294.114-0.96875 292.791-1.32292 290.91-1.5 288.473-1.5L283.848-1.5C282.431-1.14583 281.337-0.541667 280.567 0.3125 279.796 1.16667 279.41 2.15625 279.41 3.28125 279.41 4.53125 280.067 5.63021 281.379 6.57812 282.692 7.52604 284.869 8 287.91 8ZM283.754-1.78125C281.775-1.98958 280.218-2.40104 279.082-3.01562 277.947-3.63021 277.14-4.31771 276.66-5.07812 276.181-5.83854 275.942-6.57292 275.942-7.28125 275.942-8.30208 276.353-9.26562 277.176-10.1719 277.999-11.0781 279.348-11.8229 281.223-12.4062L283.817-10.7812C282.712-10.4687 281.837-10.0677 281.192-9.57812 280.546-9.08854 280.223-8.54167 280.223-7.9375 280.223-7.52083 280.416-7.15104 280.801-6.82812 281.186-6.50521 281.843-6.24479 282.77-6.04687 283.697-5.84896 284.983-5.75 286.629-5.75ZM287.66-9.84375C285.16-9.84375 283.041-10.3281 281.301-11.2969 279.561-12.2656 278.244-13.5365 277.348-15.1094 276.452-16.6823 276.004-18.3854 276.004-20.2187 276.004-22.1562 276.457-23.9167 277.364-25.5 278.27-27.0833 279.603-28.3437 281.364-29.2812 283.124-30.2187 285.275-30.6875 287.817-30.6875 290.421-30.6875 292.587-30.2187 294.317-29.2812 296.046-28.3437 297.337-27.0833 298.192-25.5 299.046-23.9167 299.473-22.1562 299.473-20.2187 299.473-18.3437 299.041-16.6198 298.176-15.0469 297.311-13.474 296.004-12.2135 294.254-11.2656 292.504-10.3177 290.306-9.84375 287.66-9.84375ZM287.629-13.4062C289.629-13.4062 291.28-13.9792 292.582-15.125 293.884-16.2708 294.535-17.9687 294.535-20.2187 294.535-22.5729 293.921-24.3177 292.692-25.4531 291.462-26.5885 289.837-27.1562 287.817-27.1562 285.837-27.1562 284.197-26.5729 282.895-25.4062 281.593-24.2396 280.942-22.5208 280.942-20.25 280.942-17.9583 281.614-16.2448 282.957-15.1094 284.301-13.974 285.858-13.4062 287.629-13.4062ZM295.598-27.3437 293.473-29.3125C294.369-31.2708 295.541-32.6042 296.989-33.3125 298.436-34.0208 300.306-34.4062 302.598-34.4687L302.598-30.0625C301.14-30.0625 299.801-29.9115 298.582-29.6094 297.364-29.3073 296.369-28.5521 295.598-27.3437Z" transform="matrix(1 0 0 1 58.579 175)"/></g></g></g><path d="M1968.5 1734.83C1968.5 1710.9 1987.9 1691.5 2011.83 1691.5L2366.17 1691.5C2390.1 1691.5 2409.5 1710.9 2409.5 1734.83L2409.5 1908.17C2409.5 1932.1 2390.1 1951.5 2366.17 1951.5L2011.83 1951.5C1987.9 1951.5 1968.5 1932.1 1968.5 1908.17Z" stroke="#042433" stroke-width="6.875" stroke-miterlimit="8" fill="#BFBFBF" fill-rule="evenodd"/><text font-family="Aptos,Aptos_MSFontService,sans-serif" font-weight="400" font-size="64" transform="matrix(1 0 0 1 2059.64 1803)">Data pre</text><text font-family="Aptos,Aptos_MSFontService,sans-serif" font-weight="400" font-size="64" transform="matrix(1 0 0 1 2295.63 1803)">-</text><text font-family="Aptos,Aptos_MSFontService,sans-serif" font-weight="400" font-size="64" transform="matrix(1 0 0 1 2036.86 1880)">processing</text><g clip-path="url(#clip15)"><g filter="url(#fx4)" transform="translate(2845 1678)"><g><path d="M23.2229 66.5567C23.2229 42.6241 42.6242 23.2228 66.5569 23.2228L434.889 23.2228C458.821 23.2228 478.223 42.6241 478.223 66.5567L478.223 239.889C478.223 263.821 458.821 283.223 434.889 283.223L66.5569 283.223C42.6242 283.223 23.2229 263.821 23.2229 239.889Z" stroke="#042433" stroke-width="7" stroke-miterlimit="8" fill="#007BFF" fill-rule="evenodd"/></g></g><g clip-path="url(#clip16)" filter="url(#fx5)" transform="translate(2842 1715)"><g><path d="M11.8125 0 11.8125-34.75 0.5625-34.75 0.5625-42.0625 31.7812-42.0625 31.7812-34.75 20.5937-34.75 20.5937 0ZM40.5708 0.53125C38.8417 0.53125 37.2271 0.197917 35.7271-0.46875 34.2271-1.13542 33.0135-2.14062 32.0865-3.48437 31.1594-4.82812 30.6958-6.51042 30.6958-8.53125 30.6958-11.3437 31.5396-13.4635 33.2271-14.8906 34.9146-16.3177 37.274-17.2865 40.3052-17.7969 43.3365-18.3073 46.8625-18.6042 50.8833-18.6875L50.8833-20.3125C50.8833-22.2917 50.4094-23.6458 49.4615-24.375 48.5135-25.1042 47.2896-25.4687 45.7896-25.4687 44.1437-25.4687 42.7896-25.0781 41.7271-24.2969 40.6646-23.5156 40.1333-22.25 40.1333-20.5L32.3833-20.5C32.3833-23.1042 32.951-25.1667 34.0865-26.6875 35.2219-28.2083 36.7948-29.3021 38.8052-29.9687 40.8156-30.6354 43.1437-30.9687 45.7896-30.9687 47.7271-30.9687 49.4979-30.8073 51.1021-30.4844 52.7062-30.1615 54.0969-29.6042 55.274-28.8125 56.451-28.0208 57.3625-26.9427 58.0083-25.5781 58.6542-24.2135 58.9771-22.5104 58.9771-20.4687L58.9771 0 51.2271 0 50.9771-3.96875C49.6854-2.48958 48.1854-1.36979 46.4771-0.609375 44.7687 0.151042 42.8 0.53125 40.5708 0.53125ZM43.2896-5.15625C44.8521-5.15625 46.2948-5.5625 47.6177-6.375 48.9406-7.1875 49.9979-8.11458 50.7896-9.15625L50.7896-14.0937C46.4146-14.0729 43.3521-13.6615 41.6021-12.8594 39.8521-12.0573 38.9771-10.7604 38.9771-8.96875 38.9771-7.67708 39.3781-6.71875 40.1802-6.09375 40.9823-5.46875 42.0187-5.15625 43.2896-5.15625ZM80.0292 0.5625C78.3417 0.5625 76.6854 0.40625 75.0604 0.09375 73.4354-0.21875 71.9667-0.755208 70.6542-1.51562 69.3417-2.27604 68.3-3.3125 67.5292-4.625 66.7583-5.9375 66.3729-7.57292 66.3729-9.53125L74.0604-9.53125C74.0604-7.82292 74.6594-6.63542 75.8573-5.96875 77.0552-5.30208 78.4562-4.96875 80.0604-4.96875 81.6437-4.96875 82.8729-5.22396 83.7479-5.73437 84.6229-6.24479 85.0604-7.10417 85.0604-8.3125 85.0604-9.45833 84.5448-10.3125 83.5135-10.875 82.4823-11.4375 80.675-12.0104 78.0917-12.5937 75.925-13.1146 73.9927-13.7448 72.2948-14.4844 70.5969-15.224 69.2687-16.2135 68.3104-17.4531 67.3521-18.6927 66.8729-20.3229 66.8729-22.3437 66.8729-23.9271 67.2375-25.2708 67.9667-26.375 68.6958-27.4792 69.6698-28.3698 70.8885-29.0469 72.1073-29.724 73.4823-30.2187 75.0135-30.5312 76.5448-30.8437 78.1125-31 79.7167-31 81.2792-31 82.8104-30.8437 84.3104-30.5312 85.8104-30.2187 87.1646-29.6927 88.3729-28.9531 89.5812-28.2135 90.55-27.2187 91.2792-25.9687 92.0083-24.7187 92.3729-23.1562 92.3729-21.2812L84.6854-21.2812C84.6854-22.8437 84.1906-23.9271 83.201-24.5312 82.2114-25.1354 81.05-25.4375 79.7167-25.4375 78.2792-25.4375 77.1489-25.2292 76.326-24.8125 75.5031-24.3958 75.0917-23.7083 75.0917-22.75 75.0917-22.1875 75.3521-21.6927 75.8729-21.2656 76.3937-20.8385 77.2271-20.4427 78.3729-20.0781 79.5187-19.7135 81.0292-19.3229 82.9042-18.9062 84.8833-18.4479 86.6542-17.8542 88.2167-17.125 89.7792-16.3958 91.0187-15.4167 91.9354-14.1875 92.8521-12.9583 93.3104-11.3646 93.3104-9.40625 93.3104-7.57292 92.9406-6.02083 92.201-4.75 91.4614-3.47917 90.4719-2.45312 89.2323-1.67187 87.9927-0.890625 86.576-0.322917 84.9823 0.03125 83.3885 0.385417 81.7375 0.5625 80.0292 0.5625ZM101.008 0 101.008-42.0625 109.29-42.0625 109.29-16.4375 121.196-30.5 130.196-30.5 118.133-16.4687 131.071 0 121.633 0 109.29-16.0937 109.29 0Z" transform="matrix(1 0 0 1 187.879 98)"/><path d="M4.4375 0 4.4375-30.5 12.7187-30.5 12.7187 0ZM8.59375-34.5C7.07292-34.5 5.91146-34.8854 5.10937-35.6562 4.30729-36.4271 3.90625-37.3854 3.90625-38.5312 3.90625-39.6979 4.30729-40.6615 5.10937-41.4219 5.91146-42.1823 7.07292-42.5625 8.59375-42.5625 10.1146-42.5625 11.276-42.1823 12.0781-41.4219 12.8802-40.6615 13.2812-39.6979 13.2812-38.5312 13.2812-37.3854 12.8802-36.4271 12.0781-35.6562 11.276-34.8854 10.1146-34.5 8.59375-34.5ZM32.125 0.53125C29.8333 0.53125 27.776-0.0416667 25.9531-1.1875 24.1302-2.33333 22.6927-4.08854 21.6406-6.45312 20.5885-8.81771 20.0625-11.8229 20.0625-15.4687 20.0625-18.9896 20.6302-21.8958 21.7656-24.1875 22.901-26.4792 24.4375-28.1875 26.375-29.3125 28.3125-30.4375 30.4896-31 32.9062-31 35.0312-31 36.8542-30.5625 38.375-29.6875 39.8958-28.8125 41.1042-27.6667 42-26.25L42-42.0625 50.2812-42.0625 50.2812 0 42.3437 0 42-4.34375C40.9167-2.84375 39.5729-1.65625 37.9687-0.78125 36.3646 0.0937499 34.4167 0.53125 32.125 0.53125ZM34.5625-5.78125C36.3125-5.78125 37.8229-6.27083 39.0937-7.25 40.3646-8.22917 41.3333-9.375 42-10.6875L42-19.5937C41.3542-20.9687 40.4479-22.1667 39.2812-23.1875 38.1146-24.2083 36.6771-24.7187 34.9687-24.7187 32.9271-24.7187 31.3437-23.9271 30.2187-22.3437 29.0937-20.7604 28.5312-18.4687 28.5312-15.4687 28.5312-12.1771 29.0677-9.73958 30.1406-8.15625 31.2135-6.57292 32.6875-5.78125 34.5625-5.78125ZM73.4687 0.5625C70.0729 0.5625 67.2187-0.0677084 64.9062-1.32812 62.5937-2.58854 60.8437-4.40625 59.6562-6.78125 58.4687-9.15625 57.875-12.0104 57.875-15.3437 57.875-18.5729 58.4531-21.3542 59.6094-23.6875 60.7656-26.0208 62.4635-27.8177 64.7031-29.0781 66.9427-30.3385 69.6979-30.9687 72.9687-30.9687 77.5104-30.9687 81.099-29.6406 83.7344-26.9844 86.3698-24.3281 87.6875-20.5417 87.6875-15.625 87.6875-15.375 87.6771-15.0365 87.6562-14.6094 87.6354-14.1823 87.6041-13.8542 87.5625-13.625L66.1562-13.625C66.1979-12.1875 66.4635-10.8437 66.9531-9.59375 67.4427-8.34375 68.2187-7.33854 69.2812-6.57812 70.3437-5.81771 71.7396-5.4375 73.4687-5.4375 75.2604-5.4375 76.6979-5.82812 77.7812-6.60937 78.8646-7.39062 79.4167-8.55208 79.4375-10.0937L87.5937-10.0937C87.4896-7.71875 86.8385-5.73958 85.6406-4.15625 84.4427-2.57292 82.8073-1.39062 80.7344-0.609375 78.6615 0.171875 76.2396 0.5625 73.4687 0.5625ZM66.25-18.875 79.4687-18.875C79.4062-21 78.776-22.5885 77.5781-23.6406 76.3802-24.6927 74.8437-25.2187 72.9687-25.2187 71.0521-25.2187 69.4844-24.6771 68.2656-23.5937 67.0469-22.5104 66.375-20.9375 66.25-18.875ZM94.9583 0 94.9583-30.5 102.927-30.5 103.083-25.9375C104.104-27.25 105.448-28.4115 107.115-29.4219 108.781-30.4323 110.948-30.9375 113.615-30.9375 116.719-30.9375 119.125-29.9948 120.833-28.1094 122.542-26.224 123.396-23.4687 123.396-19.8437L123.396 0 115.177 0 115.177-18.7812C115.177-19.8854 115.021-20.8542 114.708-21.6875 114.396-22.5208 113.901-23.1667 113.224-23.625 112.547-24.0833 111.656-24.3125 110.552-24.3125 108.906-24.3125 107.495-23.9271 106.318-23.1562 105.141-22.3854 104.115-21.4479 103.24-20.3437L103.24 0ZM145.229 0C142.146 0 139.755-0.369792 138.057-1.10937 136.359-1.84896 135.177-2.99479 134.51-4.54687 133.844-6.09896 133.51-8.125 133.51-10.625L133.51-24.125 128.448-24.125 128.448-30.5 133.51-30.5 133.51-37.6875 141.792-37.6875 141.792-30.5 148.448-30.5 148.448-24.125 141.792-24.125 141.792-11.125C141.792-9.52083 142.016-8.33333 142.464-7.5625 142.911-6.79167 143.927-6.40625 145.51-6.40625L148.448-6.40625 148.448 0ZM155.115 0 155.115-30.5 163.396-30.5 163.396 0ZM159.271-34.5C157.75-34.5 156.589-34.8854 155.786-35.6562 154.984-36.4271 154.583-37.3854 154.583-38.5312 154.583-39.6979 154.984-40.6615 155.786-41.4219 156.589-42.1823 157.75-42.5625 159.271-42.5625 160.792-42.5625 161.953-42.1823 162.755-41.4219 163.557-40.6615 163.958-39.6979 163.958-38.5312 163.958-37.3854 163.557-36.4271 162.755-35.6562 161.953-34.8854 160.792-34.5 159.271-34.5ZM173.615 0 173.615-24.125 168.552-24.125 168.552-30.5 173.615-30.5 173.615-31.4687C173.615-33.3021 173.792-34.8906 174.146-36.2344 174.5-37.5781 175.109-38.6771 175.974-39.5312 176.839-40.3854 178.031-41.0208 179.552-41.4375 181.073-41.8542 183-42.0625 185.333-42.0625L188.365-42.0625 188.365-36.0625 185.615-36.0625C184.031-36.0625 183.016-35.6979 182.568-34.9687 182.12-34.2396 181.896-33.0729 181.896-31.4687L181.896-30.5 188.396-30.5 188.396-24.125 181.896-24.125 181.896 0ZM194.073 0 194.073-30.5 202.354-30.5 202.354 0ZM198.229-34.5C196.708-34.5 195.547-34.8854 194.745-35.6562 193.943-36.4271 193.542-37.3854 193.542-38.5312 193.542-39.6979 193.943-40.6615 194.745-41.4219 195.547-42.1823 196.708-42.5625 198.229-42.5625 199.75-42.5625 200.911-42.1823 201.714-41.4219 202.516-40.6615 202.917-39.6979 202.917-38.5312 202.917-37.3854 202.516-36.4271 201.714-35.6562 200.911-34.8854 199.75-34.5 198.229-34.5ZM224.948 0.4375C222.115 0.4375 219.542-0.104167 217.229-1.1875 214.917-2.27083 213.083-3.95833 211.729-6.25 210.375-8.54167 209.698-11.5 209.698-15.125 209.698-18.75 210.344-21.7292 211.635-24.0625 212.927-26.3958 214.724-28.1302 217.026-29.2656 219.328-30.401 221.969-30.9687 224.948-30.9687 227.531-30.9687 229.865-30.5417 231.948-29.6875 234.031-28.8333 235.687-27.5573 236.917-25.8594 238.146-24.1615 238.771-22.0208 238.792-19.4375L230.76-19.4375C230.719-21 230.198-22.2448 229.198-23.1719 228.198-24.099 226.792-24.5625 224.979-24.5625 222.583-24.5625 220.849-23.7396 219.776-22.0937 218.703-20.4479 218.167-18.125 218.167-15.125 218.167-13.1875 218.401-11.5365 218.87-10.1719 219.339-8.80729 220.078-7.76562 221.089-7.04687 222.099-6.32812 223.396-5.96875 224.979-5.96875 226.833-5.96875 228.297-6.47396 229.37-7.48437 230.443-8.49479 231-9.92708 231.042-11.7812L239.073-11.7812C239.01-9.13542 238.37-6.90625 237.151-5.09375 235.932-3.28125 234.271-1.90625 232.167-0.96875 230.062-0.03125 227.656 0.4375 224.948 0.4375ZM253.994 0.53125C252.265 0.53125 250.65 0.197917 249.15-0.46875 247.65-1.13542 246.436-2.14062 245.509-3.48437 244.582-4.82812 244.119-6.51042 244.119-8.53125 244.119-11.3437 244.962-13.4635 246.65-14.8906 248.337-16.3177 250.697-17.2865 253.728-17.7969 256.759-18.3073 260.285-18.6042 264.306-18.6875L264.306-20.3125C264.306-22.2917 263.832-23.6458 262.884-24.375 261.936-25.1042 260.712-25.4687 259.212-25.4687 257.567-25.4687 256.212-25.0781 255.15-24.2969 254.087-23.5156 253.556-22.25 253.556-20.5L245.806-20.5C245.806-23.1042 246.374-25.1667 247.509-26.6875 248.645-28.2083 250.218-29.3021 252.228-29.9687 254.239-30.6354 256.567-30.9687 259.212-30.9687 261.15-30.9687 262.921-30.8073 264.525-30.4844 266.129-30.1615 267.52-29.6042 268.697-28.8125 269.874-28.0208 270.785-26.9427 271.431-25.5781 272.077-24.2135 272.4-22.5104 272.4-20.4687L272.4 0 264.65 0 264.4-3.96875C263.108-2.48958 261.608-1.36979 259.9-0.609375 258.192 0.151042 256.223 0.53125 253.994 0.53125ZM256.712-5.15625C258.275-5.15625 259.718-5.5625 261.041-6.375 262.364-7.1875 263.421-8.11458 264.212-9.15625L264.212-14.0937C259.837-14.0729 256.775-13.6615 255.025-12.8594 253.275-12.0573 252.4-10.7604 252.4-8.96875 252.4-7.67708 252.801-6.71875 253.603-6.09375 254.405-5.46875 255.442-5.15625 256.712-5.15625ZM293.821 0C290.737 0 288.347-0.369792 286.649-1.10937 284.951-1.84896 283.769-2.99479 283.102-4.54687 282.435-6.09896 282.102-8.125 282.102-10.625L282.102-24.125 277.04-24.125 277.04-30.5 282.102-30.5 282.102-37.6875 290.383-37.6875 290.383-30.5 297.04-30.5 297.04-24.125 290.383-24.125 290.383-11.125C290.383-9.52083 290.607-8.33333 291.055-7.5625 291.503-6.79167 292.519-6.40625 294.102-6.40625L297.04-6.40625 297.04 0ZM303.706 0 303.706-30.5 311.987-30.5 311.987 0ZM307.862-34.5C306.342-34.5 305.18-34.8854 304.378-35.6562 303.576-36.4271 303.175-37.3854 303.175-38.5312 303.175-39.6979 303.576-40.6615 304.378-41.4219 305.18-42.1823 306.342-42.5625 307.862-42.5625 309.383-42.5625 310.545-42.1823 311.347-41.4219 312.149-40.6615 312.55-39.6979 312.55-38.5312 312.55-37.3854 312.149-36.4271 311.347-35.6562 310.545-34.8854 309.383-34.5 307.862-34.5ZM334.737 0.5C331.654 0.5 328.951-0.114583 326.628-1.34375 324.305-2.57292 322.508-4.35417 321.237-6.6875 319.967-9.02083 319.331-11.8437 319.331-15.1562 319.331-18.5312 319.967-21.401 321.237-23.7656 322.508-26.1302 324.305-27.9323 326.628-29.1719 328.951-30.4115 331.654-31.0312 334.737-31.0312 337.862-31.0312 340.586-30.4115 342.909-29.1719 345.232-27.9323 347.04-26.1302 348.331-23.7656 349.623-21.401 350.269-18.5312 350.269-15.1562 350.269-11.8437 349.623-9.02083 348.331-6.6875 347.04-4.35417 345.232-2.57292 342.909-1.34375 340.586-0.114583 337.862 0.5 334.737 0.5ZM334.737-5.8125C336.55-5.8125 337.972-6.23437 339.003-7.07812 340.034-7.92187 340.764-9.05208 341.191-10.4687 341.618-11.8854 341.831-13.4479 341.831-15.1562 341.831-16.9062 341.618-18.5 341.191-19.9375 340.764-21.375 340.034-22.5208 339.003-23.375 337.972-24.2292 336.55-24.6562 334.737-24.6562 332.967-24.6562 331.576-24.2292 330.566-23.375 329.555-22.5208 328.842-21.375 328.425-19.9375 328.008-18.5 327.8-16.9062 327.8-15.1562 327.8-13.4479 328.008-11.8854 328.425-10.4687 328.842-9.05208 329.555-7.92187 330.566-7.07812 331.576-6.23437 332.967-5.8125 334.737-5.8125ZM357.56 0 357.56-30.5 365.529-30.5 365.685-25.9375C366.706-27.25 368.05-28.4115 369.717-29.4219 371.383-30.4323 373.55-30.9375 376.217-30.9375 379.321-30.9375 381.727-29.9948 383.435-28.1094 385.144-26.224 385.998-23.4687 385.998-19.8437L385.998 0 377.779 0 377.779-18.7812C377.779-19.8854 377.623-20.8542 377.31-21.6875 376.998-22.5208 376.503-23.1667 375.826-23.625 375.149-24.0833 374.258-24.3125 373.154-24.3125 371.508-24.3125 370.097-23.9271 368.92-23.1562 367.743-22.3854 366.717-21.4479 365.842-20.3437L365.842 0Z" transform="matrix(1 0 0 1 58.1704 175)"/></g></g></g><path d="M2858.5 1734.83C2858.5 1710.9 2877.9 1691.5 2901.83 1691.5L3270.17 1691.5C3294.1 1691.5 3313.5 1710.9 3313.5 1734.83L3313.5 1908.17C3313.5 1932.1 3294.1 1951.5 3270.17 1951.5L2901.83 1951.5C2877.9 1951.5 2858.5 1932.1 2858.5 1908.17Z" stroke="#042433" stroke-width="6.875" stroke-miterlimit="8" fill="#007BFF" fill-rule="evenodd"/><text font-family="Aptos,Aptos_MSFontService,sans-serif" font-weight="700" font-size="64" transform="matrix(1 0 0 1 3020.16 1803)">Task </text><text font-family="Aptos,Aptos_MSFontService,sans-serif" font-weight="700" font-size="64" transform="matrix(1 0 0 1 2890.45 1880)">identification</text><g clip-path="url(#clip17)" filter="url(#fx6)" transform="translate(1511 1765)"><g><path d="M19.7228 60.7225 453.371 60.7229 453.371 70.7229 19.7228 70.7225ZM425.89 43.904 463.294 65.7229 425.89 87.5418C423.505 88.9332 420.443 88.1275 419.052 85.7422 417.66 83.357 418.466 80.2954 420.851 78.904L450.851 61.404 450.851 70.0418 420.851 52.5418C418.466 51.1504 417.66 48.0888 419.052 45.7035 420.443 43.3182 423.505 42.5126 425.89 43.904Z"/></g></g><path d="M1521 1815.84 1954.34 1815.84 1954.34 1826.16 1521 1826.16ZM1926 1798.5 1964.57 1821 1926 1843.5C1923.54 1844.94 1920.38 1844.1 1918.95 1841.65 1917.51 1839.19 1918.34 1836.03 1920.8 1834.59L1951.74 1816.55 1951.74 1825.45 1920.8 1807.41C1918.34 1805.97 1917.51 1802.82 1918.95 1800.36 1920.38 1797.9 1923.54 1797.06 1926 1798.5Z"/><g clip-path="url(#clip18)" filter="url(#fx7)" transform="translate(2401 1765)"><g><path d="M19.7229 60.7225 453.371 60.7229 453.371 70.7229 19.7229 70.7225ZM425.89 43.904 463.294 65.7229 425.89 87.5418C423.505 88.9332 420.443 88.1275 419.052 85.7422 417.661 83.357 418.466 80.2954 420.852 78.904L450.852 61.404 450.852 70.0418 420.852 52.5418C418.466 51.1504 417.661 48.0888 419.052 45.7035 420.443 43.3182 423.505 42.5126 425.89 43.904Z"/></g></g><path d="M2411 1815.84 2844.34 1815.84 2844.34 1826.16 2411 1826.16ZM2816 1798.5 2854.57 1821 2816 1843.5C2813.54 1844.94 2810.38 1844.1 2808.95 1841.65 2807.51 1839.19 2808.34 1836.03 2810.8 1834.59L2841.74 1816.55 2841.74 1825.45 2810.8 1807.41C2808.34 1805.97 2807.51 1802.82 2808.95 1800.36 2810.38 1797.9 2813.54 1797.06 2816 1798.5Z"/><g clip-path="url(#clip19)" filter="url(#fx8)" transform="translate(627 1765)"><g><path d="M19.7227 60.7225 453.371 60.7229 453.371 70.7229 19.7227 70.7225ZM425.89 43.904 463.294 65.7229 425.89 87.5418C423.505 88.9332 420.443 88.1275 419.052 85.7422 417.66 83.357 418.466 80.2954 420.851 78.904L450.851 61.404 450.851 70.0418 420.851 52.5418C418.466 51.1504 417.66 48.0888 419.052 45.7035 420.443 43.3182 423.505 42.5126 425.89 43.904Z"/></g></g><path d="M637 1815.84 1070.34 1815.84 1070.34 1826.16 637 1826.16ZM1042 1798.5 1080.57 1821 1042 1843.5C1039.54 1844.94 1036.38 1844.1 1034.95 1841.65 1033.51 1839.19 1034.34 1836.03 1036.8 1834.59L1067.74 1816.55 1067.74 1825.45 1036.8 1807.41C1034.34 1805.97 1033.51 1802.82 1034.95 1800.36 1036.38 1797.9 1039.54 1797.06 1042 1798.5Z"/><g clip-path="url(#clip20)" filter="url(#fx9)" transform="translate(3299 1765)"><g><path d="M19.7227 60.7225 453.371 60.7229 453.371 70.7229 19.7227 70.7225ZM425.89 43.904 463.294 65.7229 425.89 87.5418C423.505 88.9332 420.443 88.1275 419.052 85.7422 417.66 83.357 418.466 80.2954 420.851 78.904L450.851 61.404 450.851 70.0418 420.851 52.5418C418.466 51.1504 417.66 48.0888 419.052 45.7035 420.443 43.3182 423.505 42.5126 425.89 43.904Z"/></g></g><path d="M3309 1815.84 3742.34 1815.84 3742.34 1826.16 3309 1826.16ZM3714 1798.5 3752.57 1821 3714 1843.5C3711.54 1844.94 3708.38 1844.1 3706.95 1841.65 3705.51 1839.19 3706.34 1836.03 3708.8 1834.59L3739.74 1816.55 3739.74 1825.45 3708.8 1807.41C3706.34 1805.97 3705.51 1802.82 3706.95 1800.36 3708.38 1797.9 3711.54 1797.06 3714 1798.5Z"/><text font-family="Aptos,Aptos_MSFontService,sans-serif" font-weight="400" font-size="64" transform="matrix(1 0 0 1 663.338 1935)">IMU raw data </text><text font-family="Aptos,Aptos_MSFontService,sans-serif" font-weight="400" font-size="64" transform="matrix(1 0 0 1 1561.55 1935)">IMU raw data </text><text font-family="Aptos,Aptos_MSFontService,sans-serif" font-weight="400" font-size="64" transform="matrix(1 0 0 1 1608.14 2012)">organized</text><text font-family="Aptos,Aptos_MSFontService,sans-serif" font-weight="400" font-size="64" transform="matrix(1 0 0 1 2473.96 1935)">MWC linear </text><text font-family="Aptos,Aptos_MSFontService,sans-serif" font-weight="400" font-size="64" transform="matrix(1 0 0 1 2470.98 2012)">and angular </text><text font-family="Aptos,Aptos_MSFontService,sans-serif" font-weight="400" font-size="64" transform="matrix(1 0 0 1 2549.74 2089)">speed</text><text font-family="Aptos,Aptos_MSFontService,sans-serif" font-weight="400" font-size="64" transform="matrix(1 0 0 1 3366.97 1935)">Locomotor </text><text font-family="Aptos,Aptos_MSFontService,sans-serif" font-weight="400" font-size="64" transform="matrix(1 0 0 1 3445.64 2012)">tasks</text></g></svg>